<?xml version="1.0" standalone="no"?>
<!DOCTYPE svg PUBLIC "-//W3C//DTD SVG 20010904//EN"
 "http://www.w3.org/TR/2001/REC-SVG-20010904/DTD/svg10.dtd">
<svg version="1.0" xmlns="http://www.w3.org/2000/svg"
 width="810.000000pt" height="1013.000000pt" viewBox="0 0 810.000000 1013.000000"
 preserveAspectRatio="xMidYMid meet">

<g transform="translate(0.000000,1013.000000) scale(0.100000,-0.100000)"
fill="#000000" stroke="none">
<path d="M3676 7891 c-65 -21 -146 -100 -163 -158 -46 -154 25 -286 176 -333
43 -13 86 -20 105 -17 72 12 144 39 180 68 l37 32 -37 38 c-34 34 -40 37 -54
24 -71 -64 -207 -57 -256 14 -21 29 -10 41 39 41 23 0 73 7 112 15 38 8 102
15 141 15 83 0 91 10 69 84 -30 98 -70 143 -155 175 -65 25 -126 25 -194 2z
m186 -130 c54 -60 44 -66 -119 -76 -98 -6 -103 -6 -103 13 0 24 45 80 74 93
12 5 43 7 70 5 41 -3 55 -9 78 -35z"/>
<path d="M4145 7888 c-3 -13 -10 -108 -15 -213 -6 -104 -13 -207 -17 -227 l-5
-38 69 0 69 0 12 93 c7 50 12 107 12 124 0 18 7 51 16 73 19 47 72 80 128 80
l34 0 4 60 c2 35 -1 61 -7 61 -32 4 -113 -19 -136 -38 -22 -19 -27 -16 -31 15
-3 26 -6 27 -65 30 -58 3 -63 1 -68 -20z"/>
<path d="M3105 7780 c-36 -12 -51 -24 -87 -68 -26 -31 -27 -32 -38 -12 -13 24
-44 26 -84 5 -15 -8 -35 -15 -43 -15 -10 0 -13 -5 -8 -17 4 -10 12 -34 17 -53
5 -19 24 -80 42 -135 18 -55 45 -140 61 -190 61 -197 79 -250 86 -259 5 -5 26
-2 51 7 24 10 51 17 61 17 23 0 22 10 -13 120 -16 52 -30 98 -30 101 0 3 33 4
73 1 91 -6 147 17 204 82 81 92 85 211 11 323 -16 23 -45 55 -64 70 -32 24
-46 27 -123 30 -47 1 -99 -2 -116 -7z m156 -136 c27 -24 59 -97 59 -133 0 -16
-13 -46 -29 -67 -72 -100 -207 -71 -241 51 -19 69 9 142 64 166 35 15 123 5
147 -17z"/>
<path d="M5456 7778 c-4 -14 -22 -81 -36 -138 -5 -19 -16 -62 -25 -95 -9 -33
-20 -76 -25 -95 -5 -19 -23 -87 -41 -150 -45 -160 -45 -166 15 -208 27 -19 59
-34 72 -34 13 0 70 37 141 94 228 182 228 181 231 164 3 -14 -13 -76 -49 -193
-8 -25 -44 -162 -61 -232 -3 -13 47 -55 104 -86 27 -15 30 -14 85 31 32 25 96
76 142 112 46 37 111 90 145 117 34 28 86 69 116 91 88 65 88 65 23 107 l-56
37 -36 -27 c-40 -31 -284 -224 -319 -254 -12 -10 -26 -19 -31 -19 -10 0 17
108 79 315 24 83 42 156 39 159 -2 2 -28 19 -57 39 l-54 35 -76 -58 c-43 -33
-129 -100 -192 -149 -63 -50 -116 -87 -118 -82 -4 12 44 194 104 393 8 26 14
51 14 57 0 15 -90 81 -112 81 -10 0 -20 -6 -22 -12z"/>
<path d="M2550 7531 c-94 -14 -177 -78 -217 -169 -44 -99 -22 -205 57 -282 50
-49 121 -80 182 -80 49 0 130 33 188 75 130 96 140 290 20 399 -23 20 -51 41
-63 45 -35 13 -118 19 -167 12z m117 -144 c13 -11 32 -40 44 -64 38 -79 7
-156 -76 -187 -45 -18 -46 -18 -93 6 -57 28 -92 83 -92 145 0 35 6 50 36 82
20 22 47 42 62 44 45 7 96 -4 119 -26z"/>
<path d="M4730 7448 c-12 -14 -20 -35 -20 -58 0 -54 29 -80 90 -80 58 0 80 22
80 80 0 52 -29 80 -85 80 -33 0 -50 -6 -65 -22z"/>
<path d="M1942 7378 c-23 -18 -42 -39 -42 -48 0 -19 46 -80 359 -475 30 -38
56 -72 58 -74 2 -3 66 45 107 80 9 8 10 8 -193 264 -216 273 -225 285 -237
285 -6 0 -29 -14 -52 -32z"/>
<path d="M1855 6993 c-11 -2 -29 -6 -41 -8 -31 -7 -122 -83 -142 -119 -46 -86
-52 -149 -20 -233 23 -64 66 -111 132 -146 57 -30 157 -29 206 1 19 12 44 26
56 31 28 13 98 93 119 138 10 20 20 53 22 74 l6 39 -55 0 c-55 0 -55 0 -66
-38 -27 -90 -127 -158 -195 -133 -15 6 -27 14 -27 19 0 4 56 66 125 137 68 72
124 135 125 141 0 12 -44 55 -80 77 -25 15 -128 28 -165 20z m92 -123 c2 0 3
-6 3 -13 0 -7 -38 -51 -85 -99 -83 -86 -85 -87 -100 -65 -29 41 -14 118 31
159 27 23 84 36 119 26 16 -4 31 -8 32 -8z"/>
<path d="M6197 6861 c-101 -52 -146 -122 -147 -227 0 -55 5 -81 25 -120 46
-92 169 -191 227 -182 20 3 23 10 26 55 3 51 3 51 -32 63 -45 14 -113 91 -122
136 -7 39 7 88 27 91 8 1 66 -60 129 -137 63 -76 120 -139 125 -139 18 -1 91
81 109 123 13 28 17 56 14 105 -3 55 -10 75 -41 123 -83 128 -217 171 -340
109z m203 -116 c21 -14 44 -33 50 -44 15 -29 12 -114 -4 -137 -13 -17 -16 -17
-29 -4 -33 35 -147 170 -147 174 0 43 69 49 130 11z"/>
<path d="M1451 6602 c-17 -27 -31 -52 -31 -56 0 -10 93 -151 149 -226 48 -64
56 -79 47 -87 -5 -6 -124 14 -256 43 -100 22 -104 20 -140 -37 -31 -50 -33
-79 -8 -79 32 -2 316 -48 427 -69 78 -16 86 -14 104 22 9 17 25 46 36 63 l21
30 -48 70 c-191 275 -255 364 -262 369 -4 3 -22 -17 -39 -43z"/>
<path d="M6895 6536 c-11 -7 -51 -30 -90 -51 -38 -20 -92 -50 -120 -65 -46
-25 -127 -69 -235 -128 -114 -61 -129 -73 -121 -90 44 -99 40 -95 73 -88 30 6
30 6 24 -29 -14 -75 40 -183 117 -233 37 -23 51 -26 127 -26 69 0 93 4 128 23
23 13 42 27 42 32 0 5 6 9 13 9 21 0 75 82 88 134 23 91 -24 209 -102 257 -21
13 -39 27 -39 30 0 8 135 89 148 89 5 0 17 9 28 21 18 20 18 21 -10 75 -30 57
-39 62 -71 40z m-155 -311 c49 -25 70 -62 70 -120 0 -44 -5 -57 -32 -87 -18
-20 -53 -43 -78 -53 -43 -16 -46 -16 -90 5 -54 25 -80 65 -80 124 0 98 124
175 210 131z"/>
<path d="M1206 6025 c-52 -18 -84 -43 -123 -93 -31 -41 -63 -128 -63 -172 0
-46 32 -129 65 -167 55 -65 100 -83 203 -83 96 1 112 7 172 64 73 69 119 197
100 280 -12 53 -19 57 -70 40 l-45 -15 0 -67 c0 -56 -5 -73 -28 -108 -31 -46
-82 -78 -112 -72 -28 5 -25 19 50 203 26 64 54 141 57 154 4 17 -83 50 -132
50 -19 0 -53 -6 -74 -14z m84 -133 c0 -10 -11 -42 -25 -70 -14 -29 -25 -55
-25 -59 0 -22 -35 -93 -46 -93 -7 0 -23 14 -35 31 -43 61 -20 167 44 194 47
21 87 19 87 -3z"/>
<path d="M6883 5545 c-61 -19 -126 -69 -154 -118 -20 -35 -24 -56 -24 -122 0
-69 4 -87 27 -126 15 -26 34 -49 43 -53 23 -8 18 -25 -10 -32 -20 -5 -23 -9
-15 -24 6 -10 10 -35 10 -55 0 -55 8 -56 240 -10 41 8 112 21 158 29 46 8 93
18 104 22 11 3 43 10 72 14 82 14 127 32 119 50 -3 8 -8 33 -11 55 -2 22 -7
43 -11 46 -9 9 -133 -9 -145 -21 -6 -6 -29 -10 -52 -10 l-43 0 15 35 c17 42
20 85 9 135 -33 150 -181 232 -332 185z m169 -152 c35 -21 58 -70 58 -125 0
-56 -56 -113 -120 -123 -99 -14 -164 36 -164 128 0 57 19 92 64 120 35 21 125
21 162 0z"/>
<path d="M715 5454 c-3 -27 -7 -59 -9 -71 -4 -27 11 -33 74 -33 27 0 51 -4 54
-9 3 -4 28 -11 56 -15 54 -7 63 -19 29 -36 -60 -32 -79 -191 -34 -279 43 -85
127 -131 241 -131 73 0 136 20 169 54 74 77 108 209 70 276 -21 36 -18 50 9
50 22 0 25 6 33 53 14 80 13 81 -107 92 -36 3 -96 12 -135 20 -38 8 -115 21
-170 30 -55 9 -127 21 -160 27 -125 23 -113 26 -120 -28z m475 -179 c7 -8 19
-15 26 -15 19 0 54 -73 54 -112 0 -52 -40 -104 -92 -119 -54 -16 -121 -2 -157
33 -37 36 -46 64 -38 121 4 31 15 50 41 74 32 29 42 33 95 33 40 0 63 -5 71
-15z"/>
<path d="M6980 4909 c-128 -20 -213 -129 -214 -274 -1 -85 16 -146 52 -186
l27 -30 35 36 c33 34 34 36 20 68 -8 18 -15 64 -15 106 l0 73 44 39 c24 21 47
36 52 33 5 -3 9 -93 9 -200 l0 -194 36 0 c67 0 139 28 182 72 124 125 100 336
-50 431 -35 22 -122 34 -178 26z m159 -169 c36 -37 48 -88 32 -140 -13 -44
-55 -82 -85 -78 -19 3 -21 11 -24 93 -5 159 13 189 77 125z"/>
<path d="M1035 4551 c-70 -18 -126 -63 -161 -131 -13 -26 -17 -56 -17 -122 1
-75 5 -94 29 -138 47 -87 126 -134 224 -133 80 0 143 26 188 77 59 67 67 92
67 201 -1 91 -3 105 -30 154 -16 29 -40 60 -53 69 -22 14 -25 13 -52 -19 -35
-41 -35 -43 -10 -79 49 -68 42 -193 -12 -231 -45 -32 -43 -37 -68 181 -18 162
-22 175 -50 177 -14 1 -38 -2 -55 -6z m27 -206 c5 -33 12 -85 18 -115 5 -30 6
-57 2 -61 -15 -14 -77 17 -99 50 -50 74 -13 195 57 187 11 -1 17 -19 22 -61z"/>
<path d="M7130 4285 c-30 -8 -89 -21 -130 -29 -41 -8 -102 -20 -135 -27 -33
-6 -77 -14 -97 -16 -34 -5 -39 -9 -47 -42 -24 -96 -22 -108 17 -139 48 -36
117 -84 142 -98 11 -6 28 -18 37 -26 41 -36 216 -149 226 -145 6 2 16 28 23
58 7 30 13 55 14 56 0 0 -24 17 -52 36 -53 36 -183 126 -228 159 -34 25 -17
36 73 48 43 5 86 14 97 20 10 5 40 10 67 11 77 2 93 10 109 54 7 22 14 52 14
68 0 25 -3 27 -37 26 -21 0 -63 -7 -93 -14z"/>
<path d="M958 3918 c-22 -6 -38 -16 -38 -25 0 -22 55 -97 85 -117 l27 -18 -24
-16 c-12 -8 -24 -16 -25 -17 -6 -4 28 -105 38 -110 5 -4 49 7 97 23 48 17 103
33 122 37 19 4 41 11 50 15 17 9 131 45 173 54 21 5 27 12 27 34 0 27 -21 96
-32 107 -6 6 -142 -31 -163 -44 -26 -16 -131 -28 -164 -19 -39 11 -54 26 -76
76 -15 35 -30 38 -97 20z"/>
<path d="M6692 3775 c-67 -31 -106 -73 -145 -155 -26 -53 -32 -78 -32 -132 0
-90 13 -105 73 -78 41 19 42 20 42 69 0 72 30 135 81 166 27 18 49 25 65 21
22 -6 23 -7 9 -45 -15 -43 -63 -156 -101 -239 -13 -29 -24 -59 -24 -67 0 -25
61 -48 130 -49 136 -2 226 77 260 229 8 37 7 60 -5 107 -20 78 -63 131 -138
168 -77 38 -140 40 -215 5z m227 -181 c40 -51 23 -144 -35 -187 -22 -16 -88
-27 -99 -15 -9 9 89 228 101 228 7 0 22 -12 33 -26z"/>
<path d="M1381 3600 c-152 -78 -207 -118 -227 -166 -37 -87 3 -218 95 -315 31
-32 63 -59 71 -59 15 0 60 58 60 76 0 5 -20 28 -43 52 -26 25 -50 62 -61 92
-17 48 -17 51 1 82 30 52 52 43 92 -36 20 -38 54 -89 76 -113 38 -42 43 -45
96 -46 63 -1 118 26 137 68 18 39 14 118 -7 167 -21 48 -73 102 -110 113 l-24
7 23 18 24 18 -28 56 c-16 31 -31 56 -35 55 -3 -1 -66 -32 -140 -69z m137
-144 c15 -8 34 -26 42 -41 19 -36 19 -103 0 -115 -24 -15 -66 -11 -82 8 -24
28 -68 109 -68 126 0 34 61 46 108 22z"/>
<path d="M6399 3313 c-27 -34 -51 -84 -46 -98 3 -7 83 -60 177 -117 94 -56
183 -111 198 -120 15 -10 33 -21 41 -25 8 -3 37 -21 65 -40 28 -18 54 -33 59
-33 5 0 15 -7 24 -16 19 -19 27 -12 66 57 32 57 43 45 -156 165 -81 49 -205
124 -275 166 -70 43 -130 77 -133 78 -3 0 -12 -8 -20 -17z"/>
<path d="M1740 3083 c-70 -31 -96 -41 -145 -58 -27 -10 -63 -23 -80 -30 -34
-14 -131 -50 -157 -59 -28 -9 -21 -39 16 -75 l35 -34 83 33 c110 43 115 45
172 69 27 12 55 21 62 21 16 0 19 -21 5 -35 -5 -6 -43 -70 -85 -143 l-76 -133
19 -27 c48 -68 51 -69 148 -32 49 17 106 39 128 46 22 8 49 19 60 24 11 5 30
12 42 15 19 5 22 3 16 -12 -7 -18 -87 -158 -129 -225 -39 -61 -39 -79 -2 -126
18 -22 38 -41 44 -41 7 -1 21 16 32 37 36 69 68 126 120 216 29 49 52 91 52
93 0 2 12 22 26 45 15 23 27 52 27 64 0 28 -62 104 -86 104 -16 0 -159 -52
-235 -85 -18 -8 -41 -15 -52 -15 -23 0 -20 11 26 90 17 30 43 77 58 103 14 26
33 58 42 72 15 23 14 25 -27 69 -46 51 -76 57 -139 29z"/>
<path d="M6285 3048 c-16 -6 -42 -15 -56 -20 -41 -14 -119 -96 -145 -152 -79
-171 43 -366 229 -366 94 0 158 32 223 114 50 63 64 101 64 180 0 116 -66 202
-182 240 -52 18 -89 19 -133 4z m133 -161 c72 -69 78 -143 18 -203 -55 -55
-127 -57 -186 -7 -78 65 -79 163 -3 223 40 32 131 25 171 -13z"/>
<path d="M5757 2808 c-55 -49 -56 -42 31 -153 28 -38 52 -71 52 -75 0 -4 -23
-10 -52 -13 -131 -16 -216 -143 -194 -291 10 -67 84 -161 150 -192 96 -45 202
-25 286 52 20 19 43 53 50 75 16 49 26 56 41 30 12 -18 15 -17 61 17 26 20 48
41 48 48 0 11 -36 58 -298 393 -124 158 -119 151 -123 151 -3 0 -26 -19 -52
-42z m160 -344 c57 -27 87 -77 87 -142 0 -52 -2 -57 -43 -93 -33 -29 -52 -39
-78 -39 -62 0 -123 48 -153 119 -19 47 2 105 54 142 44 33 82 36 133 13z"/>
<path d="M2252 2589 c-20 -54 -23 -79 -9 -79 8 0 26 -9 41 -21 36 -28 34 -67
-6 -121 -18 -24 -46 -62 -62 -86 -16 -24 -33 -45 -38 -49 -6 -3 -29 9 -53 26
-24 17 -48 31 -53 31 -15 0 -73 -70 -67 -80 3 -4 25 -21 50 -37 25 -15 45 -32
45 -36 0 -5 -16 -29 -36 -53 -41 -50 -45 -41 40 -101 l39 -28 38 45 38 44 34
-16 34 -16 26 33 c29 36 27 59 -4 76 -11 5 -19 13 -19 18 0 4 36 57 80 116 78
105 80 109 80 165 0 43 -6 65 -22 90 -29 42 -94 88 -135 96 -28 6 -34 3 -41
-17z"/>
<path d="M2652 2308 c-10 -18 -34 -60 -53 -93 -19 -33 -42 -73 -52 -90 -9 -16
-24 -44 -32 -62 -8 -17 -20 -35 -26 -38 -6 -4 -35 5 -65 20 -30 15 -56 26 -57
24 -28 -49 -37 -70 -37 -81 0 -8 23 -27 50 -42 28 -15 50 -31 50 -35 0 -17
-50 -61 -68 -61 -11 0 -35 11 -54 24 l-35 23 -39 -33 -39 -34 44 -40 c59 -54
135 -78 190 -60 42 13 85 48 112 90 l17 25 32 -19 c35 -20 35 -21 67 39 15 29
15 30 -15 55 l-30 25 45 80 c49 87 97 175 119 216 8 15 12 33 9 41 -5 14 -85
58 -104 58 -5 0 -18 -15 -29 -32z"/>
<path d="M5275 2266 c-16 -7 -41 -18 -55 -24 -74 -30 -151 -118 -137 -155 8
-20 89 -46 94 -30 17 49 107 103 174 103 48 0 109 -34 92 -51 -9 -9 -263 -135
-301 -150 -32 -12 -36 -32 -16 -74 30 -65 143 -135 217 -135 42 0 126 30 175
63 25 17 55 50 72 80 54 94 37 237 -37 312 -66 66 -201 96 -278 61z m221 -261
c8 -31 -22 -92 -58 -119 -41 -29 -120 -27 -153 4 -14 13 -25 26 -25 30 0 4 41
26 90 50 50 23 93 46 96 51 11 19 44 9 50 -16z"/>
<path d="M2960 2160 c-8 -5 -24 -10 -35 -10 -35 -1 -99 -54 -132 -110 -30 -49
-33 -62 -33 -132 0 -69 3 -83 30 -127 46 -73 113 -117 217 -141 37 -8 61 -9
85 -1 18 6 44 13 58 15 39 8 108 73 135 127 61 120 10 280 -108 340 -78 40
-185 59 -217 39z m179 -166 c31 -34 33 -40 29 -89 -5 -61 -42 -119 -86 -136
-37 -15 -109 -5 -140 18 -37 28 -54 85 -41 138 31 122 156 158 238 69z"/>
<path d="M4896 2105 c-15 -8 -39 -15 -52 -15 -13 0 -24 -5 -24 -12 0 -14 33
-129 56 -193 8 -23 14 -62 14 -87 0 -39 -6 -54 -31 -83 -17 -19 -35 -35 -39
-35 -5 0 -20 -4 -33 -9 l-25 -10 17 -55 c12 -41 21 -56 34 -56 29 0 73 27 104
65 l30 35 12 -26 c8 -19 16 -24 29 -19 9 3 38 11 63 16 l47 10 -15 47 c-8 26
-21 72 -29 102 -12 48 -34 122 -88 295 -14 45 -29 52 -70 30z"/>
<path d="M3485 2002 c-65 -28 -92 -51 -114 -98 -54 -115 -6 -195 159 -267 19
-8 59 -25 89 -38 29 -13 61 -34 69 -47 14 -22 14 -27 -3 -57 -11 -23 -28 -36
-47 -40 -47 -11 -129 5 -187 36 -30 16 -59 29 -65 29 -14 0 -66 -81 -59 -92 2
-5 21 -19 41 -32 100 -63 276 -80 367 -35 83 40 127 129 105 211 -12 43 -60
92 -115 118 -22 10 -76 35 -119 55 -111 51 -130 82 -81 130 19 20 34 25 77 25
54 0 149 -27 171 -49 6 -6 16 -11 23 -11 6 0 17 -7 24 -15 20 -24 35 -18 64
25 34 52 26 68 -56 108 -129 62 -260 79 -343 44z"/>
<path d="M4240 1963 c-17 -22 -21 -37 -17 -71 10 -92 111 -108 159 -26 15 26
16 37 8 60 -19 49 -39 64 -86 64 -35 0 -47 -5 -64 -27z"/>
</g>
</svg>
