<?xml version="1.0" standalone="no"?>
<!DOCTYPE svg PUBLIC "-//W3C//DTD SVG 20010904//EN"
 "http://www.w3.org/TR/2001/REC-SVG-20010904/DTD/svg10.dtd">
<svg version="1.0" xmlns="http://www.w3.org/2000/svg"
 width="375.000000pt" height="620.000000pt" viewBox="0 0 375.000000 620.000000"
 preserveAspectRatio="xMidYMid meet">

<g transform="translate(0.000000,620.000000) scale(0.100000,-0.100000)"
fill="#000000" stroke="none">
<path d="M1973 6057 c1 -11 -4 -22 -10 -24 -7 -3 -13 2 -13 11 0 19 -26 21
-33 3 -3 -8 -20 -14 -37 -15 -51 -1 -161 -43 -208 -78 -24 -18 -49 -35 -54
-36 -6 -2 -11 -15 -12 -28 -1 -18 -7 -25 -21 -26 -35 -2 -38 -4 -24 -20 11
-14 10 -18 -6 -30 -11 -7 -26 -18 -33 -24 -7 -6 -16 -9 -21 -6 -11 7 -81 -77
-81 -96 0 -17 -66 -105 -111 -147 -19 -18 -26 -30 -16 -27 24 8 21 -1 -10 -34
-50 -52 -58 -65 -59 -95 -1 -17 -13 -48 -28 -69 -14 -21 -26 -49 -26 -60 0
-23 -48 -166 -68 -203 -7 -12 -12 -29 -12 -38 0 -16 -51 -151 -71 -187 -5 -10
-9 -28 -9 -40 0 -25 -34 -137 -50 -168 -6 -11 -15 -46 -21 -77 -6 -32 -15 -63
-20 -69 -5 -7 -9 -25 -8 -40 0 -16 -5 -47 -11 -69 -6 -22 -14 -82 -19 -134 -6
-72 -12 -96 -25 -103 -14 -8 -15 -12 -5 -25 11 -12 10 -17 -3 -24 -9 -5 -19
-21 -23 -36 -4 -16 -15 -36 -26 -46 -10 -10 -19 -24 -19 -32 0 -8 -4 -15 -9
-15 -11 0 -71 -86 -71 -101 0 -5 -4 -9 -10 -9 -5 0 -10 -13 -10 -29 0 -16 -6
-31 -15 -35 -8 -3 -15 -12 -15 -20 0 -7 -7 -16 -15 -20 -11 -4 -15 -21 -15
-67 0 -50 2 -59 13 -50 8 6 17 7 21 3 4 -4 7 7 6 23 -4 42 10 77 26 71 9 -3
14 1 14 12 1 9 7 28 15 42 12 22 14 23 20 8 4 -9 4 -21 1 -27 -4 -5 -2 -12 3
-15 5 -4 7 -29 5 -58 -2 -28 1 -57 7 -64 8 -10 7 -22 -2 -44 -13 -29 -32 -42
-27 -19 2 6 -7 15 -19 20 -29 11 -29 2 0 -41 13 -19 31 -62 41 -95 10 -33 22
-73 27 -89 33 -104 -13 -357 -81 -443 -11 -14 -20 -33 -20 -42 0 -9 -8 -21
-19 -28 -48 -30 -171 -220 -171 -265 0 -34 -77 -111 -125 -125 -22 -6 -74 -21
-115 -33 -41 -12 -90 -23 -108 -25 -42 -4 -95 -44 -116 -88 -15 -32 -16 -138
-16 -1166 l0 -1131 1875 0 1875 0 -1 713 c-1 581 -3 703 -13 662 -14 -60 -38
-115 -49 -115 -4 0 0 17 9 38 9 20 22 75 30 121 12 74 12 93 -2 159 -9 42 -27
105 -40 141 -29 78 -45 141 -35 141 5 0 4 21 0 47 -4 27 -8 59 -8 72 -1 23 0
23 18 7 12 -11 30 -66 52 -154 l34 -137 3 290 c1 190 -1 291 -8 293 -5 2 -10
12 -10 22 0 36 -18 30 -23 -8 -12 -81 -30 -144 -38 -130 -7 10 -9 10 -9 1 0
-7 -4 -13 -10 -13 -16 0 -12 22 6 35 12 8 17 32 20 91 l3 79 -14 -50 c-7 -27
-14 -60 -14 -73 -1 -13 -5 -21 -10 -18 -5 3 -15 -14 -22 -39 -7 -24 -15 -42
-17 -40 -6 5 20 159 29 170 4 6 18 46 30 90 18 60 23 102 22 170 -2 107 -21
198 -39 191 -8 -3 -11 0 -7 9 3 8 -2 17 -10 21 -9 3 -13 12 -11 19 3 7 0 16
-7 21 -8 5 -10 3 -4 -6 5 -9 4 -11 -4 -6 -6 4 -9 11 -6 16 3 5 0 29 -6 52 -14
49 -16 55 -18 66 -3 16 -21 -24 -21 -48 0 -20 -2 -22 -11 -10 -8 11 -9 4 -6
-27 3 -25 1 -46 -5 -50 -7 -4 -8 -1 -3 7 5 8 4 11 -3 6 -6 -3 -11 -32 -11 -64
0 -32 -5 -70 -10 -86 -6 -15 -11 -62 -12 -104 0 -42 -4 -86 -8 -97 -5 -11 -4
-25 1 -32 15 -19 2 -58 -30 -90 -16 -15 -32 -41 -36 -57 -9 -36 -49 -80 -102
-112 -53 -31 -59 -30 -32 6 12 17 28 30 35 30 7 0 12 5 10 12 -1 7 7 16 18 21
11 6 28 21 38 34 15 19 16 27 7 38 -10 12 -10 22 0 45 18 44 30 47 19 5 -14
-49 -6 -67 13 -30 16 30 18 69 23 340 1 50 7 153 14 230 15 165 8 270 -17 260
-13 -5 -13 -2 2 14 15 16 17 28 11 58 -4 21 -9 48 -10 60 -2 11 -6 32 -10 45
-8 23 -8 23 14 4 11 -11 21 -26 21 -35 0 -14 2 -14 9 -1 6 8 7 18 4 24 -3 5
-1 6 5 2 7 -4 12 -16 12 -26 0 -10 5 -22 11 -26 14 -9 29 15 21 34 -4 11 -1
13 9 8 10 -6 10 -4 -1 6 -20 17 -42 67 -35 78 9 14 -31 49 -45 40 -7 -4 -9
-13 -5 -20 6 -10 4 -11 -6 -4 -8 5 -23 7 -34 6 -14 -2 -9 4 15 19 19 13 37 24
39 26 5 4 -39 116 -49 123 -3 3 -17 28 -29 55 -12 28 -27 59 -33 69 -23 43
-58 162 -57 195 1 41 -2 46 42 -94 42 -133 47 -143 59 -122 7 14 13 16 24 6 8
-6 14 -16 14 -22 0 -6 6 -18 14 -26 22 -25 118 -250 111 -261 -3 -5 -2 -17 3
-26 18 -32 35 51 30 140 -5 72 -18 119 -47 166 -5 8 -17 31 -26 51 -26 54 -39
67 -68 74 -23 6 -26 5 -21 -11 4 -14 0 -12 -15 6 -24 30 -54 110 -40 110 5 0
9 -7 9 -17 0 -9 3 -14 6 -10 13 12 -7 46 -24 41 -15 -5 -14 -3 2 10 11 9 15
20 10 28 -4 7 -4 10 0 6 4 -3 15 -21 24 -40 10 -18 21 -31 27 -28 5 3 11 38
13 79 3 71 9 97 66 244 44 115 32 185 -60 368 -35 70 -64 134 -64 142 0 9 -7
42 -16 74 -9 32 -18 72 -21 88 -2 17 -10 44 -18 60 -7 17 -28 77 -46 135 -56
177 -119 307 -203 418 -78 103 -159 182 -187 182 -9 0 -37 16 -62 36 -48 37
-137 69 -232 83 -27 4 -69 17 -91 30 -23 12 -51 23 -62 26 -29 5 -72 35 -72
49 0 15 -94 108 -106 105 -5 -1 -18 2 -28 6 -13 6 -21 5 -24 -3 -5 -15 -32 -3
-32 14 0 11 -11 14 -42 13 -24 -1 -57 2 -74 6 -20 4 -34 3 -38 -4 -4 -6 -12
-11 -18 -11 -7 0 -6 5 1 14 10 12 7 15 -18 14 -24 -1 -30 -5 -28 -21z m-273
-137 c0 -5 -4 -10 -10 -10 -5 0 -10 5 -10 10 0 6 5 10 10 10 6 0 10 -4 10 -10z
m625 -375 c28 -4 55 -12 62 -17 6 -5 30 -10 52 -11 23 -1 41 -4 41 -8 0 -4 14
-4 31 1 33 10 53 5 44 -10 -3 -4 4 -10 15 -13 12 -3 18 -11 15 -19 -4 -10 6
-18 32 -26 42 -13 101 -62 96 -79 -2 -6 4 -14 14 -17 26 -9 68 -77 53 -86 -8
-5 -4 -16 14 -37 20 -23 26 -44 31 -103 3 -40 9 -78 14 -84 8 -10 21 -77 22
-116 1 -15 35 -140 47 -170 3 -8 6 -22 7 -30 1 -8 4 -35 8 -60 11 -68 18 -129
22 -188 2 -29 9 -114 16 -188 13 -144 6 -247 -27 -399 -8 -38 -17 -87 -19
-108 -3 -21 -7 -42 -10 -47 -3 -5 -1 -11 4 -14 5 -4 3 -30 -6 -64 -8 -31 -17
-65 -19 -76 -5 -30 -62 -134 -102 -188 -57 -77 -117 -138 -196 -198 -40 -30
-106 -80 -147 -111 -95 -72 -122 -81 -245 -75 -169 8 -269 36 -331 94 -17 16
-33 28 -35 26 -2 -2 -15 15 -28 37 -14 22 -30 37 -38 34 -7 -2 -15 2 -18 10
-4 8 -12 15 -18 15 -19 0 -158 145 -148 154 3 3 -2 6 -12 6 -21 0 -113 85
-132 123 -8 15 -12 37 -9 48 4 13 2 19 -6 17 -22 -5 -28 77 -9 108 14 21 18
22 23 10 4 -9 11 -16 18 -16 7 0 8 7 3 18 -4 9 -7 29 -6 44 1 14 -5 32 -13 38
-8 7 -15 20 -15 29 0 9 -7 25 -15 35 -8 11 -15 30 -15 42 0 12 -7 27 -15 34
-8 7 -15 28 -15 48 0 20 -7 40 -15 46 -19 14 -38 169 -30 246 13 121 39 166
70 123 11 -14 13 -13 19 10 3 15 13 27 21 27 17 0 20 -31 5 -46 -11 -11 33
-64 53 -64 6 0 25 -16 43 -35 23 -26 41 -35 65 -36 56 -3 124 3 129 10 3 4 16
11 30 17 23 11 22 11 -19 12 -24 0 -46 3 -49 6 -3 3 6 6 21 6 45 0 73 17 92
56 l18 38 18 -23 c15 -19 22 -21 33 -12 12 10 13 8 9 -9 -3 -11 -10 -20 -17
-19 -27 3 -47 -2 -41 -11 6 -10 58 -3 88 12 14 7 15 13 6 29 -9 17 -8 20 8 17
10 -2 20 -5 23 -8 3 -3 14 -10 25 -16 11 -6 21 -22 23 -36 2 -20 8 -25 23 -21
20 6 23 17 19 73 -3 43 -12 62 -60 120 -21 25 -46 63 -56 85 -17 35 -27 42
-89 64 -59 21 -88 25 -181 26 -79 0 -119 -4 -139 -15 -26 -14 -28 -13 -46 10
-10 14 -24 31 -30 38 -6 7 -7 21 -3 30 4 9 6 21 5 26 -1 5 1 16 5 25 4 9 8 19
9 24 2 4 4 10 5 15 1 4 2 14 1 23 -1 8 5 29 14 45 14 26 13 29 -2 33 -12 2
-13 5 -3 11 9 5 9 13 2 27 -6 11 -7 25 -2 33 4 7 4 24 -1 38 -7 17 -6 29 3 40
10 12 10 14 1 8 -7 -4 -13 -3 -13 3 0 6 10 16 22 22 14 8 18 14 10 17 -17 5
-15 37 3 52 8 7 15 22 16 34 1 19 2 18 8 -4 6 -22 8 -23 14 -7 10 27 9 49 -3
42 -6 -3 -7 1 -4 9 3 9 12 16 20 16 8 0 14 5 14 10 0 6 6 10 13 10 17 0 77 53
77 68 0 7 3 11 8 10 17 -5 51 14 46 26 -6 16 23 30 31 16 4 -6 13 -10 21 -10
8 0 13 4 10 9 -3 5 0 20 7 32 8 17 22 24 45 25 38 2 118 37 149 67 22 19 83
32 83 16 0 -4 17 -2 38 3 20 5 52 12 70 15 18 3 35 9 38 14 3 5 10 9 15 9 6 0
8 -4 5 -9 -3 -4 6 -6 19 -3 14 2 25 9 25 14 0 7 4 7 13 0 6 -5 35 -13 62 -17z
m-410 -55 c-10 -11 -23 -20 -29 -20 -6 1 0 10 13 20 30 26 39 26 16 0z m-205
-85 c-7 -9 -15 -13 -17 -11 -7 7 7 26 19 26 6 0 6 -6 -2 -15z m-49 -836 c31 1
83 -32 117 -76 l25 -33 -44 -1 -44 -1 33 -14 c17 -8 32 -16 32 -19 0 -3 -32
-5 -71 -5 -52 0 -70 3 -67 13 3 6 18 15 34 19 16 4 -8 6 -54 4 -63 -2 -85 1
-89 11 -3 7 -14 13 -24 13 -10 0 -19 5 -19 10 0 6 -11 8 -25 4 -15 -4 -25 -2
-25 5 0 6 5 11 10 11 6 0 10 7 10 16 0 10 6 14 15 10 9 -3 15 0 15 9 0 8 10
17 23 20 50 11 73 12 97 7 14 -2 37 -4 51 -3z m1789 -39 c16 -10 40 -103 40
-150 0 -42 -23 -135 -37 -150 -15 -16 -23 45 -22 180 0 85 3 148 6 140 3 -8 9
-17 13 -20z m-1804 -231 c19 -22 19 -22 -1 -11 -11 6 -27 16 -35 22 -13 8 -13
10 1 10 9 0 24 -10 35 -21z m1635 -385 c6 -32 23 -95 38 -139 16 -44 28 -84
28 -88 1 -14 35 -101 46 -114 5 -8 5 -13 0 -13 -31 0 -136 242 -149 340 -6 52
-5 54 10 35 16 -19 17 -19 10 15 -3 19 -4 32 0 29 3 -3 11 -32 17 -65z m-2274
-296 c-3 -8 -6 -5 -6 6 -1 11 2 17 5 13 3 -3 4 -12 1 -19z m2525 -17 c4 -34
-18 -38 -25 -4 -3 15 -3 32 0 36 8 13 21 -4 25 -32z m-2534 -123 c-3 -152 -16
-208 -16 -73 0 106 6 175 15 175 2 0 3 -46 1 -102z m2572 76 c0 -14 -4 -23
-10 -19 -5 3 -10 15 -10 26 0 10 5 19 10 19 6 0 10 -12 10 -26z m-2527 -36
c-3 -18 -10 -40 -15 -48 -8 -14 -4 17 9 63 8 30 13 19 6 -15z m2387 -28 c0 -5
-4 -10 -10 -10 -5 0 -10 5 -10 10 0 6 5 10 10 10 6 0 10 -4 10 -10z m45 -80
c3 -6 -1 -7 -9 -4 -18 7 -21 14 -7 14 6 0 13 -4 16 -10z m-2374 -78 c-25 -99
-32 -124 -37 -120 -4 5 20 132 33 173 12 39 15 -6 4 -53z m2164 -97 l-24 -90
4 75 c2 41 12 100 22 130 l18 55 2 -40 c2 -22 -8 -80 -22 -130z m-45 -4 c-14
-89 -21 -123 -26 -119 -2 2 3 49 11 103 8 55 15 105 15 110 1 6 4 4 7 -4 3 -7
0 -48 -7 -90z m-2210 19 c-9 -6 -11 -31 -6 -96 7 -105 -10 -83 -20 25 -6 58
-4 71 12 90 16 19 19 20 22 5 2 -9 -2 -20 -8 -24z m257 -2 c-3 -8 -6 -5 -6 6
-1 11 2 17 5 13 3 -3 4 -12 1 -19z m9 -146 c-11 -10 -12 3 -6 68 l5 65 3 -64
c2 -35 1 -66 -2 -69z m-157 -72 c-7 -47 -12 -89 -11 -93 1 -5 -2 -6 -7 -2 -9
5 -31 -55 -34 -96 -1 -9 -4 -16 -8 -13 -4 2 -19 -33 -34 -79 -23 -70 -28 -104
-33 -235 -2 -84 -7 -150 -11 -147 -3 4 -11 66 -17 138 -11 119 -10 141 7 219
10 47 23 98 29 113 5 14 10 51 10 81 0 30 4 54 9 54 4 0 18 34 30 75 13 41 25
75 28 75 3 0 2 -21 -2 -46 -4 -32 -3 -44 4 -39 6 3 11 13 11 21 0 8 5 14 11
14 7 0 10 14 7 37 -3 21 0 43 6 49 18 19 20 -31 5 -126z m88 18 c-5 -101 -29
-222 -39 -198 -4 8 -6 2 -6 -15 0 -16 -2 -61 -6 -100 -4 -43 -3 -62 3 -50 8
19 9 19 14 -5 11 -53 28 -167 26 -176 -1 -5 2 -20 8 -34 21 -52 32 -92 27
-105 -3 -7 2 -30 11 -51 13 -31 13 -36 2 -24 -20 20 -66 176 -84 280 -8 46
-17 87 -21 90 -11 8 -13 208 -2 215 6 3 10 16 10 28 0 16 3 18 9 9 13 -22 21
22 21 121 0 65 3 86 12 81 8 -5 9 -2 5 9 -3 10 -2 17 4 17 7 0 9 -31 6 -92z
m2233 82 c0 -5 -4 -10 -10 -10 -5 0 -10 5 -10 10 0 6 5 10 10 10 6 0 10 -4 10
-10z m-2490 -30 c0 -13 -5 -17 -15 -14 -15 6 -19 -4 -16 -38 1 -9 -3 -19 -9
-23 -12 -7 -12 5 -3 58 4 26 9 34 14 25 7 -10 9 -9 9 5 0 10 5 15 10 12 6 -3
10 -15 10 -25z m488 -30 c29 -27 59 -50 66 -50 16 0 66 -56 66 -73 0 -7 -7 -4
-14 6 -7 9 -16 17 -21 17 -12 0 -115 92 -136 122 -11 15 -19 28 -17 28 2 0 27
-22 56 -50z m-492 -47 c-3 -26 -11 -52 -17 -58 -7 -7 -9 0 -4 25 3 19 7 45 8
58 1 12 5 22 10 22 6 0 7 -20 3 -47z m321 15 c-3 -8 -6 -5 -6 6 -1 11 2 17 5
13 3 -3 4 -12 1 -19z m323 -55 c0 -9 -80 52 -85 65 -2 7 15 -3 40 -24 25 -20
45 -38 45 -41z m-570 27 c0 -5 -4 -10 -10 -10 -5 0 -10 5 -10 10 0 6 5 10 10
10 6 0 10 -4 10 -10z m128 -30 c-2 -22 1 -40 5 -40 5 0 5 -6 -1 -12 -5 -7 -12
-22 -15 -33 -2 -11 -5 13 -6 53 -1 46 3 72 10 72 7 0 10 -15 7 -40z m1512 16
c0 -2 -8 -10 -17 -17 -16 -13 -17 -12 -4 4 13 16 21 21 21 13z m405 -32 c15
-37 19 -51 10 -43 -8 9 -35 79 -30 79 2 0 12 -16 20 -36z m-1085 8 c0 -4 8 -9
18 -10 9 -1 38 -5 65 -8 31 -4 47 -11 47 -20 0 -13 22 -17 92 -16 31 1 34 -9
33 -95 -1 -35 2 -63 7 -63 4 0 43 30 86 67 l77 66 -75 -79 c-101 -108 -110
-122 -108 -164 1 -20 -3 -43 -7 -50 -5 -8 -4 -11 2 -7 16 10 22 -38 11 -85 -6
-30 -5 -53 6 -84 9 -27 11 -43 4 -41 -6 1 -13 -4 -15 -11 -4 -10 2 -13 18 -10
16 2 23 9 21 20 -1 9 2 19 8 23 5 3 10 -3 10 -14 0 -12 6 -21 13 -22 8 0 8 -2
1 -5 -7 -3 -10 -15 -7 -27 5 -22 5 -22 -10 -2 -26 33 -30 10 -7 -37 29 -57 36
-138 12 -138 -16 -1 -16 -2 1 -14 9 -7 17 -18 17 -25 0 -6 4 -11 9 -11 22 0
16 -32 -23 -112 -23 -47 -55 -102 -70 -122 -15 -20 -22 -36 -16 -36 6 0 5 -13
-5 -36 -8 -20 -15 -45 -15 -55 0 -40 -37 -87 -65 -83 -11 2 -25 -2 -31 -7 -22
-18 -113 99 -105 135 1 5 -7 18 -17 30 -33 36 -66 114 -98 234 -18 68 -18 96
1 112 11 9 13 16 5 24 -5 5 -10 13 -10 16 0 9 36 50 41 47 2 -1 -1 3 -7 8 -19
17 -27 56 -31 145 -4 111 -6 120 -16 120 -5 0 -4 7 3 15 11 13 7 19 -12 17 -3
-1 -9 5 -12 14 -3 8 -2 12 4 9 6 -3 11 2 11 12 3 41 1 111 -5 163 -6 54 -6 54
8 25 17 -34 18 -30 16 78 -1 48 3 77 9 77 6 0 11 6 11 14 0 9 8 12 24 9 13 -3
32 0 43 6 22 13 33 14 33 3z m-479 -177 c29 -55 60 -112 70 -127 11 -14 19
-31 19 -38 0 -6 4 -9 9 -5 5 3 13 0 17 -6 5 -8 3 -9 -6 -4 -15 9 -5 -28 18
-63 11 -18 17 -20 23 -10 10 15 12 6 3 -16 -5 -13 -9 -14 -20 -5 -18 15 -18 5
2 -33 10 -20 19 -27 23 -19 4 6 7 -3 7 -21 0 -18 3 -51 8 -73 5 -29 1 -23 -17
25 -13 36 -34 85 -47 110 -17 33 -19 41 -6 31 9 -7 16 -9 16 -3 0 15 -26 33
-35 24 -5 -4 -5 1 -2 10 3 9 -3 28 -14 42 -11 14 -18 26 -14 26 3 0 1 9 -5 20
-6 11 -15 18 -20 15 -10 -6 -50 65 -50 89 0 8 -11 38 -25 68 -25 53 -36 109
-15 78 6 -8 33 -60 61 -115z m-234 33 c-3 -7 -5 -2 -5 12 0 14 2 19 5 13 2 -7
2 -19 0 -25z m1377 -3 c-10 -8 -23 -14 -29 -14 -5 0 -1 6 9 14 11 8 24 15 30
15 5 0 1 -7 -10 -15z m-1970 -41 c-4 -44 -23 -91 -48 -124 -7 -8 -20 -41 -30
-72 -21 -64 -48 -83 -71 -51 -21 27 -2 77 71 183 24 36 44 73 44 82 0 14 12
25 32 27 3 1 4 -20 2 -45z m2583 -16 c-3 -8 -6 -5 -6 6 -1 11 2 17 5 13 3 -3
4 -12 1 -19z m-1980 -35 c-3 -10 -5 -4 -5 12 0 17 2 24 5 18 2 -7 2 -21 0 -30z
m-231 -50 c-4 -36 -12 -74 -17 -82 -8 -13 -9 -11 -5 9 4 14 9 51 13 83 3 31 8
57 11 57 3 0 2 -30 -2 -67z m695 -10 c1 -44 2 -45 10 -18 5 19 6 4 2 -40 -3
-38 -8 -72 -12 -75 -3 -3 -7 -21 -8 -40 0 -19 -6 -71 -13 -115 -6 -44 -12 -88
-11 -97 0 -10 -4 -18 -10 -18 -12 0 -12 3 7 118 8 53 13 109 10 124 -3 15 -1
30 5 34 7 4 10 37 7 90 -2 46 0 84 4 84 4 0 9 -21 9 -47z m1549 -12 c0 -45 -6
-37 -13 18 -4 29 -2 40 4 30 5 -7 9 -29 9 -48z m-1799 12 c13 -16 12 -17 -3
-4 -17 13 -22 21 -14 21 2 0 10 -8 17 -17z m-204 -45 c-2 -13 -4 -5 -4 17 -1
22 1 32 4 23 2 -10 2 -28 0 -40z m352 -2 c-2 -2 -13 8 -23 22 l-19 27 24 -22
c12 -12 21 -24 18 -27z m32 -33 c13 -16 12 -17 -3 -4 -17 13 -22 21 -14 21 2
0 10 -8 17 -17z m-358 -254 c0 -41 -2 -107 -2 -146 -1 -42 -5 -73 -11 -73 -5
0 -10 12 -10 28 0 15 -5 34 -10 42 -8 12 -10 10 -11 -10 0 -22 -2 -21 -14 10
-16 41 -19 84 -6 76 12 -8 23 23 16 45 -3 9 -2 20 4 23 5 3 7 16 4 29 -5 22
-5 22 10 2 17 -22 17 -31 3 106 -3 23 -2 58 2 78 5 31 8 23 16 -50 6 -47 10
-119 9 -160z m-186 179 c-3 -7 -5 -2 -5 12 0 14 2 19 5 13 2 -7 2 -19 0 -25z
m-97 2 c0 -5 -2 -10 -4 -10 -3 0 -8 5 -11 10 -3 6 -1 10 4 10 6 0 11 -4 11
-10z m97 -57 c-3 -10 -5 -4 -5 12 0 17 2 24 5 18 2 -7 2 -21 0 -30z m-10 -80
c-3 -10 -5 -4 -5 12 0 17 2 24 5 18 2 -7 2 -21 0 -30z m-140 -60 c-10 -59
-122 -292 -134 -279 -2 2 19 50 45 107 27 58 55 123 62 144 14 45 19 55 26 55
3 0 3 -12 1 -27z m606 -111 c19 -68 28 -152 16 -152 -5 0 -9 9 -9 20 0 11 -4
20 -9 20 -7 0 -24 88 -26 137 0 6 -4 15 -8 19 -4 4 -7 14 -7 22 0 32 28 -10
43 -66z m1757 69 c0 -5 -22 -33 -48 -63 -27 -29 -52 -61 -55 -72 -5 -12 -13
-16 -24 -12 -10 4 -14 4 -10 0 8 -8 -51 -74 -66 -74 -17 0 26 55 112 142 94
94 91 92 91 79z m-1801 -136 c0 -5 -4 -3 -9 5 -5 8 -9 22 -9 30 0 16 17 -16
18 -35z m1888 13 c-3 -8 -6 -5 -6 6 -1 11 2 17 5 13 3 -3 4 -12 1 -19z m-2263
-63 c-18 -39 -83 -109 -93 -100 -2 3 11 19 30 34 19 16 44 48 54 70 10 23 20
39 22 37 3 -2 -3 -21 -13 -41z m2253 23 c-3 -8 -6 -5 -6 6 -1 11 2 17 5 13 3
-3 4 -12 1 -19z m250 16 c-3 -3 -12 -4 -19 -1 -8 3 -5 6 6 6 11 1 17 -2 13 -5z
m-2867 -96 c-11 -48 -28 -104 -38 -125 -22 -41 -68 -90 -78 -81 -3 4 4 11 15
18 12 6 21 15 21 20 0 5 -17 0 -37 -11 l-38 -21 34 31 c26 22 37 27 43 18 4
-6 8 -9 9 -4 3 15 6 23 27 67 12 25 22 52 22 61 0 20 30 122 35 117 2 -1 -5
-42 -15 -90z m2870 -23 c-3 -12 -7 0 -10 30 -3 28 -3 55 0 60 7 14 17 -66 10
-90z m-2950 66 c0 -6 -12 -23 -26 -38 l-25 -28 23 37 c24 40 28 44 28 29z
m2296 -20 c16 13 18 2 5 -20 -6 -9 -11 -10 -15 -2 -4 6 -12 9 -17 6 -11 -7
-12 8 -2 19 4 4 9 2 11 -4 3 -8 8 -8 18 1z m-1449 -23 c-3 -8 -6 -5 -6 6 -1
11 2 17 5 13 3 -3 4 -12 1 -19z m1967 -107 c-5 -55 -9 -69 -14 -51 l-7 25 -10
-25 c-6 -14 -13 -55 -15 -93 -6 -79 -17 -100 -20 -36 -3 70 2 122 14 136 6 7
6 13 1 13 -12 0 -14 38 -2 46 6 3 9 0 7 -7 -1 -8 2 -15 7 -17 6 -2 16 25 24
60 18 77 26 51 15 -51z m-2812 16 c-11 -24 -25 -48 -32 -52 -14 -9 -14 -9 20
57 30 59 39 55 12 -5z m218 18 c-7 -9 -15 -13 -19 -10 -3 3 1 10 9 15 21 14
24 12 10 -5z m1323 -92 c-4 -11 -3 -14 5 -9 7 4 12 2 12 -6 0 -20 -49 -110
-72 -133 -12 -11 -18 -15 -14 -8 4 7 7 28 8 48 1 20 4 31 8 25 5 -7 11 -6 19
4 8 10 9 15 1 18 -11 3 -3 25 23 66 12 17 17 15 10 -5z m1346 -96 c1 -5 -3 -5
-9 -2 -5 3 -10 16 -9 28 0 21 1 21 9 2 5 -11 9 -24 9 -28z m-444 -88 c-22
-108 -13 -212 24 -290 7 -14 -1 -8 -21 15 -46 55 -60 120 -47 221 5 44 13 94
18 110 9 29 9 29 11 5 l2 -25 11 27 c19 47 19 23 2 -63z m-2146 16 c-24 -19
-48 -35 -54 -35 -5 0 -2 -5 7 -11 19 -11 57 3 118 42 l35 23 -24 -27 c-23 -26
-24 -27 -4 -27 11 0 28 9 38 20 10 11 24 20 30 20 7 0 18 7 25 15 7 8 17 15
22 15 5 0 -5 -16 -23 -35 -19 -19 -38 -34 -43 -32 -5 2 -18 -5 -28 -15 -10
-10 -32 -21 -48 -24 -16 -4 -27 -11 -24 -18 3 -7 -5 -21 -17 -32 -22 -19 -22
-19 -8 3 22 36 4 37 -55 5 -31 -17 -56 -26 -56 -21 0 5 -14 9 -32 9 -30 0 -31
0 -13 20 10 11 23 20 28 20 10 0 57 50 57 62 0 10 82 58 99 58 8 0 -6 -16 -30
-35z m326 -24 l-27 -26 23 37 c13 21 26 32 28 27 2 -6 -9 -23 -24 -38z m-43
-7 c-8 -14 -9 -13 -9 10 0 18 3 24 9 18 7 -7 7 -16 0 -28z m104 21 c-1 -8 -8
-21 -14 -27 -7 -7 -12 -16 -12 -22 0 -5 -12 -23 -27 -39 -32 -34 -16 -28 40
16 21 16 40 27 43 25 2 -3 -12 -18 -33 -33 -21 -16 -53 -42 -72 -59 -26 -24
-31 -26 -19 -8 9 13 14 31 11 41 -3 11 7 29 25 47 16 17 32 40 36 52 8 25 25
30 22 7z m854 -84 c0 -15 4 -31 8 -36 4 -6 14 -27 20 -47 14 -42 6 -64 -38
-105 -32 -28 -34 -28 -50 2 -11 20 -11 27 0 41 12 13 12 15 -1 14 -44 -7 -51
-1 -45 35 19 109 19 108 6 100 -9 -5 -11 -4 -6 4 4 6 11 9 15 7 4 -3 16 11 26
31 l19 35 23 -27 c13 -14 23 -38 23 -54z m-966 -7 c-25 -47 -114 -171 -114
-158 0 5 16 36 36 69 19 33 42 76 51 95 9 20 24 36 33 36 14 0 13 -6 -6 -42z
m-120 -20 c-9 -27 -40 -77 -72 -113 -57 -68 -112 -170 -112 -208 0 -12 -5 -25
-11 -29 -9 -5 -10 1 -5 22 l6 29 -15 -25 c-13 -23 -14 -23 -15 -4 0 11 5 25
11 31 6 6 7 13 1 17 -5 3 -17 -12 -26 -32 -10 -21 -26 -44 -38 -51 -23 -14
-23 -15 14 55 26 50 66 96 52 60 -12 -31 5 -16 22 20 9 20 25 46 35 57 69 83
127 159 144 190 26 48 29 41 9 -19z m962 9 c-10 -10 -19 5 -10 18 6 11 8 11
12 0 2 -7 1 -15 -2 -18z m-1144 -15 c-6 -6 -15 -8 -19 -4 -4 4 -1 11 7 16 8 5
17 7 19 4 3 -2 -1 -10 -7 -16z m2502 7 c3 -8 1 -15 -4 -15 -6 0 -10 7 -10 15
0 8 2 15 4 15 2 0 6 -7 10 -15z m-2079 -5 c3 -6 -1 -7 -9 -4 -18 7 -21 14 -7
14 6 0 13 -4 16 -10z m-446 -65 c-17 -24 -42 -54 -55 -66 -42 -39 -18 12 30
65 54 58 67 59 25 1z m411 36 c0 -5 -9 -19 -21 -32 l-20 -24 17 33 c19 33 24
38 24 23z m-61 -38 c-31 -39 -74 -83 -82 -83 -5 0 -2 7 7 15 8 9 13 23 10 33
-4 12 -3 13 3 4 7 -9 16 -5 38 18 31 33 45 40 24 13z m1446 -2 c-29 -27 -196
-83 -236 -79 l-34 3 50 18 c28 10 57 22 66 27 9 5 25 7 35 4 11 -3 44 6 74 20
67 30 69 31 45 7z m-439 -58 c-10 -10 -19 5 -10 18 6 11 8 11 12 0 2 -7 1 -15
-2 -18z m1327 -160 c7 -38 -8 -26 -25 21 -9 25 -12 46 -7 48 5 2 5 15 0 36 -6
20 -6 32 0 32 5 0 10 10 10 23 1 12 5 -14 10 -58 4 -44 10 -90 12 -102z
m-3069 132 c-10 -8 -26 -14 -34 -14 -9 0 -4 6 10 14 33 19 49 19 24 0z m1893
-1 c-3 -3 -12 -4 -19 -1 -8 3 -5 6 6 6 11 1 17 -2 13 -5z m230 -51 c-26 -24
-51 -42 -56 -39 -5 3 -26 -1 -47 -9 -23 -9 -31 -10 -20 -2 11 6 40 31 66 53
32 27 57 42 76 42 28 0 27 -1 -19 -45z m440 0 c-3 -10 -5 -4 -5 12 0 17 2 24
5 18 2 -7 2 -21 0 -30z m-2243 -4 c-6 -11 -24 -2 -24 11 0 5 7 7 15 4 8 -4 12
-10 9 -15z m1397 -11 c-5 -13 -16 -30 -25 -37 -13 -11 -17 -11 -22 3 -4 10 5
24 23 40 33 28 37 28 24 -6z m-1776 12 c-3 -5 -12 -10 -18 -10 -7 0 -6 4 3 10
19 12 23 12 15 0z m2420 -65 c-3 -36 -10 -65 -14 -65 -4 0 -3 32 2 70 12 88
22 84 12 -5z m-1361 -57 c6 -51 5 -59 -5 -44 -7 11 -13 51 -15 90 -5 86 10 53
20 -46z m1896 27 c6 4 24 -8 42 -27 46 -50 112 -90 92 -55 -5 8 -2 8 9 -2 21
-17 21 -16 -4 -18 -31 -3 -98 32 -141 72 -36 34 -54 61 -23 35 8 -6 19 -9 25
-5z m-702 -81 c-1 -36 -6 -68 -10 -70 -4 -3 -6 14 -4 38 2 24 4 55 5 71 1 15
4 27 7 27 3 0 4 -30 2 -66z m-453 -21 c-3 -24 -9 -42 -12 -40 -3 3 -2 30 2 59
5 29 10 47 13 40 2 -7 1 -34 -3 -59z m1375 57 c0 -5 -4 -10 -10 -10 -5 0 -10
5 -10 10 0 6 5 10 10 10 6 0 10 -4 10 -10z m-2733 -62 c-2 -13 -4 -5 -4 17 -1
22 1 32 4 23 2 -10 2 -28 0 -40z m110 20 c-3 -8 -6 -5 -6 6 -1 11 2 17 5 13 3
-3 4 -12 1 -19z m1827 -32 c-3 -21 -8 -35 -11 -32 -2 2 -1 20 3 40 3 21 8 35
11 32 2 -2 1 -20 -3 -40z m780 -12 c5 -14 4 -15 -9 -4 -17 14 -19 20 -6 20 5
0 12 -7 15 -16z m-2837 -56 c-3 -8 -6 -5 -6 6 -1 11 2 17 5 13 3 -3 4 -12 1
-19z m-429 -54 l-3 -49 -5 57 c-3 31 -1 53 3 49 5 -5 7 -30 5 -57z m627 -39
c29 -45 58 -86 64 -89 6 -4 11 -12 11 -18 0 -33 -117 112 -137 170 -17 49 2
29 62 -63z m418 27 c23 -20 40 -106 33 -165 -7 -54 -52 -165 -62 -154 -3 3 1
29 10 59 8 29 18 87 21 128 6 64 3 81 -14 115 -12 21 -21 46 -20 55 0 10 3 8
9 -5 4 -12 15 -26 23 -33z m197 -34 c0 -18 -2 -20 -9 -8 -6 8 -7 18 -5 22 9
14 14 9 14 -14z m15 -107 c-5 -36 -8 -83 -9 -103 -1 -21 -4 -38 -8 -38 -5 0
-8 -9 -8 -20 0 -11 -3 -20 -8 -20 -7 0 -6 80 3 163 3 28 1 47 -5 47 -5 0 -10
9 -10 21 0 11 4 18 9 14 5 -3 12 -1 16 5 4 6 11 7 17 4 7 -5 8 -29 3 -73z
m-736 -46 c0 -5 -6 -1 -14 9 -8 11 -15 24 -15 30 0 5 7 1 15 -10 8 -10 14 -23
14 -29z m466 36 c-3 -5 -1 -12 5 -16 5 -3 10 -35 10 -70 0 -35 -5 -67 -10 -70
-6 -4 -8 -11 -5 -16 4 -5 1 -9 -5 -9 -8 0 -10 9 -6 26 17 65 17 84 4 111 -15
30 -13 53 3 53 6 0 8 -4 4 -9z m191 -78 c-11 -11 -17 4 -9 23 7 18 8 18 11 1
2 -10 1 -21 -2 -24z m8 -28 c11 -30 -37 -146 -74 -180 -12 -11 -35 -39 -51
-61 -21 -30 -35 -41 -54 -41 -20 0 -23 2 -14 13 14 17 33 19 23 2 -4 -7 -3 -8
5 -4 6 4 9 11 6 16 -3 5 -1 12 5 15 6 4 23 25 37 48 14 23 29 44 33 47 18 12
38 78 27 89 -7 7 -6 15 3 26 12 14 7 20 -14 16 -5 -1 -4 5 4 13 16 20 56 21
64 1z m1245 -80 c6 -22 29 -64 51 -94 49 -63 48 -76 -2 -23 -37 40 -69 114
-74 172 -3 30 -2 31 5 10 5 -14 14 -43 20 -65z m-1476 -23 c-3 -12 -9 -19 -14
-16 -5 3 -4 14 2 25 13 26 20 21 12 -9z m-574 -56 c34 -51 37 -77 3 -29 -23
33 -58 102 -45 88 6 -5 24 -32 42 -59z m513 -1 c4 -5 8 -13 8 -16 0 -12 -86
-47 -140 -57 -30 -6 -81 -22 -114 -36 -47 -21 -57 -29 -51 -43 17 -43 15 -46
-9 -18 -33 38 -33 48 2 66 15 8 33 20 40 27 7 6 19 12 25 12 98 4 147 18 147
43 0 7 14 18 31 24 21 8 28 16 23 25 -9 14 26 -10 38 -27z m1577 -75 c7 -22 8
-31 1 -24 -6 6 -15 25 -20 44 -12 43 3 26 19 -20z m-2039 0 c0 -5 -2 -10 -4
-10 -3 0 -8 5 -11 10 -3 6 -1 10 4 10 6 0 11 -4 11 -10z m2711 -71 c-5 -13
-10 -19 -10 -12 -1 15 10 45 15 40 3 -2 0 -15 -5 -28z"/>
<path d="M2555 4663 c-77 -9 -97 -16 -137 -49 -48 -41 -59 -56 -67 -97 -3 -15
-10 -27 -15 -27 -11 2 -66 -80 -66 -99 0 -9 8 -12 25 -9 17 4 25 1 25 -8 0
-18 4 -17 40 1 35 18 38 10 9 -21 -22 -24 -19 -44 7 -44 9 0 14 7 12 18 -2 11
6 21 25 30 40 17 43 16 57 -18 16 -37 37 -50 87 -51 33 0 35 -2 15 -9 -12 -5
-28 -7 -36 -4 -8 3 -17 0 -21 -6 -6 -9 -10 -9 -17 1 -8 11 -9 11 -5 -1 2 -9
16 -15 35 -15 18 0 32 -3 32 -7 0 -11 68 -10 75 2 3 5 13 6 22 3 11 -4 14 -3
9 5 -5 8 0 12 13 12 11 0 23 5 26 11 4 5 12 8 17 7 6 -2 25 9 42 24 17 15 36
28 43 28 15 0 17 16 3 25 -6 4 -8 10 -5 15 8 13 -66 69 -105 80 -19 6 -81 10
-137 10 -110 0 -113 2 -79 54 22 34 113 76 164 76 58 0 72 3 72 13 0 5 6 4 14
-2 7 -6 25 -12 40 -13 15 -1 32 -10 37 -20 5 -10 19 -18 29 -18 11 0 20 -3 20
-7 0 -14 44 -59 65 -67 16 -6 18 -5 8 5 -7 7 -13 22 -13 32 0 40 -31 86 -63
93 -18 4 -36 7 -40 6 -4 -1 -20 4 -36 12 -15 8 -43 15 -62 15 -40 0 -98 7
-119 13 -8 3 -28 3 -45 1z m78 -215 c10 -5 16 -12 13 -15 -8 -8 -176 -11 -176
-3 0 22 127 36 163 18z m30 -125 c-34 -26 -39 -12 -10 25 8 11 12 11 18 0 6
-8 2 -18 -8 -25z"/>
<path d="M1964 3965 c-4 -8 -17 -15 -30 -15 -20 0 -25 -6 -30 -40 -4 -22 -11
-43 -15 -46 -5 -3 -6 -10 -3 -16 4 -6 13 4 20 21 7 17 17 31 22 31 19 0 22
-32 6 -66 -17 -36 -29 -42 -37 -21 -4 7 -6 8 -6 1 -1 -6 6 -27 14 -47 14 -35
69 -67 115 -67 21 0 52 -15 82 -39 15 -12 22 -11 52 3 19 9 38 21 41 26 3 5
12 7 20 3 8 -3 15 0 15 6 0 6 9 11 20 11 11 0 30 5 43 12 12 6 28 14 36 18 23
10 23 24 1 48 -26 28 -63 28 -101 0 -44 -33 -97 -30 -151 8 -24 17 -53 34 -65
38 -13 4 -23 12 -23 17 0 5 -3 8 -7 8 -19 -3 -20 4 -7 48 8 25 14 52 14 60 0
18 -19 17 -26 -2z"/>
<path d="M1763 3530 c56 -31 151 -125 142 -140 -5 -9 -4 -11 3 -6 7 4 16 -2
21 -16 18 -48 93 -88 167 -88 23 0 54 -4 69 -10 20 -7 35 -6 63 8 35 16 57 52
32 52 -6 0 -9 -4 -6 -9 4 -5 -2 -7 -13 -4 -10 3 -22 0 -25 -6 -11 -17 -106
-14 -106 4 0 10 -9 13 -30 10 -22 -3 -31 1 -35 16 -4 11 -18 30 -31 43 -16 14
-20 23 -12 24 7 1 33 5 56 10 24 5 52 7 63 5 10 -3 26 0 33 6 8 7 41 12 73 11
108 -1 177 9 213 31 8 5 30 17 48 26 33 17 46 41 15 28 -10 -4 -50 -10 -89
-14 -39 -3 -80 -13 -90 -21 -10 -9 -15 -10 -10 -2 4 6 2 12 -3 12 -6 0 -11 -7
-11 -15 0 -8 -4 -15 -10 -15 -5 0 -10 5 -10 11 0 6 -7 9 -15 5 -8 -3 -33 1
-56 10 -42 14 -84 11 -74 -7 10 -15 -5 -10 -26 10 -21 19 -60 35 -56 22 1 -3
-2 -6 -8 -6 -5 0 -9 3 -7 8 3 9 -10 10 -138 12 -58 1 -121 5 -140 9 l-35 7 38
-21z"/>
<path d="M3261 3894 c0 -11 3 -14 6 -6 3 7 2 16 -1 19 -3 4 -6 -2 -5 -13z"/>
<path d="M1056 2949 c-20 -65 -16 -92 7 -38 20 49 28 87 20 92 -5 3 -16 -22
-27 -54z"/>
<path d="M1001 2799 c-13 -39 -14 -46 -2 -33 9 10 24 64 17 64 -2 0 -9 -14
-15 -31z"/>
<path d="M1283 2275 c0 -22 2 -30 4 -17 2 12 2 30 0 40 -3 9 -5 -1 -4 -23z"/>
<path d="M3417 3849 c4 -13 8 -18 11 -10 2 7 -1 18 -6 23 -8 8 -9 4 -5 -13z"/>
<path d="M690 3691 c0 -6 5 -13 10 -16 6 -3 10 1 10 9 0 9 -4 16 -10 16 -5 0
-10 -4 -10 -9z"/>
<path d="M633 3475 c0 -22 2 -30 4 -17 2 12 2 30 0 40 -3 9 -5 -1 -4 -23z"/>
<path d="M3476 3291 c-3 -5 1 -11 9 -15 9 -3 15 0 15 9 0 16 -16 20 -24 6z"/>
<path d="M3540 3088 c-3 -31 -1 -53 3 -49 5 5 7 30 5 57 l-3 49 -5 -57z"/>
<path d="M3565 2970 c3 -5 8 -10 11 -10 2 0 4 5 4 10 0 6 -5 10 -11 10 -5 0
-7 -4 -4 -10z"/>
<path d="M3600 2900 c0 -5 5 -10 11 -10 5 0 7 5 4 10 -3 6 -8 10 -11 10 -2 0
-4 -4 -4 -10z"/>
<path d="M3610 2871 c0 -5 5 -13 10 -16 6 -3 10 -2 10 4 0 5 -4 13 -10 16 -5
3 -10 2 -10 -4z"/>
<path d="M3478 2700 c2 -22 6 -40 8 -40 2 0 4 18 4 40 0 22 -3 40 -8 40 -4 0
-6 -18 -4 -40z"/>
<path d="M3461 2694 c0 -11 3 -14 6 -6 3 7 2 16 -1 19 -3 4 -6 -2 -5 -13z"/>
<path d="M3456 2558 c-5 -21 -5 -50 0 -65 l8 -28 4 33 c2 17 2 47 0 65 l-4 32
-8 -37z"/>
<path d="M3458 2410 c-5 -33 6 -28 17 8 3 12 2 22 -3 22 -5 0 -12 -14 -14 -30z"/>
</g>
</svg>
