<?xml version="1.0" standalone="no"?>
<!DOCTYPE svg PUBLIC "-//W3C//DTD SVG 20010904//EN"
 "http://www.w3.org/TR/2001/REC-SVG-20010904/DTD/svg10.dtd">
<svg version="1.0" xmlns="http://www.w3.org/2000/svg"
 width="300.000000pt" height="224.000000pt" viewBox="0 0 300.000000 224.000000"
 preserveAspectRatio="xMidYMid meet">
<metadata>
Created by potrace 1.10, written by Peter Selinger 2001-2011
</metadata>
<g transform="translate(0.000000,224.000000) scale(0.100000,-0.100000)"
fill="#000000" stroke="none">
<path d="M691 2079 l-1 -167 -57 -10 -58 -11 63 6 c60 5 62 4 62 -19 0 -13 -9
-31 -20 -41 -24 -20 -25 -30 -5 -47 21 -18 64 -16 83 4 14 13 14 20 4 36 -6
11 -12 27 -12 35 0 12 4 14 19 5 36 -19 51 -41 51 -75 0 -19 4 -37 10 -40 6
-4 8 7 5 27 -4 26 -3 29 4 13 8 -17 10 -18 10 -2 1 18 -72 97 -89 97 -6 0 -11
67 -12 178 l-2 177 -3 -167 c-3 -140 -6 -168 -18 -168 -12 0 -15 20 -16 113
-1 61 -4 137 -9 167 -5 40 -8 11 -9 -111z m37 -208 c-3 -23 0 -31 15 -35 32
-8 17 -41 -22 -44 -37 -4 -57 14 -39 36 9 11 13 11 19 0 6 -8 9 3 9 30 0 24 5
42 11 42 7 0 10 -12 7 -29z"/>
<path d="M1972 1947 c-1 -196 -5 -296 -12 -292 -5 3 -10 1 -10 -4 0 -6 5 -11
10 -11 6 0 10 -40 10 -100 l0 -100 -165 0 c-156 0 -165 1 -165 19 0 11 -11 28
-25 39 l-25 20 24 35 c13 19 22 38 19 41 -3 3 2 22 12 43 17 36 17 38 -1 73
-26 48 -83 76 -126 61 -18 -6 -42 -20 -53 -31 l-21 -20 -13 36 c-12 34 -12 37
16 66 41 43 148 92 204 92 94 0 206 -81 268 -194 36 -65 41 -60 7 8 -38 74
-91 128 -158 161 -55 28 -58 31 -31 31 45 0 113 -27 158 -62 65 -51 72 -54 40
-20 -16 18 -58 47 -92 64 -57 28 -68 30 -150 26 -99 -4 -174 -32 -249 -93
l-42 -34 -18 21 c-39 43 -127 60 -194 38 -16 -6 -3 -7 36 -3 100 9 174 -36
205 -125 15 -43 -19 -113 -71 -148 -22 -15 -43 -37 -46 -50 -6 -23 -9 -24
-110 -24 l-104 0 0 -170 0 -170 -25 0 c-21 0 -25 5 -25 30 0 23 -4 30 -20 30
-22 0 -25 12 -10 39 7 14 5 23 -9 35 -12 11 -16 25 -13 41 4 23 1 25 -31 25
-34 0 -35 -1 -39 -42 -3 -24 0 -46 6 -50 6 -4 4 -9 -7 -14 -22 -8 -43 9 -51
41 -8 32 -20 31 -52 0 -14 -14 -30 -23 -35 -19 -14 8 -59 -35 -59 -58 0 -22
10 -23 36 -3 27 20 34 19 34 -9 0 -14 5 -28 10 -31 13 -8 13 7 0 40 -8 20 -7
26 2 23 15 -5 23 -52 13 -76 -5 -15 -9 -14 -24 7 -18 24 -18 24 -13 -27 l5
-52 -42 0 -41 0 0 -96 c0 -65 -3 -93 -11 -89 -6 4 -8 14 -4 22 3 9 -1 26 -10
39 -13 21 -13 23 0 18 8 -4 15 -1 15 5 0 6 -4 11 -9 11 -5 0 -17 3 -26 6 -17
7 -17 -3 0 -68 6 -24 4 -28 -13 -28 -11 0 -23 6 -25 13 -4 9 -6 9 -6 -1 -1 -7
-12 -1 -27 15 l-26 28 26 3 c14 2 26 10 26 17 0 9 -6 12 -15 8 -9 -3 -22 2
-29 12 -11 15 -13 11 -13 -35 -1 -34 2 -48 8 -39 7 11 9 11 9 -2 0 -9 -7 -19
-15 -23 -19 -7 -20 -85 -2 -110 11 -16 24 -18 70 -14 32 3 57 1 57 -4 0 -4
-34 -8 -75 -8 l-75 0 0 630 0 630 -272 -2 c-222 -2 -239 -3 -90 -5 174 -3 182
-4 182 -23 0 -19 -7 -20 -119 -20 -143 0 -241 -9 -241 -23 0 -6 37 -8 98 -5
53 2 87 2 74 0 -12 -2 -22 -10 -22 -17 0 -11 -20 -15 -77 -18 l-78 -3 78 -2
77 -2 0 -80 c0 -64 -3 -80 -15 -80 -12 0 -15 15 -15 75 l0 75 -60 0 c-33 0
-60 -4 -60 -10 0 -5 25 -10 55 -10 l55 0 0 -65 0 -65 -55 0 c-30 0 -55 -4 -55
-10 0 -6 68 -10 185 -10 154 0 185 2 185 14 0 22 -18 29 -22 9 -2 -10 -5 16
-6 57 -1 51 3 84 13 104 8 15 15 38 16 50 0 11 4 30 9 41 5 11 9 -356 9 -852
1 -610 -2 -873 -10 -873 -7 0 -10 212 -8 703 1 386 1 709 0 717 -2 22 -371 17
-371 -5 0 -12 22 -15 120 -15 100 0 120 -2 120 -15 0 -12 -17 -15 -89 -15
-116 0 -151 -7 -151 -31 0 -17 9 -19 68 -21 l67 -2 -70 -6 c-50 -5 -18 -7 113
-8 110 -1 182 -6 182 -12 0 -6 -72 -11 -183 -13 l-182 -2 183 -3 182 -2 0 -23
c0 -13 -5 -28 -12 -35 -16 -16 -48 -15 -48 2 0 11 -22 15 -98 18 -53 2 -99 1
-102 -3 -3 -3 -12 -9 -20 -12 -8 -4 1 -5 20 -4 26 1 40 -4 53 -20 17 -21 17
-26 1 -85 -18 -72 -30 -92 -20 -34 9 49 -1 56 -79 55 -63 -1 -60 -4 16 -14
l46 -6 2 -49 c1 -39 -2 -50 -14 -50 -9 0 -15 9 -15 23 0 53 -9 63 -51 59 -48
-5 -52 -22 -4 -22 47 0 45 -20 -2 -21 l-38 -2 39 -6 c55 -8 58 -29 4 -34 -24
-2 39 -4 140 -5 111 -1 182 -6 182 -12 0 -6 -72 -11 -182 -13 l-183 -2 183 -3
c243 -3 243 -21 0 -25 l-183 -2 183 -3 182 -2 0 -85 0 -85 -32 7 c-18 4 -74 7
-124 8 l-92 0 -6 44 c-7 51 -1 65 13 30 7 -17 10 -19 10 -7 1 24 -35 45 -89
51 -35 4 -40 3 -23 -5 24 -12 33 -35 33 -95 0 -38 -3 -42 -28 -46 l-27 -4 28
-2 c37 -2 40 -41 2 -41 -14 0 -25 -5 -25 -12 0 -8 48 -10 180 -5 99 3 180 2
180 -2 0 -8 -191 -21 -302 -21 -57 0 -78 -13 -38 -23 23 -6 17 -37 -6 -37 -11
0 -14 -18 -12 -82 l2 -83 3 78 c5 107 23 98 23 -12 0 -77 -2 -90 -18 -94 -9
-3 65 -5 166 -6 114 -1 182 -5 182 -11 0 -6 -67 -10 -180 -10 -172 0 -180 -1
-180 -20 0 -13 5 -18 15 -14 13 5 15 -11 15 -109 0 -102 -2 -116 -17 -120 -10
-3 64 -5 165 -6 114 -1 182 -5 182 -11 0 -6 -67 -10 -180 -10 -113 0 -180 -4
-180 -10 0 -6 30 -11 68 -12 l67 -2 -70 -6 c-48 -4 -13 -7 110 -7 101 0 165 3
145 7 l-35 7 38 2 c36 1 37 0 37 -36 l0 -38 -180 3 c-122 2 -180 0 -180 -7 0
-7 52 -11 153 -12 83 0 181 -2 217 -4 36 -2 57 -2 48 1 -17 5 -18 56 -18 880
l0 875 63 -3 62 -3 3 -622 2 -623 -45 0 -44 0 -3 -278 -3 -277 158 2 c102 2
156 -1 152 -7 -11 -18 9 -10 75 28 48 27 65 42 62 54 -3 17 9 18 149 18 127 0
155 -3 170 -16 36 -32 76 11 44 46 -10 11 -16 22 -14 24 18 15 239 49 239 36
0 -3 -7 -14 -15 -24 -8 -11 -15 -41 -15 -66 0 -25 -5 -51 -11 -57 -14 -14 -3
-49 18 -57 24 -10 54 24 47 51 -3 12 -13 24 -23 26 -15 4 -15 5 0 6 11 1 24
20 35 52 25 68 32 73 101 62 43 -6 57 -13 54 -23 -2 -8 -5 -31 -8 -50 -4 -31
-2 -36 24 -48 15 -7 42 -20 58 -30 24 -14 55 -17 155 -17 69 0 145 4 169 8 39
7 43 6 39 -10 -5 -17 11 -18 269 -18 l273 0 0 54 0 53 33 -5 c17 -3 41 -2 52
3 15 6 6 9 -32 9 -40 1 -53 5 -53 16 0 12 13 15 60 15 57 0 60 -1 60 -24 0
-15 -7 -26 -20 -29 -13 -3 -18 -11 -14 -20 5 -13 28 -16 120 -19 64 -2 114 1
114 6 0 5 10 1 23 -10 22 -19 22 -19 5 2 -15 17 -18 41 -18 147 0 109 2 127
16 127 9 0 14 6 11 13 -2 6 -9 11 -16 10 -8 -2 -11 229 -11 834 0 460 -2 839
-5 841 -3 3 -5 -351 -5 -786 0 -697 -2 -792 -15 -792 -13 0 -15 96 -17 793 -1
435 -4 743 -5 682 -7 -265 -7 -1553 0 -1548 4 2 7 -1 7 -8 0 -8 4 -8 15 1 12
10 15 10 15 -4 0 -9 -6 -16 -14 -16 -8 0 -17 -6 -19 -12 -4 -9 -6 -9 -6 1 -1
11 -5 10 -17 -5 -8 -10 -13 -13 -9 -6 7 14 7 1693 0 1701 -3 2 -5 -129 -5
-292 l0 -297 -61 0 -62 0 7 103 c6 97 5 104 -15 126 -19 20 -28 22 -65 17 -24
-3 -55 -8 -69 -12 l-25 -6 -3 183 -2 184 -3 -186 -2 -185 -74 -13 c-40 -7 -79
-16 -85 -20 -6 -4 -14 -39 -17 -77 -3 -38 -8 -80 -10 -94 -5 -21 -7 -23 -17
-10 -14 18 -24 18 -52 4 -11 -5 -80 -11 -152 -13 l-133 -3 0 54 c0 41 5 58 20
71 11 9 20 24 20 32 0 8 -9 20 -20 27 -19 12 -20 24 -20 210 0 125 -4 198 -10
198 -6 0 -9 -51 -7 -135 1 -80 -2 -135 -7 -135 -6 0 -5 -5 2 -12 18 -18 16
-108 -2 -108 -8 0 -17 -4 -20 -9 -4 -5 4 -7 16 -3 16 4 19 2 12 -9 -5 -8 -7
-23 -5 -33 3 -18 2 -18 -14 -3 -9 10 -21 17 -26 17 -5 0 -10 96 -12 218 -2
198 -3 191 -5 -81z m-1612 16 c0 -16 -18 -35 -26 -30 -5 3 -8 -37 -7 -89 2
-61 -1 -94 -8 -94 -6 0 -10 12 -9 28 1 15 2 52 1 82 l-1 55 -55 -2 c-54 -1
-55 -1 -55 28 l0 29 80 0 c44 0 80 -3 80 -7z m-172 -111 c3 -78 1 -92 -12 -92
-13 0 -16 16 -16 96 0 72 3 95 13 92 8 -3 13 -34 15 -96z m40 -25 c2 -61 0
-74 -13 -74 -12 0 -15 14 -15 67 0 62 4 80 20 80 3 0 7 -33 8 -73z m42 38 c0
-19 -5 -35 -11 -35 -8 0 -8 -4 1 -14 13 -17 10 -57 -5 -56 -5 0 -11 31 -12 70
-2 56 0 70 12 70 10 0 15 -11 15 -35z m30 -11 c0 -28 -4 -44 -11 -42 -6 2 -10
7 -10 11 1 4 1 23 1 42 0 19 5 35 10 35 6 0 10 -21 10 -46z m2458 -93 l3 -111
-81 0 -80 0 0 35 c0 19 2 35 4 35 2 0 11 3 20 6 9 3 16 1 16 -4 0 -6 -8 -13
-17 -16 -14 -4 -14 -4 2 -3 16 2 20 10 20 37 0 27 -5 36 -20 38 -20 4 -20 4 0
-12 17 -13 18 -17 5 -26 -27 -18 -30 -11 -30 59 l0 69 58 9 c95 15 97 14 100
-116z m-168 59 c0 -29 -5 -42 -20 -50 -11 -6 -19 -18 -19 -28 1 -15 2 -15 6 0
2 9 11 19 19 22 11 4 14 -2 12 -24 -1 -16 -5 -27 -8 -25 -3 1 -34 -1 -70 -5
l-65 -7 73 -2 c70 -1 72 -2 72 -26 0 -24 -2 -25 -75 -25 l-75 0 0 53 c0 28 -3
68 -6 88 l-6 37 63 15 c99 23 99 23 99 -23z m-523 -24 c-4 -9 -11 -16 -17 -16
-11 0 -14 33 -3 44 11 10 26 -11 20 -28z m-57 -16 c6 -11 15 -18 19 -16 4 3 9
-22 10 -54 l2 -60 -30 0 c-29 0 -31 2 -31 36 0 23 7 42 18 50 16 13 16 14 0 8
-15 -5 -18 0 -18 25 0 35 14 41 30 11z m-424 -32 c3 -4 -8 -9 -24 -13 -37 -8
-55 -28 -78 -83 -12 -31 -32 -55 -70 -82 -29 -22 -56 -50 -60 -62 -13 -41 -29
-48 -107 -48 l-75 0 1 -110 c0 -81 4 -111 14 -114 24 -9 14 -26 -16 -26 -37 0
-41 14 -41 157 l0 112 103 3 102 3 -2 30 c-3 25 4 35 38 58 29 20 48 45 69 91
15 35 37 70 48 78 20 13 86 17 98 6z m841 -70 c-2 -18 -4 -6 -4 27 0 33 2 48
4 33 2 -15 2 -42 0 -60z m-812 47 c-5 -2 -22 -6 -36 -9 -23 -5 -76 -72 -92
-117 -3 -9 -24 -30 -48 -45 -23 -16 -49 -40 -57 -54 -13 -20 -10 -19 15 6 16
18 44 39 61 48 27 14 32 14 32 2 0 -8 3 -17 8 -20 4 -2 6 12 4 32 -1 21 3 48
11 62 11 21 20 25 53 23 25 0 30 1 14 5 l-25 5 25 8 c20 7 19 8 -9 4 -34 -5
-34 -5 -16 15 22 25 85 29 65 5 -7 -8 -9 -15 -6 -15 4 0 2 -9 -4 -20 -6 -11
-20 -20 -31 -20 -31 0 -43 -39 -26 -87 13 -38 13 -40 -5 -35 -26 6 -26 106 0
121 9 6 12 11 7 11 -23 0 -35 -26 -35 -77 0 -35 -4 -53 -12 -53 -7 0 -29 -18
-49 -40 -21 -23 -46 -40 -58 -40 -18 0 -13 8 29 50 28 28 47 50 42 50 -4 0
-26 -18 -47 -40 -44 -45 -51 -48 -60 -20 -9 29 9 55 58 84 34 19 49 37 66 75
25 59 62 91 105 90 17 0 27 -2 21 -4z m-1255 -70 c0 -52 -1 -55 -25 -55 -23 0
-25 4 -25 45 0 57 19 59 22 3 l1 -43 6 45 6 45 -85 6 -85 5 93 2 92 2 0 -55z
m-60 -10 c0 -45 0 -45 -35 -45 -19 0 -35 5 -35 11 0 5 5 7 10 4 6 -4 10 10 10
34 0 37 2 41 25 41 23 0 25 -4 25 -45z m2105 0 c6 0 11 -10 13 -22 4 -28 -18
-31 -25 -3 -3 11 -9 20 -14 20 -5 0 -9 5 -9 11 0 6 5 7 13 2 6 -4 17 -8 22 -8z
m-2304 -5 c13 -7 19 -7 19 0 0 6 24 10 56 10 40 0 55 -3 52 -12 -3 -9 -33 -13
-99 -15 -52 0 -86 1 -76 4 9 2 17 9 17 14 0 12 7 11 31 -1z m1939 -254 l0
-254 -47 -11 c-47 -10 -47 -10 19 -5 43 3 69 0 73 -7 5 -8 -45 -9 -181 -6
-104 3 -205 7 -225 9 -79 8 -101 56 -126 273 l-6 60 -7 -40 c-8 -43 4 -168 19
-200 11 -21 41 -123 41 -137 0 -4 -13 -8 -28 -8 -21 0 -32 7 -41 26 -6 15 -14
24 -17 21 -3 -3 -1 -14 5 -25 8 -15 7 -21 -3 -25 -8 -3 -16 -16 -18 -29 -2
-13 -7 42 -10 122 -4 80 -12 158 -19 172 -12 28 -53 48 -95 48 -24 0 -30 14
-18 44 4 11 19 16 48 16 43 0 102 29 112 55 4 10 20 15 45 15 51 0 62 -19 84
-141 9 -53 22 -107 30 -121 11 -22 10 -28 -4 -44 -15 -17 -15 -17 1 -5 10 7
25 11 33 7 17 -6 20 -47 4 -63 -7 -7 -4 -12 10 -16 12 -3 21 -1 21 3 0 5 15 4
32 -1 18 -5 56 -9 84 -9 l51 0 6 44 c4 25 9 81 13 125 l7 81 -136 0 c-80 0
-138 4 -142 10 -4 6 47 10 144 10 98 0 151 -4 151 -10 0 -18 -20 -203 -25
-232 -2 -16 -1 -28 4 -28 7 0 31 191 31 253 l0 27 -156 0 c-138 0 -155 2 -150
16 3 9 6 18 6 20 0 2 71 3 158 2 l157 -2 -152 -3 c-205 -5 -203 -23 2 -23
l155 0 0 120 0 120 30 0 30 0 0 -254z m150 222 c-27 -45 -26 -93 2 -112 28
-20 45 -20 81 -2 l27 15 0 -194 0 -194 48 5 c26 4 71 2 100 -4 42 -7 52 -7 52
4 0 11 -21 14 -95 14 l-95 0 0 191 c0 108 4 198 10 209 6 10 11 30 12 44 2 22
32 46 43 34 2 -1 51 -61 109 -133 l106 -130 -108 -5 -107 -5 -3 -97 c-2 -83 0
-98 13 -98 12 0 15 16 15 95 l0 95 105 0 c74 0 105 -4 105 -12 0 -18 31 -48
50 -48 15 0 17 -12 16 -95 -1 -75 -4 -94 -14 -90 -8 3 -22 5 -33 5 -18 0 -20
6 -17 72 3 67 5 73 28 79 23 6 22 7 -7 8 -33 1 -33 1 -33 -49 l0 -50 -97 -2
c-56 -1 -75 -3 -43 -5 78 -5 98 -11 103 -31 4 -13 5 -11 6 6 1 31 31 29 31 -3
l0 -26 -151 3 c-131 3 -152 5 -160 21 -6 9 -19 17 -30 17 -20 0 -20 0 1 35 19
30 19 35 5 35 -9 0 -14 -4 -11 -9 3 -4 -1 -17 -9 -27 -8 -10 -15 -14 -15 -8 0
5 5 15 11 21 7 7 3 18 -15 38 -25 26 -26 27 -26 6 0 -11 -6 -21 -14 -21 -9 0
-2 -13 17 -32 l32 -33 -55 -6 c-30 -4 -72 -7 -92 -8 l-38 -1 0 255 0 255 80 0
80 0 -20 -32z m128 -9 c4 -54 -38 -101 -86 -97 -41 4 -58 24 -48 62 12 47 51
78 94 74 35 -3 37 -5 40 -39z m572 -469 l0 -510 -25 -62 c-35 -86 -34 -88 29
-88 30 0 58 -4 61 -10 4 -6 -33 -10 -104 -10 l-111 0 0 -24 c0 -22 -5 -25 -47
-29 l-48 -3 53 -2 c69 -3 67 -22 -3 -22 l-55 0 0 39 0 39 53 6 c134 14 135 14
142 57 4 24 3 45 -4 53 -6 7 -16 37 -22 67 -6 30 -15 58 -20 64 -5 5 -9 37 -9
72 l0 63 -70 0 c-63 0 -70 2 -70 20 0 17 7 20 48 20 26 0 57 3 70 6 13 4 22 2
22 -5 0 -7 -25 -12 -67 -13 -65 -1 -63 -1 27 -8 52 -4 104 -10 115 -14 11 -3
7 0 -10 8 -16 8 -36 15 -42 16 -12 0 -18 15 -26 70 -4 21 -5 20 -6 -7 l-1 -31
-47 14 c-27 8 -55 13 -63 11 -8 -2 4 -7 27 -11 61 -11 63 -26 4 -26 l-51 0 0
73 c0 62 3 77 21 93 16 15 21 16 19 4 -7 -47 0 -70 23 -71 15 -1 10 -4 -13 -9
-24 -5 -3 -8 70 -9 l105 -1 -3 188 -3 187 -67 33 c-85 40 -112 42 -112 6 0
-21 -4 -25 -20 -21 -10 3 -21 0 -24 -7 -3 -6 -15 1 -28 18 -13 16 -49 60 -80
97 -32 37 -58 71 -58 74 0 3 -9 15 -20 27 -11 12 -20 34 -20 50 l0 28 230 0
230 0 0 -510z m-1286 434 c-10 -19 -22 -34 -25 -34 -10 0 -19 28 -19 60 0 22
5 29 23 32 33 5 42 -19 21 -58z m-1314 -64 c0 -5 -16 -10 -35 -10 -19 0 -35
-5 -35 -11 0 -13 -40 -2 -60 17 -12 12 -4 14 58 14 41 0 72 -4 72 -10z m933
-7 l-103 -4 0 -144 0 -145 39 0 c22 0 43 -4 46 -10 4 -6 -13 -10 -44 -10 l-51
0 0 160 0 160 108 -2 107 -2 -102 -3z m-864 -80 l0 -78 -16 38 c-8 20 -21 37
-29 37 -9 0 -14 12 -14 35 0 26 4 35 16 35 13 0 15 -7 11 -30 -4 -16 -3 -30 2
-30 5 0 12 16 15 35 11 56 16 41 15 -42z m-102 40 c-3 -16 -9 -56 -13 -90 -5
-52 -10 -63 -25 -63 -25 0 -24 11 7 158 2 12 12 22 20 22 13 0 15 -7 11 -27z
m33 -63 c0 -70 -3 -90 -14 -90 -7 0 -16 9 -19 20 -3 11 -1 18 4 14 5 -3 9 28
9 70 0 44 4 76 10 76 6 0 10 -37 10 -90z m-81 58 c0 -7 -6 -42 -13 -78 -10
-54 -16 -66 -33 -68 l-21 -3 20 80 c13 52 25 81 34 81 8 0 14 -6 13 -12z
m1107 -14 c-3 -9 -9 -27 -12 -40 -4 -15 -13 -24 -25 -24 -11 0 -35 -7 -54 -14
-32 -14 -35 -13 -35 2 0 9 -3 34 -6 55 l-7 37 73 0 c62 0 71 -2 66 -16z m29
-21 c-7 -21 -18 -39 -24 -41 -14 -5 -14 2 3 43 20 47 37 45 21 -2z m-1004 -68
c9 -25 13 -45 9 -45 -5 0 -11 14 -15 30 -4 17 -11 30 -16 30 -5 0 -4 -11 1
-26 13 -33 13 -34 -5 -34 -11 0 -15 12 -15 50 0 62 18 59 41 -5z m2369 -155
c0 -127 -4 -200 -10 -200 -6 0 -10 66 -10 178 0 159 5 222 16 222 2 0 4 -90 4
-200z m101 158 c32 -18 35 -23 34 -61 -1 -26 -6 -41 -13 -39 -7 1 -12 -2 -12
-8 0 -5 8 -10 18 -11 10 0 12 -3 5 -6 -7 -2 -13 -9 -13 -14 0 -6 5 -7 10 -4 6
3 10 1 10 -4 0 -6 -6 -11 -12 -11 -9 0 -8 -4 2 -10 13 -9 13 -10 0 -10 -13 0
-13 -1 0 -10 13 -9 13 -10 0 -10 -13 0 -13 -1 0 -10 13 -9 13 -10 0 -10 -13 0
-13 -1 0 -10 13 -9 13 -10 0 -10 -11 0 -11 -3 -3 -8 23 -14 9 -47 -22 -53
l-30 -6 33 -2 c29 -1 32 -4 32 -31 0 -29 -2 -30 -42 -30 -90 0 -85 -13 -83
198 1 103 3 191 4 195 1 11 36 0 82 -25z m-1827 3 c3 -5 -5 -16 -19 -25 -24
-16 -25 -16 -25 9 0 18 5 25 19 25 11 0 22 -4 25 -9z m428 -1 c50 -14 57 -41
65 -262 l6 -177 -39 -6 c-64 -11 -63 -15 1 -11 49 3 69 -1 105 -20 l45 -23
-127 -1 c-71 0 -131 -1 -135 -2 -5 -2 -9 12 -11 30 l-3 32 53 0 c88 1 93 9 90
153 -2 161 -11 234 -30 253 -12 13 -34 15 -111 12 -53 -2 -105 -8 -116 -13
-18 -8 -19 -7 -6 8 27 34 138 47 213 27z m503 -77 c-4 -43 -8 -84 -11 -91 -6
-19 -110 -4 -166 24 -42 21 -49 30 -63 76 -8 28 -15 55 -15 60 0 4 59 8 130 8
l131 0 -6 -77z m765 36 c0 -12 -7 -19 -20 -19 -22 0 -29 35 -7 43 18 6 27 -2
27 -24z m-1254 -2 c13 -13 22 -113 23 -245 l1 -123 -77 3 -78 3 -7 45 c-25
164 -40 301 -34 315 5 15 18 17 85 14 44 -2 83 -8 87 -12z m-570 -4 c-3 -4 8
-22 26 -40 17 -18 29 -33 26 -33 -19 0 -38 14 -38 27 0 13 -3 13 -15 3 -8 -7
-22 -9 -31 -6 -15 6 -14 9 6 31 13 14 26 25 28 25 3 0 2 -3 -2 -7z m142 -11
c2 -7 -7 -12 -23 -12 -24 0 -26 2 -15 15 14 17 31 16 38 -3z m242 -24 c0 -24
7 -83 16 -132 12 -72 13 -91 2 -100 -7 -6 -10 -7 -6 -3 3 5 -7 56 -23 115 -32
118 -35 148 -16 155 24 10 27 6 27 -35z m-240 -17 c0 -13 -8 -21 -22 -23 -19
-2 -24 -10 -26 -45 -3 -38 -6 -43 -28 -43 -17 0 -24 -5 -24 -20 0 -15 -7 -20
-25 -20 -33 0 -33 32 0 74 14 17 29 36 33 41 4 6 11 18 14 27 6 15 25 22 66
27 6 0 12 -8 12 -18z m-119 -21 c5 0 2 -14 -7 -31 -12 -25 -18 -29 -25 -18 -5
8 -9 25 -9 38 0 17 4 22 16 17 9 -3 20 -6 25 -6z m159 -35 c0 -22 -4 -25 -40
-25 -32 0 -40 4 -40 18 0 26 9 32 47 32 29 0 33 -3 33 -25z m735 -29 c14 -14
27 -21 30 -16 5 9 95 9 95 0 0 -3 -4 -11 -9 -18 -7 -11 -22 -12 -80 -3 -40 6
-77 9 -83 5 -7 -4 -7 0 0 12 5 11 7 25 5 32 -8 20 16 14 42 -12z m-1660 -156
c4 -14 2 -20 -8 -20 -16 0 -43 162 -30 183 4 7 13 -21 20 -65 6 -43 14 -87 18
-98z m1099 145 c4 -12 -4 -15 -43 -15 -34 0 -51 5 -55 15 -4 12 4 15 43 15 34
0 51 -5 55 -15z m-164 -5 c0 -5 -20 -10 -45 -10 -25 0 -45 5 -45 10 0 6 20 10
45 10 25 0 45 -4 45 -10z m58 -7 c7 -11 27 -18 66 -21 77 -6 71 -22 -9 -22
-58 0 -65 2 -65 20 0 13 -7 20 -20 20 -11 0 -20 5 -20 10 0 16 38 11 48 -7z
m-268 -18 c0 -18 -5 -25 -20 -25 -15 0 -20 7 -20 25 0 18 5 25 20 25 15 0 20
-7 20 -25z m250 -10 c0 -12 -17 -15 -90 -15 -73 0 -90 3 -90 15 0 12 17 15 90
15 73 0 90 -3 90 -15z m1190 5 c0 -6 -37 -10 -92 -9 -65 1 -84 4 -63 9 45 12
155 12 155 0z m386 -43 c4 -4 2 -13 -5 -20 -11 -9 -14 -9 -18 1 -4 9 -117 12
-519 12 -372 0 -514 3 -514 11 0 13 1043 9 1056 -4z m-1668 -4 l-248 -3 0
-145 0 -145 -25 0 c-24 0 -25 3 -23 53 l1 52 6 -50 c6 -46 7 -43 14 44 4 52 7
118 7 148 l0 53 258 -2 257 -3 -247 -2z m-787 -20 c1 -17 2 -17 6 0 3 11 11
16 26 13 12 -3 43 -8 70 -11 87 -11 51 -26 -62 -24 -60 1 -114 -2 -119 -5 -5
-3 -12 3 -15 14 -5 21 7 27 61 29 24 1 32 -3 33 -16z m1024 -10 c6 -18 -385
-17 -432 0 -27 10 9 12 197 12 175 0 231 -3 235 -12z m805 2 c0 -12 -19 -15
-109 -15 -63 0 -112 4 -116 10 -4 6 -49 9 -108 8 l-102 -2 98 -3 c59 -2 97 -8
97 -14 0 -11 -180 -5 -250 8 -35 7 -35 7 15 13 28 4 146 8 263 8 182 2 212 0
212 -13z m60 0 c0 -9 -9 -15 -25 -15 -16 0 -25 6 -25 15 0 9 9 15 25 15 16 0
25 -6 25 -15z m480 0 c0 -13 -32 -15 -230 -15 -210 0 -243 3 -223 23 3 4 107
7 230 7 192 0 223 -2 223 -15z m50 -250 c0 -158 -4 -256 -10 -260 -7 -4 -10
85 -10 260 0 175 3 264 10 260 6 -4 10 -102 10 -260z m-1804 229 c24 -6 24 -7
24 -140 l0 -133 -37 13 -38 13 -3 133 c-2 119 -1 132 14 126 9 -3 27 -9 40
-12z m-616 -15 c0 -5 -16 -9 -35 -9 -46 0 -46 14 0 17 19 1 35 -3 35 -8z m150
1 c0 -6 -30 -10 -70 -10 -40 0 -70 4 -70 10 0 6 30 10 70 10 40 0 70 -4 70
-10z m886 -18 c1 -18 1 -19 -3 -2 -4 19 -12 20 -189 20 l-184 0 -3 -367 -2
-368 -3 373 -2 372 193 -2 c192 -3 192 -3 193 -26z m442 12 c82 -7 82 -7 82
-35 l0 -28 -57 26 c-36 17 -81 28 -125 31 -38 3 -71 9 -75 15 -4 6 11 8 43 4
27 -3 86 -9 132 -13z m414 9 c-10 -4 -12 -78 -12 -346 l1 -342 -38 3 c-21 2
-46 12 -56 21 -16 16 -17 21 -6 39 10 17 10 23 0 36 -8 9 -21 16 -31 16 -24 0
-27 19 -35 190 -8 183 -15 209 -65 254 -37 33 -40 40 -40 86 l0 50 148 -1 c81
0 141 -3 134 -6z m478 -63 l0 -70 -79 0 c-54 0 -81 4 -84 13 -3 7 -6 5 -6 -5
-1 -16 9 -18 84 -18 78 0 85 -2 85 -20 0 -13 -7 -20 -20 -20 -25 0 -26 17 -2
23 9 3 -18 5 -60 6 -42 0 -79 -3 -82 -7 -2 -4 12 -6 32 -5 32 3 34 2 15 -7
-13 -5 -23 -16 -23 -25 0 -9 -9 -15 -25 -15 -22 0 -25 -4 -25 -37 0 -61 -10
-83 -35 -83 -34 0 -55 -49 -55 -127 l0 -64 -32 6 c-18 3 -55 1 -83 -4 -48 -8
-46 -9 38 -10 70 -1 87 -4 87 -16 0 -12 -17 -15 -90 -15 l-90 0 0 255 0 255
217 0 c119 0 213 3 209 7 -4 4 -101 6 -216 4 -116 -1 -210 1 -211 6 0 4 -2 16
-4 26 -3 16 13 17 226 17 l229 0 0 -70z m-6 -438 c-30 -26 -27 -39 5 -22 21
10 21 9 19 -77 l-2 -88 -6 80 c-3 44 -7 74 -8 68 -1 -9 -27 -13 -87 -13 l-85
0 0 85 0 85 84 0 85 0 4 -52 c2 -29 5 60 7 197 l5 250 3 -245 3 -245 -27 -23z
m-1276 419 c7 -4 12 -16 11 -27 -4 -44 2 -85 11 -79 6 3 10 1 10 -4 0 -18 -77
-13 -84 5 -10 25 -7 82 4 89 6 3 10 27 11 53 l1 47 12 -38 c6 -21 17 -42 24
-46z m512 39 c0 -29 -4 -40 -15 -40 -10 0 -15 10 -15 34 0 29 6 38 28 45 1 1
2 -17 2 -39z m-580 -17 c0 -23 -4 -45 -10 -48 -13 -8 -13 -91 0 -115 5 -10 35
-33 66 -51 46 -26 71 -33 131 -37 l73 -5 0 -58 c0 -32 -4 -61 -10 -64 -5 -3
-10 -28 -10 -54 l0 -49 -72 -10 c-77 -12 -163 -35 -188 -52 -12 -7 -13 -13 -3
-29 10 -15 9 -22 -6 -35 -25 -23 -181 -23 -181 -1 0 8 -7 15 -16 15 -13 0 -15
6 -10 32 4 18 13 66 20 107 13 70 13 74 -6 79 -15 3 -16 7 -7 13 8 4 16 3 20
-3 4 -6 15 -8 24 -4 14 5 15 9 5 21 -16 20 -30 19 -60 -5 -32 -25 -76 -26 -82
-2 -7 24 1 42 19 42 10 0 12 -6 8 -19 -3 -11 -1 -22 5 -26 6 -4 10 5 10 21 0
22 2 25 15 14 8 -7 15 -8 15 -3 0 17 -45 32 -64 21 -10 -5 -21 -7 -24 -3 -4 4
-9 84 -10 178 l-4 172 176 0 176 0 0 -42z m356 32 c38 -4 95 -18 127 -32 55
-25 57 -27 57 -64 l0 -39 -75 0 c-64 0 -84 5 -140 32 l-65 32 0 44 c0 33 3 43
13 39 8 -3 45 -8 83 -12z m-1426 -45 c0 -5 -20 -10 -45 -10 l-44 0 -4 -112 -3
-113 -2 123 -2 122 50 0 c28 0 50 -4 50 -10z m30 -100 c0 -60 -4 -100 -10
-100 -6 0 -10 40 -10 100 0 60 4 100 10 100 6 0 10 -40 10 -100z m170 80 c0
-18 -7 -20 -80 -20 -73 0 -80 2 -80 20 0 18 7 20 80 20 73 0 80 -2 80 -20z
m-250 -105 c0 -87 -3 -105 -15 -105 -12 0 -15 18 -15 105 0 87 3 105 15 105
12 0 15 -18 15 -105z m39 20 c2 -71 -1 -85 -14 -85 -12 0 -15 15 -15 85 0 65
3 85 14 85 10 0 14 -20 15 -85z m1653 44 c-10 -106 -40 -135 -155 -144 -90 -7
-308 9 -365 28 -42 14 -62 46 -61 97 1 34 2 34 8 -8 12 -68 22 -74 168 -83 70
-4 172 -11 225 -15 l97 -7 30 31 c27 27 31 37 31 87 0 41 3 56 13 52 7 -2 11
-17 9 -38z m-1110 -14 c-5 -56 -17 -66 -71 -63 -44 3 -45 4 -53 43 -13 61 -7
66 64 63 l63 -3 -3 -40z m1195 -40 c11 -21 18 -77 24 -185 4 -85 6 -156 5
-158 -2 -1 -16 39 -31 90 -18 58 -29 117 -30 160 -1 55 -5 72 -23 91 -17 18
-21 31 -16 51 l6 27 25 -23 c14 -13 32 -36 40 -53z m-1527 20 c0 -34 -1 -35
-40 -35 -22 0 -40 -4 -40 -9 0 -5 18 -7 40 -4 33 5 40 3 40 -11 0 -14 -6 -16
-37 -10 -21 3 -42 7 -48 8 -5 0 -11 -9 -13 -21 -3 -18 -10 -23 -33 -23 l-29 0
0 70 0 70 80 0 80 0 0 -35z m-313 -102 c-2 -21 -4 -4 -4 37 0 41 2 58 4 38 2
-21 2 -55 0 -75z m1723 88 c0 -34 -10 -37 -98 -29 -48 4 -142 8 -209 8 -68 1
-123 5 -123 10 0 13 48 17 248 18 105 1 182 -2 182 -7z m768 -11 l42 0 0 -90
0 -90 -95 0 c-88 0 -95 1 -95 20 0 18 7 20 68 22 l67 2 -68 3 c-57 3 -68 7
-63 19 3 9 6 29 6 45 l0 29 74 0 c41 0 78 5 81 10 4 6 -15 10 -49 10 -45 0
-56 3 -56 16 0 12 6 15 23 10 12 -3 41 -6 65 -6z m162 -10 l-25 -8 28 -1 c26
-1 27 -3 27 -50 l0 -50 -37 -4 -38 -4 43 -1 44 -2 -4 65 c-3 57 -1 65 15 65
15 0 17 -10 17 -72 l0 -73 -65 0 -65 0 0 72 0 73 43 -1 c36 -1 38 -2 17 -9z
m-961 -26 c2 -2 1 -7 -3 -11 -9 -9 -50 -9 -246 1 -251 13 -245 25 10 19 129
-3 237 -7 239 -9z m85 -9 c9 -24 -11 -190 -34 -280 -11 -44 -20 -88 -20 -97 0
-24 -17 -23 -29 1 -7 12 -7 30 -1 52 5 18 9 90 8 159 -2 120 -1 126 22 152 28
31 45 35 54 13z m-1359 -533 c-3 -3 -6 -3 -7 -1 -2 2 -1 123 2 269 l5 265 3
-264 c1 -145 0 -266 -3 -269z m242 125 c-1 -73 -3 -10 -3 138 0 149 2 208 3
132 2 -76 2 -198 0 -270z m43 138 c0 -229 -2 -265 -15 -265 -13 0 -15 36 -15
265 0 229 2 265 15 265 13 0 15 -36 15 -265z m-390 245 c0 -5 -20 -10 -45 -10
-25 0 -45 5 -45 10 0 6 20 10 45 10 25 0 45 -4 45 -10z m283 3 c-29 -2 -78 -2
-110 0 -32 2 -8 3 52 3 61 0 87 -1 58 -3z m147 -233 c0 -153 -4 -240 -10 -240
-6 0 -10 87 -10 240 0 153 4 240 10 240 6 0 10 -87 10 -240z m44 224 c14 -5
16 -34 16 -213 l0 -208 -25 -11 -25 -12 0 225 c0 130 4 225 9 225 5 0 16 -3
25 -6z m-689 -14 c-3 -5 -1 -10 4 -10 6 0 11 4 11 10 0 5 7 7 15 4 27 -11 16
-24 -20 -24 -24 0 -35 5 -35 15 0 8 7 15 16 15 8 0 12 -4 9 -10z m545 -9 c0
-18 -9 -20 -87 -23 -93 -4 -109 1 -100 26 5 13 24 16 97 16 82 0 90 -2 90 -19z
m800 -1 l75 -7 -85 -1 c-47 0 -103 6 -125 13 l-40 14 50 -6 c28 -2 84 -8 125
-13z m-1130 0 c0 -5 -22 -10 -50 -10 -27 0 -50 5 -50 10 0 6 23 10 50 10 28 0
50 -4 50 -10z m1371 -92 c2 -207 5 -201 -72 -177 -34 11 -72 19 -85 19 -22 0
-24 4 -24 49 0 28 -4 53 -10 56 -5 3 -10 32 -10 64 l0 58 58 11 c31 7 66 13
77 16 67 13 65 16 66 -96z m-214 -20 c-2 -18 -4 -4 -4 32 0 36 2 50 4 33 2
-18 2 -48 0 -65z m348 -23 c18 -63 105 -234 130 -255 8 -7 35 -15 60 -18 35
-4 45 -9 45 -23 0 -29 -93 -27 -113 1 -8 11 -31 38 -51 60 -31 34 -40 39 -56
30 -18 -10 -20 -7 -20 32 0 24 -5 59 -11 78 -6 19 -12 76 -14 125 -1 57 1 79
6 60 4 -16 15 -57 24 -90z m-1175 29 l0 -66 -92 4 -93 5 -3 61 -3 62 96 0 95
0 0 -66z m1690 36 c0 -11 5 -20 10 -20 6 0 10 -36 10 -88 0 -78 -2 -89 -17
-89 -10 0 -21 5 -25 11 -5 8 -8 7 -8 -1 0 -7 -7 -13 -15 -13 -8 0 -15 7 -15
16 0 13 8 15 35 12 19 -2 35 0 35 4 0 4 -7 8 -16 8 -14 0 -16 11 -12 75 3 67
1 75 -14 75 -10 0 -18 7 -18 15 0 9 9 15 25 15 18 0 25 -5 25 -20z m-2020 -26
l0 -37 -67 7 c-38 3 -98 6 -135 6 -66 0 -68 1 -68 25 l0 24 128 4 c70 1 130 4
135 5 4 1 7 -14 7 -34z m2420 26 c0 -6 -30 -10 -70 -10 -40 0 -70 4 -70 10 0
6 30 10 70 10 40 0 70 -4 70 -10z m-2700 -121 c0 -102 -1 -109 -20 -109 -19 0
-20 7 -20 114 0 109 1 114 20 109 18 -5 20 -14 20 -114z m2866 73 c-15 -15
-16 -14 -16 10 0 14 6 28 13 31 19 6 21 -23 3 -41z m-2042 -184 c5 -47 3 -58
-9 -58 -13 0 -15 22 -14 138 2 149 1 153 23 -80z m1446 142 c0 -60 -2 -70 -17
-70 -15 0 -19 11 -21 70 -3 65 -2 70 17 70 19 0 21 -6 21 -70z m396 59 c3 -6
2 -14 -3 -18 -6 -3 3 -17 20 -30 l29 -24 -22 42 c-19 39 -20 42 -4 39 22 -4
40 -66 25 -81 -8 -8 -15 -6 -23 6 -23 29 -66 39 -96 22 l-27 -14 33 6 c19 3
32 1 32 -5 0 -5 -16 -12 -35 -14 l-35 -4 0 43 0 43 49 0 c28 0 53 -5 57 -11z
m-2386 -74 c0 -34 -1 -35 -38 -35 -29 0 -39 5 -47 23 -9 19 -18 22 -82 25
l-73 3 0 -71 c0 -56 -3 -70 -15 -70 -12 0 -15 16 -15 80 l0 80 135 0 135 0 0
-35z m644 17 c3 -5 -2 -52 -12 -105 -16 -94 -17 -97 -43 -97 -26 0 -27 2 -33
78 -4 42 -9 89 -12 105 -6 27 -5 27 45 27 27 0 52 -4 55 -8z m531 -52 c0 -45
-2 -50 -22 -50 -21 0 -23 5 -23 50 0 45 2 50 23 50 20 0 22 -5 22 -50z m-1345
-25 c0 -37 -4 -65 -10 -65 -6 0 -10 28 -10 65 0 37 4 65 10 65 6 0 10 -28 10
-65z m500 44 c0 -5 -45 -9 -100 -9 -73 0 -100 3 -100 13 0 9 25 11 100 9 55
-2 100 -8 100 -13z m-530 -49 c0 -47 -3 -60 -15 -60 -12 0 -15 13 -15 60 0 47
3 60 15 60 12 0 15 -13 15 -60z m70 0 c0 -47 -3 -60 -15 -60 -12 0 -15 13 -15
60 0 47 3 60 15 60 12 0 15 -13 15 -60z m31 48 c9 -85 7 -108 -6 -108 -12 0
-15 14 -15 60 0 33 4 60 10 60 6 0 11 -6 11 -12z m1578 -49 c6 -27 11 -77 11
-109 0 -53 -2 -60 -19 -60 -18 0 -20 9 -23 93 -3 102 0 139 12 132 5 -3 13
-28 19 -56z m933 26 l30 -25 -31 0 c-16 0 -33 -4 -36 -10 -12 -20 -45 -11 -46
13 l-2 22 -4 -22 c-3 -15 -12 -23 -24 -23 -14 0 -19 7 -19 29 0 25 5 30 28 34
59 9 75 6 104 -18z m188 0 c0 -16 -6 -25 -15 -25 -9 0 -15 9 -15 25 0 16 6 25
15 25 9 0 15 -9 15 -25z m-330 -135 c0 -87 -4 -140 -10 -140 -6 0 -10 53 -10
140 0 87 4 140 10 140 6 0 10 -53 10 -140z m-2270 90 c0 -40 0 -40 -40 -40
-40 0 -40 0 -40 40 0 40 0 40 40 40 40 0 40 0 40 -40z m330 15 c0 -25 0 -25
-96 -25 -63 0 -93 3 -89 10 4 6 1 17 -5 25 -11 13 1 15 89 15 l101 0 0 -25z
m1108 -116 l-4 -68 28 6 c25 5 28 3 28 -21 0 -24 -3 -26 -44 -26 -25 0 -48 5
-51 10 -3 6 1 10 9 10 16 0 20 16 16 78 -2 43 12 123 18 98 2 -11 2 -50 0 -87z
m-314 79 c-3 -8 -28 -14 -67 -15 -35 -1 -91 -9 -124 -17 -116 -30 -113 -15 4
20 87 26 196 32 187 12z m172 1 c43 -11 58 -37 18 -31 -88 13 -135 14 -148 3
-8 -7 -22 -34 -32 -62 -18 -50 -44 -66 -44 -27 0 13 12 46 27 75 l26 53 54 0
c30 0 74 -5 99 -11z m924 -14 l0 -25 -117 -2 -118 -2 118 -3 c122 -4 167 -23
53 -23 -36 0 -68 -5 -71 -10 -3 -6 -18 -7 -33 -4 -21 4 -24 3 -12 -5 19 -14
63 -14 55 -1 -4 6 18 10 59 10 52 0 66 -3 66 -15 0 -8 -8 -15 -17 -15 -16 0
-16 2 -3 11 11 8 6 9 -20 4 -19 -3 -72 -9 -117 -12 l-83 -6 0 56 0 56 43 4
c23 2 77 4 120 5 76 2 77 2 77 -23z m-1890 -71 l0 -80 -92 0 -93 1 2 80 c1 44
2 80 3 80 0 0 40 0 90 0 l90 0 0 -81z m1558 80 l62 -6 0 -54 c0 -30 -4 -54
-10 -54 -5 0 -10 18 -10 40 0 23 -5 43 -12 45 -26 9 -128 12 -128 4 0 -10 25
-13 88 -9 l42 2 0 -41 0 -41 -75 0 -75 0 0 59 c0 67 -3 66 118 55z m688 -8 c1
0 -3 -27 -9 -59 l-10 -58 -71 3 -70 3 -8 40 c-4 22 -10 49 -13 61 -4 19 -1 20
88 16 51 -2 93 -5 93 -6z m24 -56 c0 -47 -3 -60 -15 -60 -8 0 -15 4 -15 9 0
15 23 111 27 111 2 0 3 -27 3 -60z m-1232 -15 c3 -45 2 -47 -20 -41 -13 3 -29
6 -36 6 -15 0 -8 31 16 68 22 34 37 22 40 -33z m28 -8 c-3 -12 0 -27 5 -34 16
-18 1 -37 -17 -22 -7 6 -11 16 -7 22 3 5 6 23 5 39 0 17 3 26 10 22 5 -3 7
-16 4 -27z m185 -13 l34 -35 -47 26 c-47 26 -61 45 -35 45 7 0 29 -16 48 -36z
m-61 -41 c0 -24 -4 -43 -10 -43 -6 0 -10 26 -10 58 0 40 3 53 10 42 5 -8 10
-34 10 -57z m-870 47 c0 -6 -28 -10 -65 -10 -37 0 -65 4 -65 10 0 6 28 10 65
10 37 0 65 -4 65 -10z m226 -25 c-5 -14 -9 -15 -21 -5 -12 10 -13 16 -4 27 15
18 34 1 25 -22z m680 -33 c5 -25 3 -32 -10 -32 -12 0 -16 10 -16 42 0 48 16
42 26 -10z m684 8 l0 -30 -235 0 -235 0 0 25 c0 24 2 24 93 28 50 1 156 4 235
5 l142 2 0 -30z m-1750 5 c0 -15 -55 -55 -75 -55 -9 1 63 70 72 70 1 0 3 -7 3
-15z m1109 -9 c13 -14 33 -27 45 -29 11 -3 1 -4 -23 -3 -40 1 -45 4 -52 29 -9
33 1 34 30 3z m991 2 c0 -10 -197 -10 -204 0 -2 4 43 7 100 7 57 0 104 -3 104
-7z m-1470 -38 c0 -11 -7 -23 -16 -27 -20 -8 -36 17 -22 34 16 20 38 15 38 -7z
m-790 0 c0 -6 -42 -10 -105 -10 -63 0 -105 4 -105 10 0 6 42 10 105 10 63 0
105 -4 105 -10z m1910 -10 c0 -6 -85 -10 -235 -10 -150 0 -235 4 -235 10 0 6
85 10 235 10 150 0 235 -4 235 -10z"/>
<path d="M1493 1731 c-17 -21 -55 -112 -49 -119 2 -2 12 18 22 43 9 26 26 57
36 71 23 29 15 33 -9 5z"/>
<path d="M2837 734 c-11 -11 -9 -162 3 -169 5 -3 7 15 5 47 -3 41 -2 46 4 23
8 -28 9 -27 9 15 0 53 -10 95 -21 84z"/>
<path d="M2020 974 c0 -9 11 -14 31 -14 35 0 31 15 -6 22 -17 4 -25 1 -25 -8z"/>
<path d="M2415 919 c-3 -3 32 -7 78 -8 45 -1 79 0 76 3 -8 8 -150 13 -154 5z"/>
<path d="M1080 471 c32 -5 36 -10 41 -46 l6 -40 2 36 c1 43 -14 59 -53 58 -31
-2 -31 -2 4 -8z"/>
<path d="M2458 663 c23 -2 59 -2 80 0 20 2 1 4 -43 4 -44 0 -61 -2 -37 -4z"/>
<path d="M1813 2054 c-8 -21 13 -42 28 -27 13 13 5 43 -11 43 -6 0 -13 -7 -17
-16z"/>
<path d="M1140 2030 c0 -15 5 -20 18 -18 9 2 17 10 17 18 0 8 -8 16 -17 18
-13 2 -18 -3 -18 -18z"/>
<path d="M1885 1972 c-16 -11 -37 -27 -45 -38 -10 -13 -6 -11 12 4 14 13 43
30 65 37 22 8 30 14 18 15 -11 0 -33 -8 -50 -18z"/>
<path d="M2096 1961 c86 -14 161 -77 203 -171 11 -25 21 -39 21 -32 0 28 -51
110 -90 146 -50 45 -97 66 -142 65 -31 -1 -31 -2 8 -8z"/>
<path d="M368 1917 c-13 -30 -10 -143 2 -131 6 6 10 41 8 80 -2 43 -6 62 -10
51z"/>
<path d="M2117 1865 c38 -17 73 -62 108 -136 14 -30 22 -43 19 -29 -20 78 -85
162 -134 174 -19 4 -17 2 7 -9z"/>
<path d="M2312 1708 c-7 -7 -12 -17 -12 -22 0 -7 3 -6 8 1 4 6 23 16 42 21
l35 10 -30 1 c-17 1 -36 -4 -43 -11z"/>
<path d="M874 1525 c-4 -9 -2 -21 4 -27 15 -15 44 -1 40 19 -4 23 -36 29 -44
8z"/>
<path d="M627 1030 c5 -52 4 -60 -11 -60 -10 0 -14 -5 -11 -11 4 -6 9 -8 13
-5 3 3 11 -2 18 -12 11 -14 12 -8 7 40 -4 40 -2 62 7 74 12 13 11 17 -1 25
-26 16 -29 10 -22 -51z"/>
<path d="M582 1035 c11 -25 28 -34 28 -15 0 6 0 13 1 17 0 4 -9 10 -20 15 -18
6 -19 5 -9 -17z"/>
<path d="M4 525 c0 -49 1 -71 3 -48 2 23 2 64 0 90 -2 26 -3 8 -3 -42z"/>
</g>
</svg>
