<?xml version="1.0" standalone="no"?>
<!DOCTYPE svg PUBLIC "-//W3C//DTD SVG 20010904//EN"
 "http://www.w3.org/TR/2001/REC-SVG-20010904/DTD/svg10.dtd">
<svg version="1.0" xmlns="http://www.w3.org/2000/svg"
 width="300.000000pt" height="224.000000pt" viewBox="0 0 300.000000 224.000000"
 preserveAspectRatio="xMidYMid meet">
<metadata>
Created by potrace 1.10, written by Peter Selinger 2001-2011
</metadata>
<g transform="translate(0.000000,224.000000) scale(0.100000,-0.100000)"
fill="#000000" stroke="none">
<path d="M222 2108 c-1 -76 -5 -138 -9 -138 -5 1 -19 7 -33 15 -25 15 -117 20
-158 9 -37 -10 -25 -24 23 -24 l45 0 0 -200 0 -199 -32 6 c-42 8 -48 13 -15
13 14 0 29 5 33 12 5 8 -2 9 -26 5 -18 -4 -36 -7 -41 -7 -21 0 -6 -20 19 -26
67 -15 62 2 62 -191 l0 -176 -46 7 c-28 3 -43 2 -39 -4 3 -6 24 -10 46 -10 37
0 39 -2 39 -29 0 -28 -2 -30 -47 -34 l-48 -3 48 -2 47 -2 0 -114 0 -115 -47
-4 -48 -3 48 -2 47 -2 0 -145 0 -145 -47 -2 -48 -1 50 -7 50 -6 -50 -5 -50 -5
48 -2 47 -2 0 -49 0 -50 -47 -4 -48 -3 48 -2 47 -2 0 -125 0 -125 -45 0 c-25
0 -45 -4 -45 -10 0 -5 20 -10 45 -10 l45 0 0 -59 0 -60 -47 -4 c-39 -3 -36 -4
12 -3 l60 1 3 61 c3 58 5 63 32 74 17 7 27 17 23 23 -4 6 0 8 10 4 22 -8 69
12 60 26 -4 6 0 8 10 4 22 -8 69 12 60 26 -4 6 0 8 10 4 10 -4 52 9 98 28 79
34 80 34 77 12 -2 -18 -38 -39 -188 -114 -102 -50 -182 -92 -178 -92 4 -1 85
35 180 80 95 44 192 87 214 94 23 7 60 23 82 34 23 12 45 21 50 21 6 0 13 -17
17 -37 4 -21 10 -32 12 -25 3 7 0 26 -6 42 l-10 30 130 0 129 0 0 -152 c0
-138 1 -151 16 -137 13 14 15 57 14 317 0 205 3 302 10 302 7 0 10 -100 10
-311 -1 -171 1 -314 4 -317 4 -3 6 70 6 161 0 160 1 167 20 167 16 0 20 -7 20
-33 0 -23 7 -36 23 -46 21 -13 22 -13 4 6 -9 11 -15 22 -13 24 2 2 6 74 8 159
3 85 2 128 -2 95 l-7 -60 -1 68 c-2 61 0 67 18 67 19 0 20 -7 20 -190 0 -104
4 -190 8 -190 5 0 17 9 27 20 18 20 18 20 33 -1 14 -21 14 -21 43 7 16 15 29
38 29 51 0 22 2 23 93 23 91 0 92 0 92 -24 0 -20 -6 -25 -39 -30 -28 -5 -224
-78 -242 -90 -1 -1 -4 -13 -8 -29 -4 -19 -3 -26 6 -25 6 2 14 -5 16 -16 2 -11
0 -16 -7 -12 -6 4 -11 2 -11 -4 0 -17 31 -24 41 -9 5 8 8 23 8 34 0 19 -1 19
-8 1 -6 -15 -9 -12 -18 17 -8 27 -8 34 1 31 7 -3 31 2 55 11 55 19 54 19 48
-8 -4 -12 -3 -27 1 -32 10 -14 42 -18 42 -5 0 6 -5 8 -10 5 -5 -3 -10 0 -10 8
0 17 41 40 66 36 10 -2 25 0 33 5 9 6 12 5 9 -5 -3 -8 -11 -14 -19 -14 -25 0
-58 -75 -59 -132 0 -50 1 -53 25 -53 20 0 25 5 25 25 0 13 -8 28 -17 34 -16 8
-16 14 -6 42 7 17 10 36 7 40 -3 5 1 7 8 4 8 -3 23 13 38 37 l25 43 3 -40 c5
-74 10 -85 35 -76 17 6 23 18 28 57 3 30 1 53 -5 60 -8 8 -11 -4 -11 -44 0
-70 -20 -81 -29 -15 -9 66 -25 103 -45 104 -11 0 -12 2 -3 6 7 3 19 -1 27 -7
12 -10 15 -10 15 0 0 25 32 3 57 -39 14 -24 21 -41 14 -37 -16 11 -14 -2 8
-32 23 -33 61 -112 61 -126 0 -6 -5 -4 -10 4 -8 13 -10 12 -10 -2 0 -13 8 -18
25 -18 20 0 25 5 25 24 0 25 -22 50 -34 38 -4 -4 -2 5 4 20 7 14 18 24 25 22
6 -3 17 5 23 18 12 22 12 21 7 -7 l-5 -30 15 25 16 25 -4 -28 c-2 -15 0 -27 4
-27 5 0 9 21 9 47 0 48 15 50 22 3 4 -25 9 -27 41 -14 13 5 20 1 24 -15 3 -11
9 -21 13 -21 5 0 6 -9 3 -20 -6 -24 22 -39 40 -21 9 9 8 16 -1 32 -10 16 -10
20 0 18 44 -6 52 20 13 45 -25 17 -45 70 -45 123 l0 33 203 3 202 2 -202 3
c-127 1 -203 6 -203 12 0 6 75 10 205 10 l205 0 0 -50 c0 -38 4 -50 15 -50 10
0 15 11 15 35 l0 35 60 0 60 0 0 -125 c0 -110 2 -125 17 -125 9 0 13 -3 10 -7
-4 -3 0 -14 9 -24 14 -16 40 -17 327 -12 172 3 314 8 317 10 3 3 -132 4 -300
2 l-305 -4 -3 183 -2 182 34 0 c34 0 46 -13 46 -50 0 -14 -9 -20 -37 -23 l-38
-4 39 -1 39 -2 -6 -42 c-4 -27 -2 -37 4 -27 5 7 9 26 9 42 0 15 5 27 10 27 6
0 11 12 11 28 1 15 6 0 11 -33 16 -108 14 -103 63 -110 24 -4 58 -3 74 3 27
10 31 8 40 -16 l11 -27 -5 29 c-9 47 5 116 24 116 13 0 13 2 2 9 -18 12 -9 36
14 36 10 0 20 6 23 14 3 9 -2 11 -17 6 -19 -6 -21 -3 -19 24 2 27 6 31 30 31
21 0 29 -6 34 -25 3 -14 11 -25 16 -25 5 0 7 6 4 13 -3 6 -9 20 -12 30 -4 10
-17 17 -31 17 -13 0 -21 4 -18 10 4 6 -9 9 -32 9 -23 -1 -29 -3 -15 -6 12 -2
19 -9 16 -15 -4 -5 -8 -24 -9 -41 -4 -48 -23 -156 -29 -166 -9 -13 -69 -22
-104 -15 -35 7 -37 12 -46 103 l-5 54 44 -6 c25 -4 66 -3 92 0 l48 7 -35 6
c-19 3 -47 3 -62 -1 -21 -6 -26 -4 -21 7 4 12 18 14 62 10 52 -5 54 -5 19 5
-30 9 -38 16 -38 35 0 16 6 24 18 25 14 0 14 2 -3 9 -19 8 -18 9 4 9 31 1 23
10 -12 13 -23 2 -25 4 -12 18 19 21 19 30 -2 30 -9 0 -13 -3 -10 -7 10 -10
-13 -32 -28 -27 -7 3 -11 14 -8 25 3 10 9 16 14 13 5 -3 9 46 9 110 l0 116
-140 0 c-90 0 -140 4 -140 10 0 7 52 10 149 9 l148 -2 8 -66 c3 -36 8 -79 10
-96 2 -16 4 -40 4 -53 l1 -23 29 20 c15 11 30 18 33 15 3 -2 16 0 29 5 23 9
23 10 -6 8 -16 0 -40 -7 -52 -15 -22 -14 -23 -13 -23 22 0 22 4 35 10 31 6 -3
10 -1 10 4 0 6 7 11 15 11 8 0 15 -4 15 -10 0 -15 26 -12 40 5 7 9 19 14 27
11 9 -4 13 3 13 19 0 14 6 25 14 25 8 0 12 -8 9 -23 -3 -13 2 -29 11 -36 11
-9 13 -18 7 -30 -8 -14 -1 -16 62 -17 40 -1 59 0 42 2 -74 10 -95 16 -90 25 4
5 18 6 33 3 19 -4 15 1 -15 16 -39 20 -58 50 -32 50 5 0 7 5 4 10 -3 6 -20 10
-37 10 -25 0 -29 -3 -25 -19 4 -15 -2 -20 -32 -25 -65 -11 -91 -7 -92 12 0 9
-2 26 -4 37 -2 10 2 26 8 34 9 11 9 15 0 18 -23 8 -14 24 10 18 12 -3 34 -2
47 4 22 8 19 10 -23 10 -34 1 -47 5 -44 14 2 6 15 11 28 10 18 -2 16 1 -8 9
-24 8 -32 16 -29 30 4 27 26 39 48 27 10 -6 23 -7 28 -4 6 3 10 1 10 -4 0 -6
9 -11 19 -11 10 0 21 -7 25 -15 3 -8 1 -15 -4 -15 -15 0 -25 4 -23 10 1 3 -13
6 -30 6 l-30 1 27 -14 c16 -8 24 -19 20 -26 -4 -7 -4 -9 1 -5 4 4 14 3 22 -4
10 -8 17 -8 26 1 9 10 8 11 -5 6 -10 -4 -18 -3 -18 3 0 5 7 13 16 16 9 4 14
13 10 21 -3 10 1 15 14 15 10 0 22 4 25 10 4 6 -6 7 -26 3 -29 -6 -32 -4 -27
15 4 12 2 22 -3 22 -5 0 -9 -9 -9 -20 0 -11 -5 -20 -11 -20 -5 0 -9 8 -8 18 3
34 -1 49 -15 49 -11 0 -12 -4 -3 -19 10 -15 9 -20 -2 -27 -31 -19 -54 12 -29
37 9 9 9 15 -1 25 -11 10 -13 9 -9 -3 3 -8 -1 -21 -9 -28 -7 -8 -11 -17 -8
-22 3 -4 -3 -7 -13 -6 -14 1 -17 -7 -15 -51 2 -29 -1 -53 -6 -53 -5 0 -9 6 -8
13 0 6 -1 29 -1 49 -2 31 -5 36 -19 31 -16 -6 -16 -4 1 15 11 12 26 22 35 22
12 0 13 2 3 8 -14 10 -5 102 10 102 5 0 7 3 5 8 -3 4 -1 16 4 27 5 14 8 2 10
-40 3 -57 3 -56 9 25 6 88 1 1132 -6 1139 -2 2 -5 -223 -6 -500 0 -277 -2
-524 -3 -549 -1 -50 -13 -90 -26 -90 -4 0 -10 -12 -12 -27 -2 -16 -6 242 -8
572 l-4 600 -5 -550 c-3 -302 -1 -588 3 -634 7 -79 6 -86 -14 -107 -13 -13
-25 -21 -28 -18 -3 3 -8 299 -11 657 l-6 652 -2 -613 c-1 -412 -6 -620 -13
-633 -7 -15 -7 -24 2 -35 8 -10 9 -17 0 -28 -8 -10 -7 -24 4 -55 l14 -41 -29
0 -30 0 0 94 c0 90 1 95 23 99 19 4 18 4 -5 6 -21 1 -26 5 -21 17 5 13 7 13
14 2 7 -10 9 -9 9 5 0 9 -7 17 -15 17 -8 0 -15 -7 -15 -15 0 -14 -14 -19 -47
-18 -10 1 -13 -26 -13 -103 l0 -104 -50 0 c-49 0 -50 -1 -50 -30 0 -21 -4 -28
-14 -24 -17 6 -27 122 -11 127 5 2 4 7 -3 11 -7 4 -12 2 -12 -3 0 -6 -5 -11
-12 -11 -8 0 -7 5 4 16 13 13 19 14 37 3 26 -17 35 -40 19 -50 -7 -4 -9 -11
-6 -14 12 -12 28 6 28 30 0 28 -41 60 -65 51 -17 -6 -21 9 -4 19 11 8 71 -18
87 -37 5 -7 12 -22 15 -33 3 -12 5 -8 4 10 -2 24 -10 34 -41 49 -34 17 -37 20
-20 26 10 4 22 6 27 3 4 -2 7 1 7 6 0 6 6 11 14 11 20 0 29 17 15 26 -7 4 -9
3 -6 -3 4 -6 -13 -16 -36 -23 -23 -8 -51 -18 -62 -24 -11 -6 -24 -10 -29 -11
-5 0 -11 -7 -13 -15 -4 -13 -3 -13 6 0 13 19 14 0 1 -20 -8 -12 -10 -12 -10
-1 0 8 -3 11 -7 8 -3 -4 -13 -1 -21 6 -13 10 -14 8 -7 -12 5 -16 4 -21 -4 -17
-7 5 -11 58 -11 154 0 161 -5 192 -27 192 -12 0 -14 9 -10 43 4 28 3 36 -3 22
-5 -11 -9 -30 -9 -42 -1 -14 -7 -23 -16 -23 -11 0 -13 5 -6 17 5 10 15 34 24
53 l15 35 6 -30 c8 -35 63 -148 89 -182 25 -32 97 -30 97 3 0 13 -57 114 -71
124 -3 3 -14 21 -23 40 -9 19 -35 55 -56 79 -32 35 -41 40 -46 27 -3 -9 -4
-25 -1 -36 3 -11 1 -18 -3 -15 -5 3 -17 -21 -27 -52 -12 -36 -26 -59 -36 -61
-15 -3 -17 37 -20 490 l-2 493 -3 -492 c-1 -321 -6 -493 -12 -493 -6 0 -11
172 -12 493 l-3 492 -2 -490 c-2 -306 -7 -493 -13 -499 -7 -7 -10 159 -10 489
0 274 -2 496 -5 493 -3 -3 -6 -149 -5 -326 0 -283 -2 -321 -16 -326 -23 -9
-24 -8 -24 18 0 14 -10 30 -26 41 -14 9 -32 32 -40 51 -8 19 -20 34 -27 33 -9
0 -9 -2 0 -6 7 -2 13 -10 13 -17 0 -18 56 -87 64 -79 3 3 6 -9 6 -28 0 -22 -7
-41 -20 -52 -13 -11 -19 -28 -19 -49 l2 -33 4 30 c3 17 14 41 26 53 l22 24 6
-94 5 -93 2 98 c1 55 6 97 12 97 6 0 9 -62 7 -162 l-2 -163 -132 -5 c-72 -3
-135 -8 -139 -13 -4 -4 -10 -57 -12 -117 -4 -108 -5 -110 -28 -110 -18 0 -29
9 -41 35 -12 25 -26 38 -47 43 -44 12 -43 46 0 50 38 4 44 18 49 120 3 73 3
73 -28 93 -69 42 -141 14 -153 -59 -5 -29 -14 -42 -46 -62 -22 -14 -46 -37
-54 -52 -16 -31 -18 -68 -4 -68 6 0 10 14 10 30 0 17 4 30 10 30 5 0 9 5 7 12
-4 21 27 14 51 -12 13 -14 21 -20 18 -14 -18 37 -10 85 9 54 3 -5 15 -10 26
-10 12 0 17 -4 13 -11 -3 -6 -15 -9 -25 -6 -22 6 -23 3 -9 -22 7 -14 5 -23
-10 -36 -17 -15 -22 -16 -37 -4 -9 8 -14 9 -10 3 3 -6 -2 -27 -13 -47 -16 -30
-17 -37 -5 -47 8 -7 13 -26 11 -48 -1 -20 6 -62 16 -95 10 -32 18 -76 18 -98
l0 -39 -100 0 c-94 0 -103 2 -126 25 -14 14 -31 25 -38 25 -20 0 -42 133 -28
165 7 14 12 35 12 45 0 19 7 20 100 20 l100 0 19 -31 c18 -30 19 -30 18 -6 -1
14 -6 23 -11 19 -5 -3 -6 1 -1 8 5 8 4 11 -3 6 -7 -4 -9 1 -7 15 3 12 -4 34
-15 49 -19 27 -20 50 -23 591 l-2 564 -3 -582 c-1 -377 -6 -583 -12 -583 -6 0
-11 206 -13 583 l-2 582 -3 -582 c-1 -377 -6 -583 -12 -583 -6 0 -11 206 -13
583 l-2 582 -3 -582 c-1 -377 -6 -583 -12 -583 -6 0 -11 206 -13 583 l-2 582
-3 -582 c-1 -381 -5 -583 -12 -583 -7 0 -11 202 -12 583 l-3 582 -5 -585 -5
-585 -3 584 c-1 321 -4 582 -6 580 -4 -5 -16 -704 -16 -976 0 -176 -1 -183
-20 -183 -13 0 -22 -9 -26 -26 -8 -32 1 -212 11 -238 8 -18 4 -19 -64 -12 -63
6 -76 5 -106 -14 -19 -12 -35 -22 -35 -23 0 -1 60 -3 133 -5 72 -2 136 -8 142
-13 9 -9 -160 -4 -227 6 -15 3 -36 1 -45 -3 -10 -4 26 -9 82 -13 l100 -5 -98
-2 -97 -2 3 -125 4 -125 -48 0 -49 0 0 303 c-1 585 -9 1450 -15 1455 -3 3 -4
-391 -3 -876 2 -485 0 -882 -4 -882 -5 0 -9 397 -11 883 l-2 882 -3 -892 -2
-893 -67 2 -68 2 56 3 57 4 4 37 c6 48 10 1737 4 1731 -2 -2 -7 -380 -10 -839
-3 -459 -6 -854 -6 -877 l0 -42 -50 1 c-28 1 -54 6 -57 11 -4 6 -1 7 7 2 8 -5
11 -4 7 3 -4 5 -16 8 -27 5 -23 -6 -26 9 -5 30 8 8 11 17 8 21 -4 3 -8 46 -10
95 l-3 90 28 4 c26 4 26 4 -4 6 -25 1 -30 5 -30 24 1 19 -4 22 -39 23 l-40 1
38 -4 c20 -2 37 -8 37 -13 0 -5 -6 -7 -14 -4 -8 3 -17 0 -21 -6 -4 -7 2 -14
14 -17 19 -5 21 -12 21 -100 0 -80 -3 -100 -21 -124 -11 -16 -26 -29 -33 -29
-30 0 -36 73 -34 390 2 173 0 419 -3 545 -3 127 -4 200 -2 163 6 -110 18 -78
21 57 l2 124 -67 39 c-38 22 -108 62 -158 89 l-90 50 -5 144 -6 144 -2 -137z
m-49 -133 c43 -18 338 -182 352 -196 5 -6 3 -9 -6 -9 -9 0 -18 3 -22 6 -3 3
-25 8 -49 10 -24 2 -76 15 -117 29 -116 39 -110 45 -114 -97 l-3 -123 -1 130
c-1 72 -2 136 -2 143 -1 6 -12 12 -26 12 -18 0 -25 -5 -25 -20 0 -12 -7 -20
-17 -21 -17 -1 -17 -2 0 -6 15 -4 17 -18 17 -112 0 -59 -3 -110 -6 -114 -3 -3
-12 -3 -20 0 -11 4 -14 40 -14 184 0 98 3 179 8 179 4 0 83 -41 176 -90 93
-50 170 -89 172 -88 3 4 -137 83 -270 153 -86 45 -101 59 -33 30z m-66 -307
c-1 -57 -3 -11 -3 102 0 113 2 159 3 103 2 -57 2 -149 0 -205z m93 61 c0 -91
-4 -138 -10 -134 -13 8 -13 275 0 275 6 0 10 -54 10 -141z m68 -31 c3 -123 2
-126 -18 -121 -19 5 -20 13 -20 130 0 113 2 124 18 121 15 -3 17 -19 20 -130z
m30 -65 l-3 -82 67 -17 c98 -26 76 -29 -39 -6 -54 11 -122 23 -150 27 -43 6
-53 10 -53 26 0 21 5 21 107 -7 28 -8 54 -14 57 -14 3 0 7 57 8 128 1 70 3
105 5 77 3 -27 3 -87 1 -132z m32 46 c0 -73 -4 -119 -10 -119 -6 0 -10 49 -10
126 0 81 4 123 10 119 6 -4 10 -57 10 -126z m40 91 c8 5 26 9 40 9 23 0 23 -1
5 -9 -14 -6 -4 -9 38 -9 l57 -1 0 -127 0 -128 -38 -1 c-20 -1 -30 1 -22 3 21
5 12 194 -9 201 -9 3 -11 0 -7 -7 9 -13 21 -181 14 -181 -3 0 -19 5 -37 11
l-31 11 -2 111 -2 112 -6 -115 -6 -115 -4 110 -4 110 -6 -105 -6 -105 -1 125
c-1 69 1 117 5 108 5 -13 11 -15 22 -8z m-263 -707 c-1 -93 -3 -17 -3 167 0
184 2 260 3 168 2 -93 2 -243 0 -335z m153 457 c58 -11 106 -20 108 -20 1 0 2
-16 2 -35 0 -33 -2 -35 -35 -35 l-35 0 0 -105 0 -105 -25 0 -25 0 0 110 c0 93
2 109 15 104 12 -5 15 -26 15 -102 0 -125 8 -115 11 13 l2 100 -87 9 -86 8 0
45 c0 38 3 44 18 39 9 -3 64 -15 122 -26z m233 -39 c15 -1 17 -15 17 -145 l0
-145 -32 4 c-42 6 -119 14 -136 14 -10 1 -12 25 -10 103 3 94 5 103 23 106 14
2 16 1 7 -6 -9 -6 0 -14 33 -27 43 -16 47 -20 43 -46 -4 -28 -4 -29 19 -14 27
18 30 9 6 -17 -15 -17 -15 -18 -1 -13 19 8 31 32 22 47 -3 5 -13 7 -21 3 -13
-4 -14 -3 -4 9 7 8 11 33 8 58 l-4 43 -1 -48 -2 -48 -24 18 -24 18 21 7 c13 5
6 5 -15 2 l-38 -5 0 49 0 49 48 -8 c26 -4 55 -8 65 -8z m-318 -143 l0 -108
-27 0 -28 0 0 111 0 110 27 -3 28 -3 0 -107z m38 88 c3 -7 4 -58 2 -113 l-4
-100 122 -12 c147 -15 166 -18 107 -20 -59 -1 -309 25 -317 33 -4 3 11 6 33 6
l39 0 -3 110 c-2 65 1 110 6 110 6 0 12 -6 15 -14z m24 -153 c-2 -32 -3 -6 -3
57 0 63 1 89 3 58 2 -32 2 -84 0 -115z m80 -15 c-2 -29 -3 -6 -3 52 0 58 1 81
3 53 2 -29 2 -77 0 -105z m1863 127 c4 3 14 -3 21 -13 13 -15 12 -16 -3 -3
-16 11 -18 11 -18 -2 0 -8 6 -17 14 -20 13 -5 74 -85 121 -159 l17 -28 -45 0
-44 0 -38 84 c-20 46 -34 89 -31 95 4 6 3 11 -1 11 -5 0 -9 12 -10 28 -1 15 1
21 4 14 2 -6 8 -10 13 -7z m-625 -45 c-3 -5 -11 -10 -17 -10 -7 0 -23 -10 -37
-22 l-25 -23 16 25 c8 13 26 28 39 31 13 4 25 7 27 8 2 1 0 -3 -3 -9z m42 -27
c2 -6 -8 -19 -24 -27 -15 -8 -21 -15 -13 -16 8 0 -6 -14 -32 -30 -50 -31 -72
-38 -66 -19 2 6 8 11 13 11 15 0 65 31 65 41 0 9 -17 1 -42 -21 -21 -18 -23
-7 -4 27 24 43 93 66 103 34z m18 -62 c-3 -16 -2 -32 4 -35 6 -4 5 -17 -2 -36
-9 -23 -18 -30 -39 -30 -28 0 -54 -30 -40 -45 4 -5 -1 -5 -11 -2 -10 4 -27 7
-38 7 -17 0 -18 3 -7 22 7 12 21 31 30 42 10 11 20 28 24 38 3 10 9 18 14 18
5 0 21 11 36 25 34 32 37 31 29 -4z m549 -73 c3 -40 8 -141 11 -224 l5 -151
-75 0 -75 0 1 31 c1 30 1 30 9 6 5 -17 8 -19 9 -7 1 13 10 17 45 17 59 0 76 8
75 34 -1 16 -2 17 -6 4 -4 -16 -22 -18 -206 -18 -111 0 -212 3 -224 6 -21 6
-23 11 -21 78 1 62 2 64 5 19 4 -50 5 -52 36 -57 18 -3 113 -4 212 -3 l180 2
0 159 0 158 -120 -2 c-66 -1 -160 -5 -210 -10 -59 -5 -19 -6 115 -2 l206 5 -1
-147 0 -146 -203 0 -203 0 1 133 c1 72 -1 140 -5 150 -6 14 -1 17 26 18 19 1
97 5 174 8 77 4 161 8 187 9 l46 2 6 -72z m-1877 2 c70 -6 151 -13 178 -15
l50 -6 0 -124 0 -123 -40 -4 -40 -3 2 69 c1 37 -1 65 -5 61 -4 -4 -7 -34 -7
-68 l0 -62 -75 -6 -75 -5 90 -4 90 -4 -75 -4 c-41 -2 -94 0 -117 3 l-43 6 -1
112 c-2 126 -16 105 -18 -25 l-1 -78 -40 0 -40 0 0 114 0 114 66 -4 c37 -2 69
-6 72 -9 3 -3 7 -49 8 -103 l2 -97 70 -3 70 -3 5 63 c3 47 1 66 -10 74 -7 7
-17 28 -20 48 -6 35 -7 36 -52 36 -25 0 -83 3 -128 7 -79 6 -83 7 -83 29 0 28
-7 28 167 14z m13 -160 c0 -60 -4 -100 -10 -100 -6 0 -10 40 -10 100 0 60 4
100 10 100 6 0 10 -40 10 -100z m30 -6 c0 -56 -4 -94 -10 -94 -6 0 -10 40 -10
101 0 64 4 98 10 94 6 -3 10 -48 10 -101z m1228 71 c2 -2 -4 -17 -12 -34 -24
-45 -20 -83 14 -130 l30 -41 -27 -65 -28 -65 -42 0 -43 0 0 43 c0 33 6 49 25
67 14 13 25 28 24 34 0 6 -7 1 -16 -11 -8 -13 -21 -23 -28 -23 -8 0 -16 -6
-19 -12 -3 -7 -2 0 1 16 4 19 2 27 -5 22 -6 -4 -8 1 -5 14 3 11 9 17 14 15 4
-3 16 6 25 21 17 25 17 28 -4 68 -27 49 -27 54 -5 79 14 15 26 18 57 12 22 -3
42 -8 44 -10z m-1201 -127 c-2 -24 -4 -5 -4 42 0 47 2 66 4 43 2 -24 2 -62 0
-85z m20 0 c-2 -24 -4 -5 -4 42 0 47 2 66 4 43 2 -24 2 -62 0 -85z m1243 83
c47 -104 86 -176 97 -176 6 0 15 -4 20 -9 5 -5 3 -6 -4 -2 -18 10 -16 -9 2
-24 10 -9 15 -9 15 -1 0 6 11 11 25 11 18 0 31 -9 43 -30 18 -31 26 -33 162
-32 34 1 34 0 6 -6 -18 -4 13 -8 77 -9 59 -1 107 3 107 8 0 5 19 7 43 4 96
-10 202 -13 172 -4 -19 5 11 7 85 4 90 -3 106 -1 75 7 -22 5 -82 8 -132 6 -51
-2 -93 0 -93 4 0 4 61 8 135 8 l135 0 0 -99 c0 -63 -4 -102 -11 -107 -21 -13
-30 21 -24 89 l6 67 -38 1 c-21 0 -202 1 -403 2 -201 0 -342 3 -315 6 35 4 45
8 32 14 -10 4 -27 7 -37 7 -13 0 -20 9 -23 28 -4 25 -4 25 -6 -5 -1 -33 -8
-38 -56 -34 -24 2 -77 58 -134 143 -35 52 -42 69 -37 97 6 36 33 73 50 68 6
-2 18 -18 26 -36z m-300 14 c0 -11 -19 -15 -87 -17 l-88 -3 -6 -30 c-6 -28 -7
-27 -8 11 0 22 2 44 6 47 3 4 46 7 95 7 70 0 88 -3 88 -15z m-920 -85 l-7 -55
-2 65 c0 36 3 60 8 55 4 -6 5 -35 1 -65z m2070 -30 c0 -60 -4 -100 -10 -100
-6 0 -10 40 -10 100 0 60 4 100 10 100 6 0 10 -40 10 -100z m-30 -5 c0 -57 -4
-95 -10 -95 -6 0 -10 38 -10 95 0 57 4 95 10 95 6 0 10 -38 10 -95z m-994 60
c7 -17 -14 -48 -26 -40 -5 3 -11 0 -13 -5 -3 -6 -4 -5 -2 2 1 7 8 12 14 10 7
-1 10 7 7 23 -5 27 11 35 20 10z m254 -47 c0 -59 -2 -59 -29 5 l-20 47 24 0
c23 0 25 -3 25 -52z m856 -43 c23 23 34 18 34 -15 0 -16 0 -33 0 -37 0 -5 -9
-8 -21 -8 -15 0 -24 10 -34 39 -8 22 -11 44 -7 50 4 6 8 -1 10 -17 3 -24 5
-25 18 -12z m-288 -62 l3 -53 -40 0 -41 0 0 56 0 55 38 -3 37 -3 3 -52z
m-2100 -241 c31 4 80 6 107 3 38 -3 44 -2 25 5 -19 7 -9 8 35 5 33 -2 50 -1
38 1 -21 5 -23 11 -23 65 0 32 -4 59 -9 59 -6 0 -7 -24 -4 -55 5 -47 3 -55
-11 -55 -13 0 -16 11 -16 60 l0 60 31 0 31 0 -4 -60 c-3 -55 -1 -60 21 -65 13
-3 49 -3 80 1 31 3 53 3 48 -1 -6 -8 -113 -23 -257 -39 -42 -4 -48 -3 -25 4
27 8 25 9 -12 5 -24 -3 -61 -8 -83 -11 l-40 -7 2 159 2 159 3 -151 4 -151 57
9z m227 270 l120 4 -1 -115 -2 -116 -38 3 c-31 2 -36 0 -24 -9 13 -9 12 -10
-3 -5 -10 3 -30 6 -43 6 -23 0 -24 3 -24 60 0 60 0 60 29 60 29 0 30 -2 34
-52 3 -50 3 -49 5 15 l2 67 -47 -2 -48 -1 45 -7 c44 -7 44 -7 10 -10 -19 -1
-50 -3 -67 -5 -23 -2 -33 2 -33 12 0 10 6 12 20 8 11 -4 20 -2 20 4 0 7 -40
11 -115 11 l-115 0 0 43 0 43 78 -9 c42 -4 131 -7 197 -5z m1238 -47 l28 -35
-50 0 -51 0 17 35 c9 19 19 35 22 35 3 0 19 -16 34 -35z m275 8 c-3 -24 -8
-28 -40 -31 -29 -2 -38 1 -38 12 0 18 -13 27 -54 37 -22 5 -7 7 52 8 l83 1 -3
-27z m42 15 c0 -9 4 -8 11 2 7 12 9 8 7 -15 -2 -22 -9 -31 -25 -33 -20 -3 -23
1 -23 27 0 21 5 31 15 31 8 0 15 -6 15 -12z m50 -18 c0 -16 -4 -30 -10 -30 -5
0 -10 14 -10 30 0 17 5 30 10 30 6 0 10 -13 10 -30z m134 -36 c26 -10 18 -24
-14 -24 -20 0 -30 5 -30 15 0 16 17 19 44 9z m-1864 -14 c0 -6 -32 -10 -75
-10 -43 0 -75 4 -75 10 0 6 32 10 75 10 43 0 75 -4 75 -10z m30 -70 c0 -47 -4
-80 -10 -80 -6 0 -10 33 -10 80 0 47 4 80 10 80 6 0 10 -33 10 -80z m865 70
c-11 -5 -47 -8 -80 -8 -56 1 -57 1 -20 8 60 11 125 11 100 0z m509 -9 c4 -5
-22 -11 -56 -13 -70 -4 -73 -4 -63 11 8 13 112 15 119 2z m-1404 -80 l0 -68
-52 -7 c-101 -12 -98 -13 -98 49 l0 55 73 2 72 2 -72 3 c-56 3 -73 7 -73 18 0
12 16 15 75 15 l75 0 0 -69z m1923 42 c-177 -2 -469 -2 -650 0 -180 1 -35 2
322 2 358 0 505 -1 328 -2z m322 -23 c4 -7 -262 -10 -789 -10 -524 0 -796 3
-796 10 0 14 1576 14 1585 0z m15 -66 c-7 -7 -8 -14 -3 -14 5 0 15 -11 21 -25
15 -32 16 -56 2 -35 -8 13 -10 12 -10 -2 0 -10 5 -18 10 -18 6 0 10 -10 10
-22 0 -17 3 -19 12 -10 17 17 29 15 22 -3 -8 -20 -31 -19 -42 1 -6 10 -14 14
-22 9 -10 -6 -9 -10 4 -17 9 -5 14 -13 11 -18 -8 -14 57 8 68 22 6 9 7 7 3 -5
-3 -10 -6 -28 -6 -40 0 -18 -2 -19 -10 -7 -8 13 -10 12 -10 -2 0 -13 -9 -18
-32 -19 -31 -1 -32 -1 -8 -9 23 -7 23 -8 -9 -9 -26 -1 -32 2 -27 14 3 8 2 15
-3 15 -4 0 -13 -19 -18 -42 l-11 -43 -1 58 c-1 44 2 57 14 57 8 0 15 5 15 10
0 7 -6 7 -19 0 -11 -5 -38 -10 -60 -10 l-41 0 0 105 0 105 44 0 43 0 7 -46
c10 -73 7 -106 -9 -118 -13 -9 -11 -11 9 -11 20 0 24 4 21 25 -2 14 -6 53 -9
87 -5 58 -4 62 17 65 26 4 36 -25 17 -48z m-1583 -406 c-1 -84 -3 -16 -3 152
0 168 2 236 3 153 2 -84 2 -222 0 -305z m1391 170 l-3 -283 -2 277 -3 278
-673 3 -672 2 678 3 677 2 -2 -282z m42 -29 c-1 -221 -4 -309 -12 -301 -7 7
-12 116 -14 311 -3 263 -2 301 11 301 14 0 15 -41 15 -311z m-1350 196 c0 -88
-1 -95 -20 -95 -19 0 -20 7 -20 95 0 88 1 95 20 95 19 0 20 -7 20 -95z m130
-40 c0 -83 -4 -135 -10 -135 -6 0 -10 51 -10 133 0 82 -4 126 -10 117 -10 -18
-18 -323 -8 -307 6 9 8 9 8 0 0 -7 -9 -17 -20 -23 -20 -11 -20 -8 -20 170 l0
180 35 0 35 0 0 -135z m30 21 l0 -114 88 -6 c48 -4 103 -8 123 -8 26 -2 35 -6
32 -15 -4 -10 -33 -13 -109 -13 -92 0 -104 2 -105 18 -1 16 -2 16 -6 0 -2 -10
-13 -18 -24 -18 -18 0 -19 8 -19 135 0 83 4 135 10 135 6 0 10 -45 10 -114z
m27 74 c-3 -24 -1 -38 4 -34 6 3 7 -5 4 -19 -5 -19 1 -32 24 -56 17 -18 31
-34 31 -36 0 -3 -18 -5 -40 -5 l-40 0 0 95 c0 64 4 95 11 95 8 0 10 -14 6 -40z
m31 -24 c-1 -35 -5 -63 -9 -61 -7 5 -10 106 -3 117 12 19 15 4 12 -56z m91
-112 l9 -34 -76 2 c-71 2 -72 2 -19 5 l58 4 -26 30 c-21 26 -25 41 -25 94 0
62 1 64 28 67 27 3 27 2 34 -66 4 -37 12 -84 17 -102z m41 144 c0 -25 -3 -29
-10 -18 -7 11 -10 12 -10 2 0 -7 7 -20 15 -28 8 -9 15 -27 15 -40 0 -33 25
-81 49 -94 26 -13 87 -13 114 1 21 11 21 11 5 -7 -12 -12 -31 -18 -55 -17 -21
1 -66 2 -100 3 -54 2 -60 4 -48 17 11 10 19 11 34 3 32 -17 36 -12 7 11 -14
11 -26 28 -26 37 0 15 -2 15 -11 2 -9 -12 -10 -12 -5 4 4 11 3 47 -1 80 -7 57
-8 59 -14 26 l-6 -35 -2 37 c-1 31 3 37 22 41 12 2 23 5 25 6 1 0 2 -14 2 -31z
m248 -6 c4 -36 -20 -106 -44 -134 -18 -19 -3 -34 23 -24 11 5 14 2 9 -10 -3
-8 -6 -27 -6 -40 0 -23 -2 -24 -80 -24 -64 0 -80 3 -80 15 0 17 5 17 35 6 12
-5 26 -4 34 3 12 9 13 8 6 -4 -6 -11 -3 -10 12 3 11 9 29 17 41 17 21 0 21 1
5 19 -12 15 -21 17 -40 10 -30 -11 -90 -12 -97 -1 -3 5 15 9 39 9 57 0 92 24
116 81 16 37 18 54 11 77 -10 29 -10 29 -12 -15 l-3 -45 -7 45 -7 45 -1 -46
c-2 -44 -4 -47 -31 -51 -25 -4 -31 0 -36 21 -3 14 -8 34 -11 43 -4 13 3 18 28
21 18 2 -1 4 -42 4 -41 0 -59 -2 -39 -4 34 -4 38 -8 47 -46 13 -50 6 -57 -55
-57 -48 0 -59 16 -15 23 25 4 25 4 -5 6 -36 1 -37 2 -24 49 6 20 6 30 0 27 -5
-4 -9 -1 -9 5 0 7 38 10 118 8 l117 -3 3 -33z m352 -57 l0 -95 -110 0 -111 0
8 38 c16 81 0 126 -50 141 -24 7 7 9 116 10 l147 1 0 -95z m40 0 c0 -78 -3
-95 -15 -95 -12 0 -15 17 -15 95 0 78 3 95 15 95 12 0 15 -17 15 -95z m230 80
c0 -11 -13 -15 -52 -17 l-53 -1 50 -6 c49 -6 50 -7 50 -41 0 -31 -3 -35 -37
-43 -33 -8 -38 -13 -38 -38 0 -19 -5 -29 -15 -29 -12 0 -15 16 -15 80 0 44 -3
80 -7 80 -5 0 -7 -21 -6 -47 0 -27 2 -65 2 -85 1 -30 5 -37 24 -41 12 -2 -72
-4 -188 -3 l-210 0 180 6 c99 3 161 7 138 8 l-43 2 0 95 0 95 110 0 c91 0 110
-3 110 -15z m70 -71 l0 -87 -60 7 -60 7 -1 -48 c-1 -26 -4 -73 -9 -103 -6 -47
-7 -39 -9 57 l-1 111 33 8 c17 4 48 7 67 7 28 0 30 0 8 4 -27 4 -28 7 -28 64
0 59 0 59 30 59 l30 0 0 -86z m-618 66 c73 -21 78 -87 17 -199 -23 -42 -54
-90 -69 -108 -15 -17 -30 -37 -32 -45 -12 -31 -18 3 -9 48 5 27 13 69 16 94 5
38 12 50 50 79 25 18 45 38 45 43 0 5 -21 -8 -47 -30 -27 -22 -56 -42 -65 -45
-30 -11 -20 13 13 31 17 9 41 25 53 34 l21 17 -30 1 c-30 0 -30 1 -27 45 4 49
8 50 64 35z m-1190 -105 c-4 -56 -4 -56 -22 -35 -11 12 -21 27 -24 33 -3 9 -6
9 -13 0 -4 -6 -42 -14 -83 -17 -138 -11 -160 -16 -160 -37 0 -16 -8 -19 -45
-19 l-45 0 0 49 c0 44 2 49 26 55 14 4 40 4 57 1 18 -3 77 1 132 9 55 8 118
14 140 15 l40 1 -3 -55z m-405 -252 c-1 -54 -3 -12 -3 92 0 105 2 149 3 98 2
-51 2 -136 0 -190z m1457 226 c-26 -28 -33 -30 -89 -27 -52 3 -60 6 -60 23 0
17 9 21 62 28 34 4 72 11 85 16 34 13 35 -6 2 -40z m-1114 -9 c0 -5 3 -9 8 -9
34 6 45 -15 12 -24 -11 -3 -18 -1 -14 4 3 5 0 9 -5 9 -11 0 -15 -12 -12 -43 2
-10 -8 -21 -21 -26 l-23 -10 23 0 c13 -1 20 -5 17 -11 -4 -6 -3 -10 2 -9 4 1
117 1 251 0 162 -1 242 -4 242 -12 0 -7 -47 -9 -140 -7 -77 2 -140 -1 -140 -5
0 -8 -85 -49 -127 -61 -20 -6 -21 -5 -13 31 9 38 5 57 -8 36 -8 -13 -114 -64
-120 -58 -2 2 -4 45 -5 94 0 50 -4 91 -10 91 -5 0 -7 -41 -5 -97 l3 -98 -27
-1 -28 -1 0 101 0 102 37 2 c21 2 39 5 42 7 9 9 61 5 61 -5z m78 -38 c-12 -15
-11 -16 5 -3 9 7 36 14 58 15 l41 2 -22 -18 c-16 -13 -34 -17 -61 -14 -25 3
-39 0 -40 -7 0 -8 -2 -9 -5 -1 -3 6 -17 10 -32 8 -23 -3 -22 -2 7 8 19 6 38
22 44 37 10 20 13 21 15 7 2 -9 -2 -25 -10 -34z m-235 21 c-9 -3 -13 -35 -13
-109 0 -76 -3 -104 -12 -104 -10 0 -10 -2 0 -8 8 -6 2 -9 -18 -9 l-30 0 0 119
0 118 43 -1 c23 0 36 -3 30 -6z m604 -30 c-20 -2 -52 -2 -70 0 -17 2 0 4 38 4
39 0 53 -2 32 -4z m862 -226 c0 -4 16 -21 33 -38 20 -18 27 -29 18 -29 -8 0
-25 -3 -37 -6 -18 -5 -23 -2 -23 11 0 12 4 15 13 9 7 -5 5 -1 -5 8 -11 9 -26
38 -35 63 -13 39 -14 56 -3 108 22 114 24 114 31 -3 3 -63 7 -119 8 -123z
m561 223 c0 -7 -19 -8 -52 -4 -71 9 -73 14 -5 14 33 0 57 -4 57 -10z m150 0
c0 -5 -18 -10 -40 -10 -22 0 -40 5 -40 10 0 6 18 10 40 10 22 0 40 -4 40 -10z
m-2268 -102 c1 -57 -1 -105 -6 -107 -4 -2 -3 -7 4 -11 7 -4 0 -7 -17 -7 -15 0
-36 -3 -45 -7 -17 -8 -18 1 -18 113 l0 121 39 0 39 0 4 -102z m95 -30 c-2 -24
-4 -5 -4 42 0 47 2 66 4 43 2 -24 2 -62 0 -85z m526 112 c100 0 107 -1 107
-20 0 -19 -7 -20 -238 -20 -131 0 -241 3 -245 6 -3 3 -3 12 0 19 3 10 18 12
51 8 26 -3 63 0 82 6 19 6 58 8 85 6 28 -3 98 -5 158 -5z m207 -15 c0 -18 -5
-25 -20 -25 -15 0 -20 7 -20 25 0 18 5 25 20 25 15 0 20 -7 20 -25z m1140 -2
l0 -23 -205 0 c-197 0 -205 1 -205 20 0 18 8 20 158 22 267 5 252 6 252 -19z
m150 -4 c0 -16 -8 -19 -55 -19 -50 0 -55 2 -55 23 0 21 4 22 55 19 46 -3 55
-7 55 -23z m-610 -52 c-8 -39 -45 -117 -55 -117 -5 0 31 111 45 143 18 38 23
28 10 -26z m-500 0 c0 -13 -11 -33 -25 -45 -24 -21 -25 -21 -35 -2 -5 10 -10
30 -10 44 0 23 4 26 35 26 30 0 35 -3 35 -23z m388 -19 c-5 -23 -10 -43 -11
-45 -1 -1 -30 8 -65 20 -51 18 -62 26 -62 44 0 22 4 23 74 23 l74 0 -10 -42z
m722 32 c0 -6 -27 -10 -60 -10 -33 0 -60 4 -60 10 0 6 27 10 60 10 33 0 60 -4
60 -10z m-870 -21 c0 -25 -33 -22 -38 4 -2 12 3 17 17 17 15 0 21 -6 21 -21z
m208 -46 c-6 -21 -13 -42 -16 -48 -4 -5 -5 -20 -3 -32 3 -26 -16 -31 -25 -8
-4 8 -15 15 -26 15 -11 0 -18 5 -15 13 2 6 16 11 30 9 14 -1 29 3 33 9 4 8 -1
9 -17 5 -13 -3 -19 -3 -12 0 7 3 22 21 33 40 12 19 23 34 25 34 2 0 -1 -17 -7
-37z m-264 -13 c4 -4 3 -16 -3 -27 -11 -16 -11 -15 -6 7 l6 25 -18 -21 c-11
-14 -35 -24 -65 -28 -64 -10 -62 7 5 33 28 11 47 20 40 20 -6 1 -46 -13 -88
-30 -42 -17 -79 -28 -82 -26 -2 3 31 19 74 36 74 29 115 32 137 11z m118 11
c-10 -6 -5 -11 19 -20 43 -15 50 -13 19 4 -30 17 -21 20 14 4 22 -10 23 -13
10 -26 -9 -10 -14 -31 -13 -59 3 -47 -13 -78 -25 -49 -3 10 -2 14 5 9 12 -7
-11 41 -47 98 -21 33 -22 37 -6 41 29 8 38 7 24 -2z m196 -40 c8 -23 7 -31 -4
-35 -10 -4 -12 -2 -8 6 5 7 2 9 -9 5 -13 -5 -14 -2 -5 24 5 16 11 29 13 29 2
0 8 -13 13 -29z m-110 -63 c-2 -13 -7 -23 -13 -23 -5 0 -11 10 -13 23 -2 15 2
22 13 22 11 0 15 -7 13 -22z m-1491 -110 c-2 -18 -4 -4 -4 32 0 36 2 50 4 33
2 -18 2 -48 0 -65z"/>
<path d="M254 1710 c0 -58 1 -81 3 -52 2 28 2 76 0 105 -2 28 -3 5 -3 -53z"/>
<path d="M392 1650 l2 -105 3 88 c2 48 7 86 11 83 4 -2 23 -1 42 4 l35 8 -35
1 c-20 1 -41 6 -48 13 -9 9 -12 -11 -10 -92z"/>
<path d="M341 1375 c0 -12 7 -37 18 -57 11 -23 15 -40 9 -46 -6 -6 7 -11 35
-13 25 -2 43 -1 40 4 -2 4 1 7 8 7 7 0 4 6 -6 14 -11 8 -24 12 -29 8 -5 -3 -7
2 -3 11 4 11 2 14 -8 10 -8 -3 -12 -9 -9 -14 3 -5 -2 -6 -10 -3 -9 3 -13 10
-10 15 3 5 1 9 -4 9 -5 0 -13 17 -19 38 -6 22 -11 29 -12 17z"/>
<path d="M230 1005 c0 -63 4 -105 10 -105 6 0 10 42 10 105 0 63 -4 105 -10
105 -6 0 -10 -42 -10 -105z"/>
<path d="M1823 585 c0 -33 2 -45 4 -27 2 18 2 45 0 60 -2 15 -4 0 -4 -33z"/>
<path d="M1883 585 c0 -33 2 -45 4 -27 2 18 2 45 0 60 -2 15 -4 0 -4 -33z"/>
<path d="M1940 575 c0 -35 -22 -50 -33 -22 -3 6 -6 2 -6 -9 -1 -17 4 -20 24
-16 22 4 25 10 25 43 0 22 -2 39 -5 39 -3 0 -5 -16 -5 -35z"/>
<path d="M2053 575 c0 -38 2 -53 4 -32 2 20 2 52 0 70 -2 17 -4 1 -4 -38z"/>
<path d="M2080 606 c4 -19 5 -46 3 -59 -3 -14 0 -33 6 -44 8 -14 10 -5 11 44
0 63 -6 93 -20 93 -4 0 -4 -15 0 -34z"/>
<path d="M241 379 c-1 -58 1 -89 8 -89 13 0 15 166 3 174 -5 3 -9 -35 -11 -85z"/>
<path d="M2565 1655 c0 -324 1 -456 2 -292 2 164 2 430 0 590 -1 161 -2 27 -2
-298z"/>
<path d="M2625 1690 c0 -305 1 -430 2 -277 2 152 2 402 0 555 -1 152 -2 27 -2
-278z"/>
<path d="M2706 1718 c3 -556 3 -559 54 -557 l25 0 -25 10 c-36 14 -40 26 -40
112 0 63 3 77 16 77 13 0 15 -13 12 -85 -2 -47 0 -85 5 -85 4 0 7 41 7 90 0
83 -1 90 -20 90 -19 0 -20 7 -20 100 0 81 3 100 14 100 8 0 28 12 43 26 l28
26 -32 -21 c-65 -43 -62 -56 -66 307 -2 180 -3 95 -1 -190z"/>
<path d="M2872 1653 c-2 -513 0 -593 13 -593 7 0 19 -8 25 -17 11 -17 11 -17
6 0 -3 10 -6 21 -6 23 0 2 -7 4 -15 4 -13 0 -15 75 -18 588 l-2 587 -3 -592z"/>
<path d="M2106 2082 c-2 -4 32 -6 77 -5 45 1 88 -2 96 -7 8 -4 25 -3 39 3 17
8 28 8 41 0 12 -7 23 -8 32 -2 12 8 12 10 -1 8 -8 -1 -23 1 -33 6 -10 4 -29 3
-41 -3 -13 -5 -29 -7 -36 -2 -15 9 -168 11 -174 2z"/>
<path d="M533 2046 c-16 -14 -49 -27 -76 -31 -25 -4 -52 -15 -59 -24 -11 -14
-11 -14 2 -4 8 6 37 14 63 18 31 5 57 16 72 31 13 13 33 24 43 24 22 0 75 -22
112 -47 l25 -17 -21 22 c-24 23 -87 52 -114 52 -10 0 -31 -11 -47 -24z"/>
<path d="M1794 2025 c-10 -8 -14 -15 -7 -15 6 0 15 5 18 10 8 13 51 13 78 -1
21 -10 21 -10 3 5 -25 20 -66 20 -92 1z"/>
<path d="M1728 1971 c-15 -13 -45 -21 -79 -24 l-54 -3 56 -2 c45 -2 61 3 89
23 19 14 29 25 23 25 -6 0 -21 -9 -35 -19z"/>
<path d="M2835 1960 c-10 -11 -27 -20 -37 -20 -11 0 -31 -9 -45 -20 -14 -11
-21 -20 -16 -20 6 0 16 7 23 15 7 8 24 15 39 15 16 1 33 10 44 25 22 30 17 33
-8 5z"/>
<path d="M1489 1919 l-24 -21 26 15 c14 9 44 17 65 20 l39 4 -41 1 c-30 2 -48
-4 -65 -19z"/>
<path d="M1408 1919 l32 -10 0 -93 0 -93 38 1 c44 1 52 -24 12 -35 -20 -6 -21
-7 -5 -8 11 0 28 6 37 13 17 12 17 14 -2 31 -12 11 -29 16 -45 13 l-25 -5 2
84 c3 74 1 86 -16 99 -11 8 -29 14 -40 13 -14 -1 -10 -4 12 -10z"/>
<path d="M963 1896 c-15 -12 -35 -21 -43 -19 -13 4 -13 3 -1 -6 11 -7 23 -3
44 15 32 27 65 31 73 9 4 -8 15 -15 27 -15 11 0 28 -6 36 -14 11 -9 22 -11 36
-5 19 9 19 9 -2 5 -12 -2 -27 2 -34 10 -6 8 -19 14 -29 14 -10 0 -23 7 -30 15
-18 21 -44 19 -77 -9z"/>
<path d="M717 1889 c-9 -5 -36 -14 -60 -18 -35 -7 -37 -9 -12 -10 27 0 125 37
100 38 -5 0 -18 -4 -28 -10z"/>
<path d="M566 1865 c-27 -9 -46 -11 -64 -4 -14 5 -29 6 -33 2 -4 -4 4 -9 18
-10 14 0 29 -6 32 -12 5 -8 13 -7 27 4 10 8 27 15 36 15 9 0 20 5 23 10 7 12
9 12 -39 -5z"/>
<path d="M2391 1830 c-2 -19 -2 -47 -1 -62 1 -23 -2 -27 -17 -22 -17 5 -17 5
0 -6 10 -7 21 -10 23 -7 3 3 3 33 1 68 -2 38 -4 50 -6 29z"/>
<path d="M871 1813 c-16 -36 -13 -39 10 -9 15 19 30 26 54 26 19 0 37 -4 40
-10 3 -5 21 -9 38 -9 l32 2 -30 4 c-16 3 -35 9 -42 14 -6 6 -29 9 -51 8 -32
-2 -43 -8 -51 -26z"/>
<path d="M2963 1818 l-33 -23 3 -440 2 -440 5 440 5 440 5 -480 5 -480 5 490
5 490 3 -512 c1 -337 -1 -513 -8 -513 -5 0 -10 -6 -10 -14 0 -8 -10 -17 -22
-19 -20 -4 -19 -4 5 -6 19 -1 27 4 27 16 0 9 3 14 6 10 4 -3 3 -14 -1 -24 -5
-10 -7 -22 -6 -27 1 -5 -17 -6 -41 -3 -29 4 -36 3 -23 -3 11 -5 32 -9 47 -9
16 -1 28 -8 31 -18 3 -10 5 239 6 553 1 429 4 573 13 582 19 19 6 14 -29 -10z"/>
<path d="M1770 1765 c0 -44 -4 -57 -20 -67 -11 -7 -20 -17 -20 -22 0 -5 8 -2
18 7 10 10 22 14 25 10 4 -3 7 24 7 60 0 37 -2 67 -5 67 -3 0 -5 -25 -5 -55z"/>
<path d="M676 1764 c-6 -26 -11 -31 -29 -26 -12 2 -27 9 -34 14 -11 9 -53 -5
-53 -18 0 -2 9 0 19 6 14 7 27 6 48 -5 15 -8 31 -15 36 -15 10 0 29 50 24 64
-2 6 -7 -3 -11 -20z"/>
<path d="M1562 1725 c-1 -32 1 -45 7 -36 7 10 15 4 36 -27 15 -22 24 -46 20
-51 -3 -6 -1 -11 4 -11 17 0 13 30 -9 57 -11 14 -17 30 -13 36 3 5 1 7 -4 4
-15 -9 -30 12 -36 48 -3 20 -4 14 -5 -20z"/>
<path d="M978 1699 c16 -17 138 -18 167 -1 17 10 14 10 -15 4 -46 -9 -120 -8
-145 2 -17 8 -18 7 -7 -5z"/>
<path d="M1670 1649 c0 -21 -4 -28 -12 -23 -10 6 -10 4 0 -7 6 -7 12 -21 12
-30 0 -20 -27 -33 -34 -16 -3 7 -2 -35 1 -93 3 -58 7 -107 9 -109 2 -2 4 39 4
92 0 80 3 97 15 97 12 0 15 13 15 60 0 33 -2 60 -5 60 -3 0 -5 -14 -5 -31z"/>
<path d="M2304 1575 c0 -60 1 -84 3 -52 2 32 2 81 0 110 -2 29 -3 3 -3 -58z"/>
<path d="M2333 1673 c-7 -2 -12 -17 -12 -31 2 -24 2 -24 6 -5 3 13 14 25 26
28 12 2 31 6 42 8 11 3 4 5 -15 5 -19 0 -41 -2 -47 -5z"/>
<path d="M1500 1623 c-28 -45 -30 -53 -28 -143 l2 -95 3 93 c3 81 7 99 33 142
38 64 30 65 -10 3z"/>
<path d="M1704 1475 c0 -99 2 -138 3 -87 2 51 2 132 0 180 -1 48 -3 6 -3 -93z"/>
<path d="M2257 1643 c-4 -3 -6 -65 -5 -137 l2 -131 5 135 c7 150 7 142 -2 133z"/>
<path d="M2344 1460 c0 -107 2 -151 3 -97 2 53 2 141 0 195 -1 53 -3 9 -3 -98z"/>
<path d="M1533 1560 c0 -41 2 -58 4 -37 2 20 2 54 0 75 -2 20 -4 3 -4 -38z"/>
<path d="M2277 1556 c-4 -43 -6 -122 -6 -175 2 -83 3 -75 11 64 9 174 6 237
-5 111z"/>
<path d="M1427 1596 c-22 -18 -28 -29 -24 -52 l4 -29 2 31 c1 24 9 35 39 52
20 12 30 21 22 21 -8 0 -28 -10 -43 -23z"/>
<path d="M1046 1594 c-19 -11 -40 -14 -65 -9 -55 10 -36 0 74 -40 55 -20 95
-32 90 -27 -6 5 -34 17 -62 28 -29 10 -53 21 -53 24 0 4 15 14 33 23 17 8 28
16 22 16 -5 0 -23 -7 -39 -15z"/>
<path d="M1514 1495 c0 -55 1 -76 3 -47 2 29 2 74 0 100 -2 26 -3 2 -3 -53z"/>
<path d="M1883 1480 c0 -36 2 -50 4 -32 2 17 2 47 0 65 -2 17 -4 3 -4 -33z"/>
<path d="M600 1521 c22 -6 25 -13 28 -63 2 -47 0 -57 -15 -61 -17 -4 -17 -5 0
-6 9 0 18 -7 19 -13 1 -7 4 21 8 62 4 50 7 0 8 -149 2 -219 2 -223 -18 -218
-18 5 -20 0 -20 -48 0 -53 0 -54 -32 -58 l-33 -4 33 -1 c29 -2 32 -5 32 -34 0
-17 3 -29 6 -25 4 3 6 40 5 82 -1 69 0 75 19 75 19 0 20 6 20 218 l0 219 33
-3 c17 -2 23 -1 12 2 -11 3 -37 12 -58 20 -20 8 -45 14 -55 13 -10 -1 -7 -4 8
-8z"/>
<path d="M1414 1390 c0 -63 1 -89 3 -57 2 31 2 83 0 115 -2 31 -3 5 -3 -58z"/>
<path d="M543 1430 c0 -36 2 -50 4 -32 2 17 2 47 0 65 -2 17 -4 3 -4 -33z"/>
<path d="M2395 1443 c16 -3 32 -8 35 -13 3 -4 11 -2 18 6 11 12 5 14 -35 13
-34 -2 -39 -3 -18 -6z"/>
<path d="M1383 1355 c0 -44 2 -61 4 -37 2 23 2 59 0 80 -2 20 -4 1 -4 -43z"/>
<path d="M1826 1393 c-3 -4 -6 -33 -6 -66 0 -73 10 -71 11 1 2 68 17 67 22 0
l3 -53 2 56 c1 41 -2 58 -12 62 -8 3 -17 3 -20 0z"/>
<path d="M1773 1335 c0 -33 2 -45 4 -27 2 18 2 45 0 60 -2 15 -4 0 -4 -33z"/>
<path d="M1888 1368 c-2 -13 -1 -39 3 -58 5 -30 7 -26 8 23 1 58 -4 74 -11 35z"/>
<path d="M1947 1353 c-3 -5 -1 -26 3 -48 l8 -40 1 48 c1 45 -2 56 -12 40z"/>
<path d="M617 1213 c-3 -54 -2 -101 2 -105 3 -4 8 40 9 97 2 58 2 105 -1 105
-2 0 -7 -44 -10 -97z"/>
<path d="M1090 1249 c-7 -11 -9 -27 -6 -36 4 -9 -6 -26 -24 -43 -16 -15 -30
-31 -30 -34 0 -4 10 2 22 14 16 15 24 17 30 8 12 -20 9 -48 -4 -48 -9 0 -10
-3 -2 -8 6 -4 14 -14 18 -22 3 -8 4 10 2 40 -4 69 1 88 20 63 12 -17 13 -16 7
5 -3 12 -12 22 -19 22 -26 0 -13 42 16 53 12 4 12 6 -2 6 -10 1 -22 -8 -28
-20z"/>
<path d="M2424 1155 c0 -55 1 -76 3 -47 2 29 2 74 0 100 -2 26 -3 2 -3 -53z"/>
<path d="M903 1223 c-4 -10 -11 -21 -17 -25 -6 -4 1 -8 16 -8 24 0 27 -4 31
-42 l4 -43 1 48 c2 36 -2 47 -13 47 -8 0 -15 7 -15 15 0 10 10 15 34 15 33 0
35 -2 39 -37 l4 -38 1 43 2 42 -40 0 c-30 0 -42 -5 -47 -17z"/>
<path d="M2478 1163 c6 -65 10 -70 11 -15 0 28 -3 52 -7 52 -4 0 -6 -17 -4
-37z"/>
<path d="M1008 1038 c-1 -108 -3 -137 -8 -98 l-7 55 -1 -57 c-2 -46 1 -58 13
-58 13 0 15 24 15 155 0 85 -2 155 -5 155 -3 0 -6 -69 -7 -152z"/>
<path d="M2226 1076 c-17 -36 -21 -142 -4 -111 5 8 7 28 3 43 -3 16 -1 39 5
53 9 20 10 18 5 -16 -5 -31 -3 -37 6 -25 9 13 10 12 5 -3 -9 -27 3 -40 21 -25
8 6 22 13 31 14 42 7 59 15 59 29 0 8 -2 15 -3 15 -12 0 -63 -27 -81 -44 -27
-23 -30 -11 -7 22 8 12 22 21 29 20 8 -2 14 0 14 5 3 34 -2 35 -30 5 l-31 -33
6 43 c7 51 -6 55 -28 8z"/>
<path d="M2706 1090 c-10 -11 -22 -17 -26 -15 -9 5 5 -63 14 -72 3 -4 9 -3 14
2 4 4 1 10 -5 12 -20 7 -16 35 5 31 11 -2 16 -11 14 -28 -2 -22 0 -20 12 7 11
24 20 31 33 27 15 -5 16 -4 3 5 -12 8 -5 11 28 11 27 0 41 -4 37 -10 -4 -6
-15 -8 -25 -5 -11 4 -20 -1 -24 -11 -5 -14 -4 -15 9 -4 12 10 15 10 15 -4 0
-9 -8 -16 -19 -16 -22 0 -36 -40 -19 -51 7 -4 20 -3 29 2 10 5 31 9 48 9 20 0
31 5 31 14 0 8 6 16 13 19 6 2 0 6 -16 9 -15 3 -30 1 -33 -3 -3 -5 2 -9 10 -9
9 0 16 -5 16 -11 0 -7 -12 -9 -30 -7 -17 3 -33 1 -36 -4 -7 -10 -24 -1 -24 14
0 6 11 8 25 6 21 -4 24 -2 20 12 -3 9 1 23 10 30 21 18 19 30 -7 30 -13 0 -32
7 -42 15 -26 20 -57 18 -80 -5z m74 0 c12 -8 11 -10 -6 -10 -12 0 -24 -7 -28
-15 -6 -17 -26 -20 -26 -5 0 14 22 39 35 39 6 1 17 -4 25 -9z"/>
<path d="M926 1008 c-3 -13 -6 -33 -6 -45 0 -16 -7 -23 -27 -26 l-28 -4 28 -2
c29 -1 29 -1 25 -61 -1 -33 0 -60 4 -60 5 0 17 209 12 218 -1 1 -4 -8 -8 -20z"/>
<path d="M953 965 c0 -38 2 -53 4 -32 2 20 2 52 0 70 -2 17 -4 1 -4 -38z"/>
<path d="M2825 940 c-8 -12 5 -80 15 -80 4 0 5 12 2 26 -3 16 1 30 9 36 11 8
10 8 -5 4 -13 -5 -17 -2 -12 9 6 17 0 20 -9 5z"/>
<path d="M618 854 c4 -31 2 -33 -34 -37 l-39 -4 43 -1 c40 -2 42 -1 42 27 0
20 6 31 18 33 12 3 10 5 -8 9 -24 5 -25 3 -22 -27z"/>
<path d="M2803 842 c-23 -2 -30 -7 -27 -17 5 -11 -3 -14 -30 -12 -19 2 -45 -2
-58 -10 -13 -7 -18 -13 -13 -13 6 -1 29 -5 53 -9 23 -5 45 -5 47 0 3 4 -9 10
-27 12 -29 3 -28 4 10 5 42 2 51 -5 32 -24 -7 -7 0 -9 22 -5 19 3 26 6 16 9
-41 9 -13 20 40 17 63 -5 53 0 -20 10 -27 3 -48 10 -48 14 0 14 39 20 44 7 3
-8 5 -8 5 1 1 16 -8 19 -46 15z"/>
<path d="M2893 698 c16 -7 25 -18 23 -25 -3 -8 2 -13 15 -13 19 0 19 1 2 19
-10 10 -29 21 -43 24 -22 6 -22 5 3 -5z"/>
<path d="M650 690 c0 -6 18 -7 44 -4 l45 7 4 -54 3 -54 2 58 2 57 -50 0 c-27
0 -50 -4 -50 -10z"/>
<path d="M2778 613 c-21 -2 -38 -9 -38 -14 0 -11 46 -4 85 12 21 8 15 8 -47 2z"/>
<path d="M2847 606 c-4 -9 -15 -16 -26 -16 -10 0 -33 -6 -51 -14 -25 -10 -29
-14 -15 -20 24 -9 85 -8 85 2 0 4 -17 6 -37 5 -31 -3 -35 -2 -21 7 22 13 94
18 128 8 14 -4 9 -1 -10 8 -19 9 -38 20 -41 26 -4 5 -9 3 -12 -6z"/>
<path d="M2911 513 c2 -74 0 -93 -11 -93 -5 0 -6 8 -3 17 6 15 5 16 -9 3 -9
-8 -13 -18 -10 -21 12 -11 122 -18 122 -8 0 6 -4 8 -9 5 -5 -4 -17 -3 -26 0
-13 6 -14 9 -3 16 9 6 6 7 -9 3 -25 -7 -41 11 -24 28 14 14 14 47 0 47 -7 0
-9 10 -7 25 3 14 1 25 -4 25 -4 0 -8 -21 -7 -47z"/>
<path d="M2730 513 c24 -3 48 -9 52 -16 5 -8 11 -7 22 2 8 7 20 10 27 6 8 -6
7 -10 -2 -16 -10 -6 -10 -9 -2 -9 17 0 23 14 13 30 -8 12 -13 13 -29 3 -13 -8
-22 -9 -26 -3 -3 6 -27 9 -53 8 l-47 -1 45 -4z"/>
<path d="M2786 393 c10 -10 11 -19 4 -33 -7 -13 -7 -21 0 -25 6 -4 10 -3 9 2
-6 35 15 46 24 12 3 -12 3 -19 0 -16 -8 8 -43 -26 -44 -43 -1 -8 -7 5 -14 30
-7 25 -13 38 -14 30 0 -8 4 -33 10 -55 l11 -39 16 29 16 30 7 -50 c14 -99 13
-105 -23 -106 l-33 -2 30 -4 c17 -2 44 -11 62 -19 18 -8 57 -13 95 -12 l63 1
-75 6 c-81 7 -100 14 -100 37 0 10 8 13 28 9 l27 -5 -26 10 c-20 8 -28 20 -33
48 -8 53 -7 92 3 92 23 0 20 33 -5 52 -18 14 -22 23 -14 28 7 4 2 8 -13 8 -23
0 -24 -2 -11 -15z"/>
<path d="M2845 372 c18 -18 28 -19 90 -12 78 8 77 9 -15 16 -36 3 -72 7 -80
10 -10 3 -8 -2 5 -14z"/>
<path d="M2935 170 l-50 -7 45 -1 c25 -1 52 3 60 8 8 5 11 9 5 8 -5 -1 -32 -4
-60 -8z"/>
<path d="M1938 163 c56 -2 148 -2 205 0 56 1 10 3 -103 3 -113 0 -159 -2 -102
-3z"/>
<path d="M428 73 c79 -2 205 -2 280 0 75 1 11 3 -143 3 -154 0 -216 -2 -137
-3z"/>
<path d="M1048 63 c29 -2 74 -2 100 0 26 2 2 3 -53 3 -55 0 -76 -1 -47 -3z"/>
<path d="M1858 63 c34 -2 90 -2 125 0 34 2 6 3 -63 3 -69 0 -97 -1 -62 -3z"/>
</g>
</svg>
