<?xml version="1.0" standalone="no"?>
<!DOCTYPE svg PUBLIC "-//W3C//DTD SVG 20010904//EN"
 "http://www.w3.org/TR/2001/REC-SVG-20010904/DTD/svg10.dtd">
<svg version="1.0" xmlns="http://www.w3.org/2000/svg"
 width="300.000000pt" height="224.000000pt" viewBox="0 0 300.000000 224.000000"
 preserveAspectRatio="xMidYMid meet">
<metadata>
Created by potrace 1.10, written by Peter Selinger 2001-2011
</metadata>
<g transform="translate(0.000000,224.000000) scale(0.100000,-0.100000)"
fill="#000000" stroke="none">
<path d="M82 2156 c-2 -76 -4 -87 -18 -82 -9 3 -24 6 -34 6 -10 0 -21 8 -23
18 -4 16 -5 16 -6 -1 -1 -18 4 -21 52 -31 25 -6 27 -10 27 -51 l0 -45 -42 5
c-32 4 -38 3 -23 -4 11 -5 30 -10 43 -10 22 -1 22 -2 22 -172 l0 -172 -40 7
c-22 3 -40 2 -40 -3 0 -5 28 -12 63 -15 34 -4 180 -24 325 -44 252 -36 262
-38 249 -56 -8 -11 -19 -16 -24 -13 -6 4 -134 22 -284 42 -151 19 -286 37
-301 40 -16 2 -28 0 -28 -5 0 -6 11 -10 24 -10 50 0 56 -8 56 -75 l0 -64 -42
-4 -43 -4 43 -1 c35 -2 42 -5 42 -22 0 -18 -5 -20 -42 -15 -32 4 -38 3 -23 -4
11 -5 30 -10 43 -10 21 -1 22 -5 22 -70 l0 -70 -42 -4 -43 -4 43 -1 c29 -1 42
-6 42 -16 0 -10 -14 -16 -42 -19 l-43 -4 43 -1 42 -2 0 -40 c0 -40 0 -40 -40
-40 -22 0 -40 -3 -40 -8 0 -4 18 -6 40 -4 24 3 40 0 40 -6 0 -6 -19 -13 -42
-15 l-43 -4 43 -1 42 -2 0 -64 0 -65 -42 -4 -43 -4 43 -1 c34 -2 42 -6 42 -21
0 -13 -12 -21 -43 -29 l-42 -11 43 3 c31 3 42 0 42 -10 0 -10 -12 -14 -40 -14
-22 0 -40 -5 -40 -10 0 -6 15 -8 40 -4 l40 7 0 -257 0 -256 -40 0 c-22 0 -40
-5 -40 -10 0 -10 143 -5 177 5 8 3 13 35 16 97 3 85 3 82 5 -33 l2 -127 -100
-7 c-55 -4 -100 -11 -100 -16 0 -8 126 -4 174 6 17 3 18 -4 14 -111 -2 -63 0
-114 3 -114 12 0 29 149 29 250 0 55 -7 173 -15 262 -8 90 -16 246 -17 346
l-3 184 26 22 c24 21 38 23 155 25 70 1 132 5 136 7 4 3 8 0 8 -5 0 -9 -166
-17 -258 -14 -7 1 -19 -9 -27 -21 -16 -25 -8 -209 26 -591 14 -159 20 -279 16
-355 l-5 -115 17 80 c10 44 28 111 41 148 28 79 24 78 163 43 198 -51 205 -74
37 -134 -66 -24 -122 -48 -126 -53 -5 -8 55 12 201 68 l50 19 23 -27 c12 -15
36 -31 53 -34 l31 -7 -48 -28 c-50 -28 -95 -70 -77 -70 6 0 17 7 24 16 7 9 36
29 64 45 40 23 62 29 112 29 l62 0 4 -48 3 -47 2 49 2 48 31 -6 c17 -3 51 -6
75 -6 41 0 45 -2 64 -41 12 -23 24 -39 26 -36 3 3 -2 19 -10 36 -9 16 -16 31
-16 33 0 2 25 1 55 0 30 -2 55 0 55 6 0 5 29 3 71 -4 60 -12 75 -12 104 0 29
13 35 13 46 0 9 -11 44 -14 163 -14 256 0 292 14 51 20 l-210 5 3 34 c2 20 -2
37 -10 42 -25 16 61 42 115 35 35 -5 77 -1 143 15 86 20 104 21 222 11 l127
-10 -145 2 c-80 0 -131 -1 -115 -3 17 -2 -51 -15 -150 -27 -193 -25 -122 -24
110 1 186 20 258 19 298 -2 l32 -17 -55 -8 c-30 -4 -127 -9 -215 -12 -226 -6
-347 -17 -342 -30 6 -17 273 -4 579 28 27 3 35 1 31 -9 -6 -18 -40 -24 -143
-25 -47 0 -148 -4 -225 -9 l-140 -8 145 -1 c80 -1 196 1 258 5 105 6 113 8
118 28 5 19 15 23 66 29 34 3 78 6 99 6 21 0 40 4 43 9 4 5 -11 7 -31 5 -139
-13 -179 -12 -189 4 -19 30 -6 39 46 34 105 -10 129 24 68 95 -24 26 -28 35
-14 30 81 -31 204 -58 246 -55 47 3 49 2 43 -20 -3 -12 -1 -28 5 -35 8 -9 -5
-12 -57 -12 -43 0 -74 -5 -84 -14 -26 -21 -22 -77 8 -106 22 -23 31 -25 124
-25 56 0 103 4 106 10 4 6 95 10 241 10 149 0 234 4 234 10 0 6 -86 10 -238
10 l-238 0 -42 43 c-59 60 -52 70 9 12 46 -43 54 -47 87 -41 20 3 125 7 232 8
l195 1 -160 7 c-88 4 -191 3 -228 -1 l-69 -9 -53 47 c-52 46 -54 50 -53 98 0
28 2 42 5 33 2 -10 10 -18 17 -18 7 0 21 -9 31 -20 10 -11 13 -20 7 -20 -6 0
-14 4 -17 10 -3 6 -10 10 -16 10 -5 0 8 -16 30 -35 l38 -35 234 2 234 2 -237
6 c-130 3 -240 8 -243 12 -4 4 -5 14 -2 22 5 12 45 14 238 15 128 1 235 4 238
6 2 3 -98 5 -223 5 l-228 0 -44 36 c-54 44 -58 64 -7 29 l38 -25 235 2 235 2
-235 6 c-224 5 -237 6 -273 28 -32 21 -37 28 -37 62 l0 38 75 -26 75 -27 -63
-6 c-34 -3 54 -6 196 -7 166 -1 257 2 257 8 0 6 -70 10 -189 10 -180 0 -193 1
-261 26 -39 15 -69 29 -66 31 2 3 40 -2 83 -10 97 -19 433 -32 433 -17 0 6
-45 10 -122 10 -179 1 -293 14 -363 44 -33 14 -58 26 -55 26 53 14 294 33 410
33 69 0 100 2 70 4 -53 4 -70 14 -70 41 0 11 14 12 65 7 45 -5 65 -4 65 4 0 7
-25 11 -70 11 -60 0 -70 3 -70 18 0 15 9 17 70 14 46 -2 70 0 70 7 0 7 -27 11
-73 11 l-73 0 -47 193 c-67 273 -65 261 -36 251 13 -5 38 -7 54 -6 17 2 57 4
90 4 l60 1 -54 10 c-39 7 -59 7 -72 -1 -27 -17 -45 -16 -30 2 9 11 9 15 0 18
-7 2 12 18 41 35 l54 31 43 -25 c55 -32 56 -22 1 13 l-41 26 -54 -28 c-34 -18
-56 -37 -59 -52 -5 -18 -11 -21 -28 -16 -37 11 -56 45 -56 101 0 58 -2 57 88
67 25 2 53 13 66 25 12 12 27 21 33 21 11 0 93 94 93 106 0 4 -11 -3 -25 -16
-13 -12 -34 -28 -46 -34 -12 -6 -25 -18 -27 -26 -4 -11 2 -9 19 5 l24 20 -19
-22 c-10 -13 -22 -21 -26 -18 -4 2 -17 -7 -28 -20 -15 -18 -32 -25 -56 -25
-19 0 -47 -5 -61 -10 l-27 -10 7 141 c10 187 11 191 66 208 73 23 88 31 44 24
-22 -3 -52 -12 -67 -19 -15 -8 -43 -14 -63 -14 l-35 0 2 266 3 266 95 34 c52
19 101 37 109 39 8 3 12 8 9 10 -3 3 -56 -13 -118 -35 -63 -22 -119 -39 -126
-36 -7 3 -15 -3 -19 -12 -5 -13 -8 -14 -14 -3 -7 10 -9 10 -14 -2 -9 -23 -297
-113 -452 -140 -77 -14 -126 -25 -110 -26 62 -1 285 48 419 93 76 25 140 46
142 46 3 0 3 -120 2 -266 l-3 -266 -152 -61 -153 -61 0 -77 c0 -109 -7 -139
-35 -139 -12 0 -32 -12 -46 -26 -35 -38 -94 -65 -155 -71 l-54 -6 0 377 c0
207 2 376 5 376 3 0 56 -11 118 -24 131 -28 270 -41 312 -29 22 6 -4 10 -95
14 -72 3 -171 16 -232 29 -100 22 -108 25 -108 47 0 13 5 23 10 23 29 0 210
-45 266 -66 35 -13 74 -24 87 -24 38 0 -143 59 -248 80 -55 12 -108 23 -118
26 -27 8 -10 24 26 24 79 0 519 112 503 127 -2 3 -47 -9 -100 -26 -109 -35
-232 -64 -364 -85 -89 -14 -92 -14 -223 14 -74 16 -144 32 -156 35 -20 5 -22
12 -26 93 -1 48 -4 -81 -5 -287 l-2 -373 -26 6 c-15 4 -40 9 -58 11 -27 4 -26
3 9 -9 22 -8 48 -15 58 -15 13 -1 17 -10 17 -44 l0 -43 -47 -2 c-25 -1 -55 -4
-65 -8 -18 -5 -18 2 -16 152 l3 158 34 8 c18 5 31 12 28 15 -3 3 -20 1 -36 -5
l-31 -11 -2 267 c-2 186 -4 113 -8 -238 -3 -278 -4 -585 -2 -683 l3 -177 232
-2 232 -2 -230 -6 -230 -6 228 -2 c265 -2 315 -20 70 -25 l-158 -3 158 -2 157
-2 0 -75 0 -75 -51 20 c-42 17 -64 19 -130 14 -43 -4 -76 -10 -74 -14 3 -5 -4
-6 -15 -3 -25 7 -72 -5 -65 -16 8 -14 -41 -22 -70 -11 -14 5 -37 10 -51 10
l-24 0 -2 783 -3 782 -2 -777 c-3 -680 -5 -778 -18 -778 -13 0 -15 58 -18 433
l-2 432 -3 -432 c-2 -357 -4 -433 -16 -433 -11 0 -12 127 -9 775 4 555 2 775
-6 775 -7 0 -11 -39 -11 -116 0 -92 -3 -114 -12 -106 -7 5 -24 13 -38 17 -48
14 -79 44 -82 78 -3 30 -5 32 -40 31 l-38 -1 -2 51 -1 51 -6 -50 -6 -50 -27
50 c-15 28 -27 44 -28 36 0 -8 13 -35 30 -62 23 -38 30 -62 33 -116 l3 -68 2
71 c2 69 3 72 28 78 32 8 41 1 46 -39 3 -30 12 -36 118 -85 10 -5 16 -25 18
-63 3 -56 3 -57 -21 -48 -13 5 -140 39 -283 76 -411 105 -404 102 -460 210
-16 30 -33 55 -37 55 -14 0 46 -102 83 -141 40 -42 37 -41 406 -134 143 -36
271 -71 286 -77 l28 -10 -1 -132 c-1 -92 -4 -124 -10 -107 -5 13 -12 49 -14
79 -3 31 -9 60 -15 66 -5 5 -10 6 -10 1 0 -5 -16 6 -35 25 -19 19 -35 29 -35
23 0 -6 7 -16 16 -24 18 -15 44 -62 44 -80 0 -7 -7 -4 -16 7 -13 16 -15 16
-10 2 5 -18 -30 -50 -71 -62 -13 -4 -23 -12 -23 -17 0 -6 5 -7 10 -4 23 14 8
-4 -17 -21 -24 -15 -46 -17 -155 -15 -99 2 -133 -1 -157 -13 -34 -18 -61 -21
-61 -6 0 5 8 7 18 4 11 -4 13 -3 5 3 -7 5 -11 16 -9 25 3 21 35 58 50 58 6 -1
1 -9 -12 -20 l-23 -19 38 -10 c40 -12 261 -15 287 -5 16 6 12 24 -5 24 -6 0
-7 -4 -4 -10 7 -11 -221 -12 -270 -1 l-30 7 32 17 c25 13 37 14 63 6 17 -6 33
-9 36 -6 3 3 -10 8 -28 13 l-33 7 35 13 c19 7 30 13 24 13 -6 1 -31 -6 -54
-14 -24 -8 -45 -13 -48 -11 -5 5 64 36 82 36 6 0 4 5 -4 10 -11 7 -2 9 30 6
35 -3 38 -2 15 4 l-30 7 30 2 c46 4 175 1 225 -4 34 -3 39 -2 20 4 -14 5 -68
10 -120 12 l-95 2 95 8 c119 10 120 11 114 20 -2 5 -16 4 -30 -1 -14 -6 -60
-10 -102 -10 -84 -1 -179 -28 -174 -50 2 -7 -3 -10 -12 -7 -7 3 -34 -8 -57
-25 l-44 -31 50 52 c28 28 77 66 110 83 39 20 49 28 30 24 -16 -4 -49 -20 -73
-37 -24 -16 -48 -26 -54 -23 -6 4 -8 3 -5 -3 3 -5 -9 -25 -28 -43 -56 -55 -40
-17 21 49 62 67 62 83 1 24 -24 -23 -34 -29 -26 -15 8 12 17 22 22 22 4 0 6 4
3 9 -8 12 53 63 65 55 5 -3 9 0 9 5 0 6 3 10 8 10 4 -1 9 0 12 1 19 7 51 13
90 15 l45 4 -45 -9 c-56 -10 -105 -29 -97 -36 3 -3 22 0 43 6 24 8 59 10 103
5 36 -3 76 -7 88 -8 11 -1 19 -5 16 -9 -4 -7 1 -9 34 -12 7 -1 26 -15 44 -31
17 -17 30 -23 27 -15 -8 26 -84 77 -149 99 -138 46 -274 8 -326 -92 -14 -27
-15 -28 -28 -10 -19 24 -18 31 3 36 12 3 13 5 2 6 -12 1 -15 18 -17 82 -1 45
-5 85 -10 90 -4 4 -6 -31 -4 -78 l3 -86 -23 6 c-13 3 -53 11 -89 17 -86 15
-158 52 -195 100 -23 30 -48 46 -110 71 -47 19 -99 33 -126 33 l-46 1 -17 65
c-9 36 -18 73 -19 83 -1 9 -5 17 -9 17 -11 0 -10 -13 3 -47 20 -53 28 -117 16
-125 -9 -6 -9 -8 1 -8 6 0 12 -9 12 -20 0 -23 -3 -23 -47 -11 -27 8 -32 6 -36
-11 -6 -23 10 -31 50 -25 27 4 27 4 -4 6 -30 1 -49 21 -20 21 40 -1 57 -13 57
-42 0 -30 0 -30 -45 -24 l-45 7 0 -175 c0 -111 -4 -176 -10 -176 -11 0 -14
273 -4 382 5 50 11 68 23 71 14 4 13 5 -1 6 -16 1 -18 12 -18 86 0 50 -4 85
-10 85 -6 0 -10 -112 -10 -317 0 -208 -3 -314 -10 -307 -6 6 -11 133 -13 319
-1 171 -3 270 -5 221z m2588 -276 c0 -148 -3 -270 -7 -270 -5 0 -7 120 -6 267
3 311 2 273 8 273 3 0 5 -121 5 -270z m-30 -14 c0 -166 -4 -267 -10 -271 -7
-4 -10 87 -10 264 0 174 4 271 10 271 6 0 10 -95 10 -264z m-2252 172 c81 -27
98 -37 128 -74 50 -61 104 -88 217 -108 53 -10 97 -22 97 -28 0 -13 -190 -6
-198 8 -4 6 -22 18 -41 27 -28 14 -37 15 -44 5 -6 -10 -7 -9 -4 3 10 30 -39
87 -84 99 -23 6 -43 9 -46 6 -3 -2 13 -9 34 -15 36 -10 92 -55 82 -65 -3 -3
-58 6 -124 19 -66 13 -130 24 -142 25 -21 0 -23 5 -23 59 0 60 3 65 45 70 6 0
52 -13 103 -31z m1570 -44 c14 -3 22 -12 22 -25 0 -15 -5 -19 -17 -15 -10 2
-67 14 -128 26 -60 12 -118 24 -127 26 -17 5 -18 -6 -18 -135 0 -87 -4 -141
-10 -141 -6 0 -10 61 -10 164 l0 163 133 -29 c72 -16 142 -31 155 -34z m-112
-30 l91 -17 -1 -221 -1 -220 -40 -23 c-22 -12 -43 -23 -46 -23 -4 0 0 19 9 43
12 34 12 50 3 83 -13 50 -77 118 -127 136 l-34 12 0 129 0 130 28 -6 c15 -3
68 -13 118 -23z m151 -806 c-1 -150 -2 -28 -2 272 0 300 1 422 2 273 2 -150 2
-396 0 -545z m-17 257 c0 -460 -2 -525 -15 -525 -13 0 -15 65 -15 525 0 460 2
525 15 525 13 0 15 -65 15 -525z m-1800 355 c0 -100 -4 -160 -10 -160 -6 0
-10 60 -10 160 0 100 4 160 10 160 6 0 10 -60 10 -160z m40 -10 c0 -136 -2
-160 -15 -160 -13 0 -15 24 -15 160 0 136 2 160 15 160 13 0 15 -24 15 -160z
m50 -10 c0 -153 -1 -158 -20 -153 -19 5 -20 14 -20 163 0 153 1 158 20 153 19
-5 20 -14 20 -163z m40 -6 c0 -130 -2 -154 -15 -154 -13 0 -15 24 -15 160 0
138 2 159 15 154 12 -5 15 -32 15 -160z m30 -5 c0 -104 -3 -158 -10 -154 -6 4
-10 68 -10 161 0 96 4 154 10 154 6 0 10 -60 10 -161z m65 143 c6 -4 12 -74
14 -161 l3 -154 -23 6 c-13 4 -30 7 -36 7 -10 0 -13 38 -13 155 0 154 0 155
23 155 12 0 27 -4 32 -8z m97 -163 c-3 -159 -3 -160 -25 -157 -22 3 -22 5 -20
158 1 85 2 158 2 161 1 3 11 4 24 2 22 -4 22 -5 19 -164z m48 -21 c0 -137 -1
-149 -17 -146 -16 3 -18 20 -21 155 -2 148 -2 151 18 146 19 -5 20 -13 20
-155z m30 -3 c0 -90 -4 -145 -10 -145 -6 0 -10 55 -10 145 0 90 4 145 10 145
6 0 10 -55 10 -145z m36 136 c-3 -5 3 -11 13 -14 18 -4 19 -13 15 -108 -3 -57
0 -117 5 -134 l9 -30 1 35 c1 20 7 42 14 49 10 11 10 13 0 7 -9 -5 -13 1 -13
18 0 33 9 37 58 23 l41 -13 -35 -28 c-20 -16 -43 -44 -50 -63 -13 -30 -19 -34
-45 -31 l-30 3 0 138 c0 75 1 142 1 147 0 6 5 10 11 10 5 0 8 -4 5 -9z m227
-39 c20 -18 20 -22 7 -57 -10 -26 -12 -26 -33 -12 -20 13 -26 13 -50 1 -34
-18 -36 -27 -2 -12 33 15 75 -3 75 -32 0 -26 -20 -26 -96 0 -32 11 -64 18 -71
16 -9 -4 -13 7 -13 37 l0 43 40 -4 c22 -2 43 -8 46 -13 6 -10 -4 -12 -51 -10
l-30 0 30 -9 c20 -7 41 -6 63 1 l34 11 -28 14 c-14 8 -44 17 -65 20 -22 4 -39
12 -39 19 0 18 160 7 183 -13z m847 -187 c0 -70 -4 -115 -10 -115 -6 0 -10 45
-10 115 0 70 4 115 10 115 6 0 10 -45 10 -115z m61 95 c57 -30 99 -92 99 -147
0 -85 -35 -114 -106 -87 l-44 17 0 118 c0 66 2 119 5 119 3 0 24 -9 46 -20z
m-388 -5 c8 -8 18 -41 22 -74 6 -51 3 -67 -16 -105 -20 -40 -21 -50 -11 -84
17 -56 16 -61 -18 -60 -22 1 -29 5 -26 15 3 8 1 11 -4 8 -17 -10 -11 -32 10
-38 11 -3 20 -9 20 -15 0 -11 -58 -25 -71 -16 -15 9 -10 -24 6 -40 19 -19 19
-31 -1 -51 -32 -32 -131 11 -198 86 -33 35 -37 47 -34 80 3 35 1 39 -19 39
-27 0 -53 44 -53 90 0 30 -1 31 -37 24 -66 -12 -83 -22 -83 -48 0 -14 5 -28
10 -31 6 -4 8 -10 5 -15 -3 -5 0 -12 6 -16 7 -4 9 -3 6 3 -9 14 32 24 52 13
14 -8 14 -9 1 -14 -8 -2 -22 -7 -30 -9 -8 -3 -3 -6 13 -6 36 -1 43 1 39 15 -1
7 2 15 8 19 16 10 12 -43 -6 -70 -19 -29 -64 -34 -84 -10 -7 8 -9 15 -4 15 4
0 -2 9 -15 21 -26 24 -41 17 -23 -11 18 -30 15 -70 -5 -71 -17 -1 -17 -2 0 -6
21 -5 23 -23 3 -23 -8 0 -18 -5 -22 -11 -4 -8 0 -9 15 -4 12 4 21 2 21 -4 0
-6 -10 -12 -22 -12 -17 -1 -19 -2 -5 -6 9 -2 17 -7 17 -10 0 -10 -32 -43 -42
-43 -4 0 -8 40 -8 89 0 82 2 92 27 121 29 35 36 99 16 157 -9 25 -8 33 3 37
10 4 14 -3 14 -29 0 -37 15 -54 33 -36 9 9 8 11 -5 6 -39 -15 -15 5 28 25 37
16 67 20 153 20 64 0 111 -4 118 -11 8 -8 17 -8 33 1 15 8 20 8 16 1 -4 -6 -3
-11 3 -11 5 0 22 17 37 38 28 38 74 82 86 82 4 0 13 -7 21 -15z m-573 -75
c-19 -16 -40 -28 -45 -27 -6 1 -11 -2 -12 -6 -1 -5 -13 -23 -27 -41 -14 -19
-22 -37 -18 -41 4 -5 2 -5 -4 -2 -14 8 -39 -19 -26 -27 5 -3 25 9 46 25 20 17
44 32 54 34 9 2 18 4 20 5 1 2 7 4 12 5 6 1 12 3 15 4 27 6 30 -37 5 -64 -11
-12 -18 -24 -15 -27 3 -3 -1 -11 -10 -18 -8 -7 -15 -18 -15 -25 0 -8 -6 -16
-12 -19 -10 -5 -10 -7 0 -12 8 -4 12 -32 12 -92 -1 -80 -2 -85 -15 -62 -20 35
-29 104 -17 127 7 13 6 25 -4 43 l-15 25 7 -24 c3 -13 2 -21 -3 -18 -15 10
-15 -106 1 -151 9 -24 11 -40 6 -37 -6 3 -10 1 -10 -5 0 -7 -6 -10 -12 -8 -7
3 -19 -3 -28 -12 -8 -9 -12 -11 -9 -5 4 5 3 19 -2 30 -7 17 -8 16 -8 -8 -1
-20 -17 -46 -58 -89 -32 -33 -56 -62 -54 -65 6 -7 -49 -103 -60 -103 -5 0 -8
3 -7 8 1 4 -2 20 -7 35 -5 19 -3 33 7 45 25 29 33 46 17 37 -8 -5 -6 1 5 13
10 12 24 19 30 15 6 -3 8 -3 4 2 -4 4 9 21 29 37 56 44 62 58 71 162 9 92 23
131 46 123 6 -2 17 3 24 10 9 8 19 10 26 5 7 -5 17 -2 28 9 22 23 14 28 -25
19 -18 -5 -43 -12 -57 -15 l-25 -7 24 22 c13 11 31 18 38 16 8 -3 11 -2 8 3
-3 5 3 12 14 16 10 3 27 15 37 27 16 18 12 17 -31 -7 -27 -16 -58 -35 -67 -43
-12 -10 -18 -11 -18 -4 0 7 -3 11 -8 10 -18 -7 -14 11 15 62 45 78 91 118 138
119 16 0 14 -5 -15 -29z m2 -32 c-11 -13 -22 -27 -24 -33 -2 -5 -7 -9 -12 -7
-5 2 -20 -7 -35 -20 -14 -12 -4 1 24 30 27 28 54 52 59 52 5 0 0 -10 -12 -22z
m1933 -45 c-15 -227 -45 -732 -45 -755 0 -16 -3 -28 -8 -28 -4 0 -4 46 -1 103
4 56 15 242 24 412 9 171 18 316 20 323 10 29 14 7 10 -55z m-56 -98 c-5 -71
-15 -241 -23 -378 -7 -136 -15 -249 -17 -252 -3 -2 -45 0 -94 5 -50 6 -125 13
-167 17 l-78 6 0 30 0 29 53 -5 c28 -4 96 -9 150 -13 l97 -6 1 33 c0 19 8 166
17 327 9 162 14 296 10 299 -5 2 -8 -4 -8 -14 0 -24 -32 -628 -34 -630 -2 -2
-260 18 -263 21 -2 2 -5 41 -8 87 -3 67 -2 75 5 39 6 -31 7 0 5 100 -2 80 0
129 4 110 5 -24 8 0 9 74 1 60 5 112 9 116 4 4 71 31 148 60 77 29 151 58 165
65 14 7 26 13 26 12 1 -1 -3 -60 -7 -132z m-2559 -515 c0 -410 -3 -620 -10
-620 -7 0 -10 210 -10 620 0 396 4 620 10 620 6 0 10 -223 10 -620z m223 589
l167 -22 0 -50 0 -50 -52 7 c-29 3 -63 6 -75 6 -20 0 -23 5 -23 35 0 19 -4 35
-10 35 -5 0 -10 -16 -10 -35 l0 -35 -84 0 c-116 0 -116 0 -116 75 0 55 2 63
18 59 9 -2 92 -13 185 -25z m617 12 c0 -12 -26 -21 -58 -20 l-27 1 30 13 c35
16 55 19 55 6z m443 -387 c-17 -13 -17 -14 0 -8 15 5 17 0 17 -41 0 -38 -3
-46 -15 -41 -8 3 -15 1 -15 -4 0 -6 7 -10 15 -10 12 0 15 -21 14 -125 0 -69
-4 -125 -8 -125 -4 0 -16 -7 -27 -16 -18 -15 -18 -15 3 -5 32 16 33 15 33 -30
0 -38 -2 -41 -22 -35 -13 3 -29 6 -35 6 -10 0 -13 62 -13 275 0 255 1 275 18
275 9 0 24 4 32 10 10 6 4 8 -22 7 -35 -2 -36 -3 -42 -52 -3 -27 -6 -76 -6
-109 0 -50 -2 -57 -15 -46 -12 10 -22 8 -52 -11 -56 -33 -83 -60 -83 -82 0
-13 -5 -17 -16 -13 -9 3 -26 6 -39 6 -26 0 -42 38 -19 47 8 3 14 10 14 15 0 7
-5 6 -14 -1 -11 -9 -17 -6 -31 15 -21 33 -11 74 35 148 23 35 36 47 48 42 104
-34 123 -33 146 9 6 11 18 25 26 31 8 7 15 16 16 21 2 20 18 49 36 63 16 13
17 20 8 44 -5 15 -8 31 -5 36 3 5 0 10 -6 12 -15 5 -4 42 19 65 16 16 17 5 20
-171 2 -171 1 -190 -15 -202z m1294 279 c-2 -21 -4 -6 -4 32 0 39 2 55 4 38 2
-18 2 -50 0 -70z m-2089 61 l23 -5 -30 -43 c-25 -36 -34 -43 -56 -39 -23 5
-25 10 -25 52 l0 48 33 -4 c17 -2 42 -6 55 -9z m326 5 c-4 -8 1 -9 16 -4 16 5
20 4 15 -4 -4 -7 -20 -9 -43 -5 -51 9 -60 20 -17 22 23 1 33 -2 29 -9z m768
-61 l2 -53 3 48 c4 41 7 48 21 41 56 -23 89 -27 133 -13 24 8 54 13 67 11 20
-3 22 -9 22 -58 0 -68 -33 -127 -66 -119 -16 3 -27 -2 -39 -21 -9 -14 -38 -35
-63 -46 -26 -12 -59 -29 -74 -40 l-28 -19 0 56 c0 40 4 57 15 61 8 4 12 11 9
16 -4 6 -10 5 -15 -3 -5 -9 -9 27 -9 89 0 61 4 102 10 102 6 0 11 -24 12 -52z
m-1044 23 c19 -12 17 -19 -13 -43 -48 -38 -58 -70 -45 -154 6 -42 8 -83 4 -92
-6 -11 -11 9 -14 58 l-6 75 -2 -80 c-2 -65 -5 -82 -20 -91 -10 -6 -67 -12
-127 -13 -61 -1 -120 -5 -132 -8 l-23 -5 0 148 0 149 137 -3 c76 -2 139 -5
140 -6 2 -1 -6 -28 -17 -59 -25 -69 -28 -204 -6 -204 11 0 13 14 10 67 -4 53
-2 71 11 84 15 14 13 20 -7 17 -13 -2 24 74 50 103 15 16 20 26 12 22 -8 -4
-6 0 4 8 11 9 16 16 12 16 -4 0 -4 5 -1 10 7 12 16 12 33 1z m378 -44 c-8 -32
18 -80 64 -119 l43 -35 -23 -23 c-12 -12 -35 -51 -52 -86 l-30 -64 21 -33 c25
-40 40 -137 42 -267 1 -66 4 -83 8 -55 6 38 7 37 19 -37 12 -67 11 -86 -2
-138 -19 -73 -49 -136 -84 -173 -14 -15 -21 -27 -15 -27 12 0 58 51 65 72 3 9
16 3 39 -16 67 -57 137 -70 219 -41 24 8 77 15 121 15 67 0 79 3 79 17 0 9 -6
24 -14 32 -12 14 -9 22 24 61 l39 44 58 -26 c32 -15 67 -29 77 -33 18 -5 18
-7 -5 -31 -13 -14 -39 -34 -57 -46 l-33 -20 -42 28 c-68 47 -74 50 -58 31 7
-9 28 -26 47 -38 19 -11 34 -24 34 -29 0 -20 -90 -42 -176 -43 -110 -1 -390 9
-464 17 -86 9 -91 22 -64 184 11 64 17 163 18 292 1 166 -2 202 -17 242 -21
55 -77 108 -112 108 -14 0 -25 4 -25 10 0 10 40 50 50 50 10 0 107 -104 150
-160 22 -30 47 -77 55 -105 39 -134 46 -324 15 -424 -26 -87 -18 -90 11 -4 27
77 30 198 9 340 -19 124 -52 184 -167 304 -38 39 -52 60 -47 72 3 9 10 17 15
17 16 0 76 -59 119 -119 24 -33 46 -58 49 -56 8 8 -69 113 -111 150 -38 35
-39 37 -28 71 8 24 17 34 33 34 28 0 67 38 67 66 0 17 4 21 21 17 15 -4 19
-11 15 -26z m-768 -113 l-3 -106 -62 -5 c-40 -2 -63 0 -63 6 0 6 10 11 23 11
12 0 29 5 37 11 11 8 6 9 -22 5 l-38 -5 0 95 0 94 65 0 66 0 -3 -106z m372 61
c-6 -16 -8 -35 -5 -44 3 -8 3 -40 -1 -71 -7 -51 -8 -53 -15 -25 -16 55 -13
122 5 150 22 33 30 27 16 -10z m1029 -84 c0 -107 -2 -120 -20 -137 -12 -10
-25 -27 -30 -36 -8 -15 -6 -18 13 -18 16 0 19 3 10 8 -9 7 -8 13 8 27 20 18
20 18 20 -42 l0 -60 -47 -6 c-27 -3 -56 -9 -65 -12 -17 -7 -18 3 -18 115 l0
123 36 -6 c28 -5 43 -1 62 13 13 11 21 20 17 20 -5 0 -16 -6 -24 -14 -11 -10
-26 -12 -51 -7 l-35 7 -3 66 c-3 75 -3 75 80 77 l47 1 0 -119z m-769 69 c0 -6
-9 -10 -20 -10 -13 0 -20 7 -20 20 0 18 3 19 20 10 11 -6 20 -15 20 -20z
m1787 -77 c-2 -21 -4 -4 -4 37 0 41 2 58 4 38 2 -21 2 -55 0 -75z m-743 -120
l-4 -178 -71 4 c-39 2 -83 9 -97 17 -15 8 -36 14 -47 14 -40 1 -46 13 -43 86
l3 69 74 37 c41 20 83 47 93 61 12 17 25 23 37 20 13 -3 25 4 36 21 10 14 19
26 21 26 2 0 1 -80 -2 -177z m353 -25 c-4 -66 -7 -145 -7 -175 l0 -53 -135 0
-135 0 0 76 c0 110 38 157 101 124 13 -8 25 -7 42 2 12 7 45 15 72 19 l50 6
-43 2 c-24 0 -56 -6 -72 -14 -27 -14 -33 -14 -61 1 -30 15 -32 15 -60 -12
l-29 -28 0 37 c0 36 1 37 38 38 83 3 104 11 165 65 20 19 47 34 59 34 21 0 21
-2 15 -122z m380 -40 c-2 -24 -4 -5 -4 42 0 47 2 66 4 43 2 -24 2 -62 0 -85z
m-2407 58 c0 -39 -14 -46 -92 -46 -56 0 -65 19 -10 22 l37 1 -37 4 c-21 2 -38
8 -38 14 0 5 17 10 38 11 l37 1 -37 4 c-65 7 -42 23 32 23 l70 0 0 -34z m510
18 c0 -3 -5 -14 -10 -25 -10 -17 -54 -222 -101 -469 -10 -52 -21 -135 -25
-185 l-7 -90 -23 105 c-13 58 -29 164 -35 235 -12 127 -11 132 14 225 14 52
28 104 32 115 4 12 0 9 -9 -6 -9 -15 -25 -62 -37 -105 -19 -68 -21 -95 -16
-194 3 -63 13 -155 23 -204 19 -100 16 -106 -49 -106 -21 0 -54 -7 -74 -15
-19 -8 -38 -15 -40 -15 -10 0 10 96 32 155 31 80 50 162 47 203 -1 19 4 58 12
87 16 62 103 228 116 220 4 -3 15 7 25 21 9 14 31 32 48 39 33 14 77 20 77 9z
m75 -25 c60 -53 69 -105 61 -353 -3 -116 -11 -243 -18 -283 l-13 -72 -40 25
c-22 13 -47 24 -55 24 -8 0 7 -13 35 -28 64 -35 69 -57 18 -71 -21 -6 -51 -12
-68 -14 -26 -3 -25 -4 8 -6 21 0 53 5 72 13 21 9 37 11 40 5 6 -9 -35 -29 -60
-29 -17 0 -70 -60 -90 -103 l-16 -32 23 30 c34 45 65 71 105 90 31 15 45 16
110 6 40 -6 105 -11 142 -11 l69 0 -4 -67 c-3 -38 -6 -90 -8 -116 -2 -29 0
-43 5 -35 7 10 9 9 9 -5 0 -15 -6 -17 -47 -12 -27 3 -128 12 -225 19 -208 16
-220 21 -243 98 -32 110 -18 281 51 628 51 256 62 300 76 318 15 18 23 15 63
-19z m1889 -21 c4 -19 2 -34 -4 -36 -14 -5 -13 -23 1 -19 6 1 14 -4 16 -10 3
-8 -4 -13 -16 -13 -19 0 -21 6 -21 55 0 61 14 74 24 23z m-2539 -36 c-15 -11
-19 -30 -23 -114 -4 -84 -18 -105 -25 -35 -2 23 -4 -105 -5 -285 -1 -211 -6
-328 -12 -328 -6 0 -10 130 -10 370 l0 370 28 1 27 2 -27 4 c-44 7 -33 23 15
23 23 0 38 -4 32 -8z m1113 -14 c7 -7 12 -23 12 -36 0 -20 -4 -23 -24 -18 -16
4 -32 -1 -50 -15 -15 -12 -25 -24 -22 -26 3 -3 12 2 21 11 9 9 30 16 46 16 24
0 29 -4 29 -24 0 -20 -8 -26 -58 -40 -32 -9 -66 -16 -75 -16 -9 0 -18 -4 -21
-9 -5 -8 81 8 136 25 15 4 17 -8 20 -111 l3 -115 -36 0 c-20 0 -63 -3 -96 -6
l-59 -6 -13 53 c-8 30 -16 92 -20 137 l-6 84 38 -5 c34 -5 39 -3 50 24 7 16
32 42 57 58 53 35 53 34 68 19z m-843 -32 c-8 -19 -15 -48 -15 -63 0 -43 -30
-232 -47 -290 -13 -47 -13 -55 2 -87 9 -19 14 -40 10 -46 -4 -6 -11 -40 -16
-76 -5 -39 -18 -79 -31 -96 -12 -17 -34 -67 -49 -112 l-29 -81 0 55 c0 31 -9
141 -19 245 -28 271 -44 532 -35 552 4 10 7 20 6 23 0 3 53 7 119 8 l119 4
-15 -36z m2280 -16 c7 -11 115 -454 112 -457 -1 0 -24 1 -50 4 -47 6 -49 7
-44 33 8 35 -2 70 -19 70 -12 0 -19 19 -40 103 -3 15 -3 79 1 142 5 86 10 115
20 115 8 0 17 -5 20 -10z m-88 -92 c-2 -18 -4 -4 -4 32 0 36 2 50 4 33 2 -18
2 -48 0 -65z m-996 65 c1 -17 2 -17 6 0 5 18 26 16 83 -6 l25 -9 -35 -13 c-19
-8 -45 -14 -57 -14 -11 -1 -45 -12 -75 -26 -73 -34 -78 -33 -78 20 0 41 2 45
28 51 15 3 32 7 37 9 31 10 65 4 66 -12z m143 -38 c3 -8 11 -15 17 -15 8 0 8
4 -1 15 -11 13 -8 15 21 15 38 0 53 -8 62 -30 4 -12 6 -12 6 1 1 9 8 20 16 23
12 4 15 -2 13 -29 l-2 -35 -176 0 -175 1 35 19 c19 11 47 19 61 20 15 0 42 7
60 15 44 18 56 18 63 0z m-1314 -86 c-5 -19 -11 -57 -12 -85 -2 -29 -7 -50
-11 -47 -4 3 -5 -8 -1 -24 4 -16 3 -25 -2 -20 -9 8 -10 12 -13 40 -1 8 -4 7
-11 -3 -13 -20 -12 -10 4 52 13 52 47 131 53 125 1 -2 -2 -19 -7 -38z m1723
14 c-40 -2 -107 -2 -150 0 -43 1 -10 3 72 3 83 0 118 -2 78 -3z m-2043 -43 c0
-22 -4 -40 -8 -40 -5 0 -9 18 -10 40 -1 22 3 40 8 40 6 0 10 -18 10 -40z
m2100 20 c0 -6 -53 -10 -140 -10 -87 0 -140 4 -140 10 0 6 53 10 140 10 87 0
140 -4 140 -10z m0 -39 c0 -16 13 -20 98 -30 172 -21 162 -17 162 -66 l0 -42
-255 5 c-188 4 -255 2 -255 -7 0 -8 70 -11 253 -11 140 0 288 -3 330 -6 l77
-7 0 52 c0 28 4 51 9 51 12 0 26 -84 18 -104 -4 -10 -1 -13 9 -9 9 3 14 -1 14
-12 0 -14 -6 -16 -32 -11 -48 9 -459 27 -560 24 -75 -3 -90 0 -115 18 -26 20
-28 27 -31 98 l-3 76 141 0 c130 0 140 -1 140 -19z m117 -7 c12 -2 23 1 25 8
3 7 7 5 11 -5 6 -16 1 -17 -56 -11 -34 4 -69 10 -77 15 -14 8 42 4 97 -7z
m208 -25 c27 -6 13 -7 -45 -3 -47 3 -92 10 -100 15 -16 10 78 2 145 -12z m-27
-67 c2 -33 0 -42 -12 -42 -12 0 -16 11 -16 46 0 59 24 55 28 -4z m32 -2 c0
-22 -4 -40 -10 -40 -5 0 -10 18 -10 40 0 22 5 40 10 40 6 0 10 -18 10 -40z
m40 -5 c0 -45 -12 -60 -24 -29 -12 31 -7 74 9 74 11 0 15 -12 15 -45z m30 0
c0 -25 -4 -45 -10 -45 -5 0 -10 20 -10 45 0 25 5 45 10 45 6 0 10 -20 10 -45z
m-2498 -20 c3 -14 0 -25 -6 -26 -7 0 -7 -2 1 -5 8 -4 12 -54 12 -170 1 -143 0
-164 -14 -164 -14 0 -15 24 -14 195 2 178 9 236 21 170z m278 -43 c0 -44 -19
-80 -31 -61 -12 20 -11 76 2 101 14 27 29 7 29 -40z m1492 41 c24 -9 52 -25
62 -36 19 -19 19 -19 -5 -11 -26 9 -65 8 -117 -1 -23 -4 -32 -3 -27 4 3 6 23
11 43 11 20 0 44 5 52 11 12 8 10 9 -9 4 -16 -5 -21 -4 -17 4 11 17 -36 13
-62 -5 -12 -8 -22 -22 -22 -30 0 -11 20 -14 100 -14 83 0 114 -5 187 -29 49
-16 103 -32 121 -36 45 -9 41 -27 -5 -19 -43 7 -40 7 -73 4 -61 -5 50 -19 145
-18 55 1 91 3 80 5 -11 2 -78 23 -150 46 l-130 42 155 3 c201 4 300 -4 300
-25 0 -14 -18 -15 -137 -10 -76 3 -151 8 -168 11 -16 3 -7 -1 22 -8 32 -9 129
-15 257 -17 113 -2 201 -8 197 -12 -4 -4 -64 -11 -132 -14 -79 -4 -132 -11
-145 -20 -12 -8 -26 -13 -30 -12 -5 1 -54 0 -109 -1 l-100 -3 75 -11 75 -11
-173 -27 c-100 -15 -185 -23 -200 -19 -42 11 -10 18 150 33 139 12 141 13 83
21 -34 4 -102 3 -158 -3 l-97 -10 -91 41 c-53 24 -97 38 -107 34 -13 -5 -14
-4 -5 6 17 18 173 26 173 9 0 -9 -14 -11 -51 -8 l-50 5 63 -32 c51 -26 74 -33
118 -31 38 1 54 5 53 14 -2 6 2 12 7 12 6 0 10 -4 10 -10 0 -5 21 -10 48 -9
l47 1 -35 10 c-41 11 -142 16 -132 6 4 -3 18 -8 32 -11 14 -2 -2 -3 -36 -2
-33 2 -74 10 -90 18 l-29 16 33 1 c18 0 31 3 28 8 -2 4 14 8 36 8 28 1 36 -1
27 -8 -12 -8 -12 -9 0 -6 8 2 15 11 16 19 2 10 -9 14 -41 14 -24 0 -44 2 -44
5 0 4 -107 -1 -273 -14 -34 -3 -73 -14 -94 -26 -41 -24 -50 -19 -55 29 -3 31
0 34 47 53 77 32 215 66 267 67 26 1 67 -6 90 -16z m-492 -3 c117 -18 130 -21
130 -29 0 -15 -32 -22 -46 -10 -11 9 -32 4 -92 -20 -84 -33 -107 -38 -96 -19
4 7 3 8 -4 4 -6 -4 -25 0 -43 9 -17 9 -33 15 -35 12 -2 -2 14 -12 36 -22 22
-10 37 -22 34 -27 -7 -11 -63 -7 -61 5 1 5 -4 12 -12 15 -9 3 -11 0 -6 -8 5
-9 4 -11 -4 -6 -6 4 -9 11 -7 15 3 4 1 13 -4 20 -6 10 -10 8 -15 -8 -6 -18
-13 -22 -43 -19 -36 3 -37 5 -40 45 l-3 42 73 4 c153 7 175 7 238 -3z m88
-157 c11 -19 8 -25 -30 -57 l-41 -36 -25 43 c-13 23 -27 59 -29 79 -5 37 -5
38 48 61 l54 24 5 -46 c3 -25 11 -56 18 -68z m1092 72 c0 -9 -9 -15 -25 -15
-16 0 -25 6 -25 15 0 9 9 15 25 15 16 0 25 -6 25 -15z m108 -7 c-7 -19 -45
-22 -45 -3 0 9 9 15 25 15 14 0 22 -5 20 -12z m-1311 -120 l22 -37 -67 -33
c-96 -46 -160 -46 -231 2 -40 27 -51 40 -47 55 7 27 30 109 32 113 1 1 22 -3
46 -9 l46 -12 -14 -33 c-8 -19 -13 -55 -13 -81 l1 -48 8 53 c13 86 27 112 64
113 17 0 51 8 76 17 l45 18 5 -41 c3 -22 15 -57 27 -77z m-177 102 c11 -7 8
-10 -15 -9 -16 0 -39 4 -50 9 -16 7 -14 9 15 9 19 0 42 -4 50 -9z m488 -15
c29 -9 58 -13 64 -9 7 5 8 3 3 -6 -6 -10 -4 -12 9 -7 9 4 14 3 11 -2 -7 -12
31 -24 46 -15 7 4 9 3 6 -3 -4 -6 0 -13 8 -17 8 -3 15 -12 15 -21 0 -12 -6
-14 -27 -9 -39 10 -193 86 -193 96 0 10 -2 11 58 -7z m27 -65 c9 -14 -36 -4
-102 23 -55 23 -64 33 -35 39 18 5 126 -44 137 -62z m711 -2 l27 -13 -24 -5
c-21 -5 -24 -12 -27 -58 -2 -29 -7 -52 -13 -52 -5 0 -9 -13 -9 -29 0 -53 -48
-54 -217 -7 -67 19 -133 42 -148 52 -52 34 -36 40 235 79 75 11 128 24 133 32
10 16 10 16 43 1z m-519 -30 c-23 -14 -47 -9 -47 11 0 17 3 18 30 8 20 -7 25
-14 17 -19z m-104 -8 c57 0 40 -10 -34 -19 -59 -8 -60 -9 -19 -10 25 0 63 4
84 10 43 12 126 4 126 -13 0 -7 -16 -8 -47 -3 -27 5 -56 8 -65 7 -24 -1 -112
-41 -106 -48 3 -3 26 5 50 17 37 18 55 20 99 15 30 -4 61 -11 69 -16 28 -17 0
-23 -58 -10 -49 10 -64 10 -95 -4 -20 -8 -37 -17 -37 -20 0 -3 16 2 36 10 23
10 48 13 68 8 60 -12 62 -23 5 -21 -54 2 -61 -1 -141 -55 -102 -69 -124 -78
-196 -78 -52 -1 -105 -7 -231 -26 l-44 -7 6 48 c4 26 12 54 17 61 7 7 45 13
103 16 80 3 101 7 157 35 36 18 85 51 110 73 36 32 50 39 74 35 16 -3 47 -5
69 -5z m-1249 -27 c6 -25 25 -166 26 -186 0 -4 -13 -1 -29 7 -24 13 -142 45
-229 62 -23 5 -23 5 -5 35 36 61 68 81 145 94 40 7 76 13 80 14 3 0 9 -11 12
-26z m880 -12 c-31 -3 -35 -5 -19 -11 16 -7 12 -9 -18 -9 -44 -1 -42 14 3 24
16 4 32 11 36 16 3 6 12 5 22 -3 13 -11 10 -13 -24 -17z m591 -82 c30 -17 55
-35 55 -40 0 -5 -75 -8 -172 -7 l-173 2 155 6 c85 3 144 7 131 8 -36 3 -94 62
-61 62 6 0 35 -14 65 -31z m-155 -9 c12 -22 1 -27 -19 -7 -11 10 -13 10 -7 0
5 -9 -3 -13 -28 -13 -45 0 -45 7 -3 25 42 19 44 18 57 -5z m96 -1 c16 -18 16
-19 -6 -19 -12 0 -29 8 -37 18 -14 16 -14 16 -9 0 7 -25 -20 -23 -33 1 -9 17
-6 19 28 19 26 1 45 -6 57 -19z m-712 -36 c-7 -21 -13 -75 -14 -120 l0 -82
-37 5 c-60 9 -63 11 -64 51 l-1 38 -9 -30 c-6 -21 -7 -8 -4 40 3 39 5 82 5 97
0 28 11 32 101 36 l37 2 -14 -37z m856 -23 c0 -6 -76 -10 -207 -10 -138 0
-203 4 -193 10 20 13 400 13 400 0z m-82 -27 c-32 -2 -84 -2 -115 0 -32 2 -6
3 57 3 63 0 89 -1 58 -3z m383 -75 c53 -57 60 -78 29 -78 -11 0 -20 5 -20 10
0 6 -13 10 -30 10 -16 0 -30 -4 -30 -10 0 -5 -18 -10 -40 -10 -89 0 -124 96
-44 120 64 19 83 13 135 -42z m-1075 -15 c6 -20 2 -31 -16 -45 -30 -24 -60
-24 -60 2 0 17 4 18 25 10 15 -6 25 -6 25 0 0 5 -10 10 -21 12 -12 2 -26 13
-30 26 -8 20 -6 22 31 22 35 0 40 -3 46 -27z"/>
<path d="M370 1730 c0 -87 4 -140 10 -140 6 0 10 53 10 140 0 87 -4 140 -10
140 -6 0 -10 -53 -10 -140z"/>
<path d="M946 1594 c5 -3 59 -9 120 -14 l109 -9 -120 4 c-89 3 -112 1 -90 -7
17 -5 62 -10 100 -10 40 -1 54 -3 31 -5 -43 -5 -86 -29 -86 -48 0 -7 7 -18 15
-25 12 -10 15 -10 15 3 0 8 -6 17 -12 20 -19 7 21 35 42 30 17 -5 126 33 135
47 3 4 -5 8 -18 8 -12 1 -74 3 -137 5 -63 3 -110 3 -104 1z"/>
<path d="M1260 1549 c-11 -7 -5 -8 21 -3 30 5 39 2 52 -16 8 -12 18 -17 21
-12 18 29 -60 55 -94 31z"/>
<path d="M1100 1498 c-10 -18 -24 -39 -30 -46 -16 -18 -6 -26 17 -13 21 11 58
91 42 91 -5 0 -18 -15 -29 -32z"/>
<path d="M1260 1500 c0 -17 39 -41 53 -33 11 6 7 12 -19 24 -19 9 -34 13 -34
9z"/>
<path d="M840 1453 c0 -19 37 -43 66 -42 28 1 28 1 -6 9 -18 5 -40 16 -47 26
-7 10 -13 13 -13 7z"/>
<path d="M1103 1069 c28 -16 87 -40 87 -34 0 7 -77 45 -92 45 -8 0 -6 -5 5
-11z"/>
<path d="M1781 1360 c-30 -11 -57 -23 -60 -26 -3 -4 2 -4 12 -1 62 23 132 38
153 34 13 -2 21 0 18 4 -9 15 -66 9 -123 -11z"/>
<path d="M1554 1268 l-19 -23 22 19 c17 14 31 17 60 12 27 -4 32 -3 18 4 -34
15 -61 11 -81 -12z"/>
<path d="M2080 1022 c-26 -3 -30 -6 -17 -11 27 -10 93 -1 76 10 -8 5 -16 8
-19 7 -3 -1 -21 -3 -40 -6z"/>
<path d="M2055 985 c22 -8 53 -13 68 -10 19 3 30 0 33 -10 4 -10 20 -14 51
-13 29 0 40 4 32 9 -11 7 -9 9 5 9 11 0 17 3 13 6 -3 3 -22 1 -43 -6 -29 -10
-38 -10 -44 1 -5 7 -26 14 -47 15 -21 2 -54 5 -73 9 l-35 6 40 -16z"/>
<path d="M825 622 c-16 -26 -49 -68 -74 -94 -24 -27 -39 -48 -34 -48 22 0 154
173 141 185 -2 2 -17 -17 -33 -43z"/>
<path d="M1175 646 c16 -8 43 -12 60 -9 16 2 77 8 135 13 l105 9 -125 -5 c-69
-3 -132 -5 -140 -5 -8 -1 -26 2 -40 5 -21 5 -20 4 5 -8z"/>
<path d="M2290 161 c0 -28 73 -70 102 -58 7 3 0 6 -15 6 -17 1 -40 12 -58 30
-16 16 -29 26 -29 22z"/>
<path d="M840 2219 c58 -20 130 -81 130 -110 0 -9 6 -21 13 -26 23 -17 67 -33
67 -24 0 5 -14 14 -30 20 -18 6 -34 21 -41 38 -6 15 -20 39 -32 52 -26 28
-113 71 -142 70 -11 0 5 -9 35 -20z"/>
<path d="M1630 1890 c0 -227 4 -350 10 -350 6 0 10 123 10 350 0 227 -4 350
-10 350 -6 0 -10 -123 -10 -350z"/>
<path d="M2760 2221 c-49 -15 -104 -40 -90 -41 3 0 43 13 90 29 91 32 91 42 0
12z"/>
<path d="M943 1844 c-15 -15 -19 -20 -9 -13 11 8 29 14 42 14 21 1 19 -2 -14
-33 l-37 -33 38 27 c21 15 62 36 90 45 29 10 45 18 36 19 -9 0 -30 -5 -47 -11
-22 -7 -36 -7 -51 0 -16 9 -25 6 -48 -15z"/>
<path d="M1135 1850 l-50 -7 45 -1 c25 0 54 3 65 8 23 10 12 10 -60 0z"/>
<path d="M1150 1830 c-44 -8 -44 -8 15 -7 33 0 69 -3 80 -8 14 -6 17 -5 10 3
-15 16 -54 20 -105 12z"/>
<path d="M1033 1799 c-18 -5 -35 -14 -38 -19 -4 -6 6 -5 22 2 15 6 62 14 103
18 l75 7 -65 1 c-36 0 -79 -4 -97 -9z"/>
<path d="M1067 1720 c18 -4 59 -4 90 0 55 7 53 7 -32 8 -63 0 -80 -2 -58 -8z"/>
<path d="M2426 1694 c-26 -18 -51 -26 -78 -26 -56 1 -79 -10 -142 -68 -31 -27
-60 -50 -64 -50 -4 0 -16 -13 -27 -29 -19 -29 -20 -29 -53 -15 -48 20 -54 17
-12 -6 47 -25 55 -25 69 6 19 42 24 21 6 -24 -16 -39 -36 -53 -90 -65 -16 -4
-15 -5 5 -6 42 -2 85 32 98 77 10 32 20 43 50 56 33 14 134 96 118 96 -4 0
-25 -17 -49 -39 -23 -21 -53 -42 -67 -46 -19 -6 -14 2 24 36 65 58 73 62 120
61 27 -1 54 6 85 25 25 15 66 30 91 34 l45 6 -45 2 c-34 1 -55 -6 -84 -25z"/>
<path d="M2855 1694 c-22 -8 -44 -19 -50 -25 -5 -6 8 -3 30 6 22 9 69 20 105
25 l65 7 -55 1 c-30 0 -73 -6 -95 -14z"/>
<path d="M1105 1693 c43 -2 86 -9 94 -16 11 -9 13 -9 8 0 -4 6 -1 14 5 16 7 3
-32 5 -87 4 -95 -1 -96 -1 -20 -4z"/>
<path d="M998 1653 c23 -2 61 -2 85 0 23 2 4 4 -43 4 -47 0 -66 -2 -42 -4z"/>
<path d="M5 1110 c-4 -6 6 -10 24 -10 16 0 33 5 36 10 4 6 -6 10 -24 10 -16 0
-33 -4 -36 -10z"/>
<path d="M2530 494 c29 -14 64 -18 195 -18 151 -1 160 0 163 19 4 16 2 17 -11
6 -12 -9 -55 -11 -174 -8 -87 2 -169 7 -183 11 -15 4 -11 0 10 -10z"/>
<path d="M2648 343 c68 -2 176 -2 240 0 64 1 9 3 -123 3 -132 0 -185 -2 -117
-3z"/>
<path d="M73 271 c-34 -3 -64 -9 -68 -13 -10 -9 147 3 165 13 17 10 2 10 -97
0z"/>
<path d="M1895 180 c17 -4 44 -8 60 -8 25 0 24 2 -10 9 -51 10 -92 10 -50 -1z"/>
<path d="M1750 164 l-65 -13 60 6 c33 4 83 6 110 6 38 -1 44 1 25 7 -34 11
-54 10 -130 -6z"/>
<path d="M1775 39 c208 -11 1225 -11 1225 1 0 7 -231 9 -677 8 -409 -1 -626
-4 -548 -9z"/>
</g>
</svg>
